<?xml version="1.0" encoding="UTF-8"?>
<svg version="1.1" xmlns="http://www.w3.org/2000/svg" width="500" height="500">
<path d="M0 0 C165 0 330 0 500 0 C500 165 500 330 500 500 C335 500 170 500 0 500 C0 335 0 170 0 0 Z " fill="#DADFE4" transform="translate(0,0)"/>
<path d="M0 0 C5.50004217 3.0848945 10.66076608 4.60076613 16.74609375 5.9597168 C22.80932504 7.33819125 28.06571557 9.51667209 33.5625 12.375 C34.31660156 12.74238281 35.07070313 13.10976562 35.84765625 13.48828125 C52.60047997 22.08629131 63.14516409 35.7730472 68.9375 53.375 C69.13666016 53.99914795 69.33582031 54.6232959 69.54101562 55.26635742 C71.48581505 61.32265064 73.78229112 67.21963409 76.15185547 73.12109375 C80.93980731 85.14942933 80.93980731 85.14942933 80.5625 91.375 C75.30090541 92.01665788 72.87657151 90.58077001 68.8828125 87.46875 C68.44710937 87.1078125 68.01140625 86.746875 67.5625 86.375 C67.7171875 88.169375 67.7171875 88.169375 67.875 90 C67.84394256 99.84520747 63.51204853 109.07402386 57.40625 116.60546875 C55.5625 118.375 55.5625 118.375 53.109375 119.83984375 C50.3222822 121.51979386 48.47728173 123.32907998 46.3125 125.75 C45.62671875 126.50023437 44.9409375 127.25046875 44.234375 128.0234375 C41.47349157 131.90673616 41.44556465 135.9551413 41.38671875 140.61328125 C41.36287109 141.59876953 41.33902344 142.58425781 41.31445312 143.59960938 C41.2717333 145.64627712 41.24034822 147.6932151 41.22070312 149.74023438 C41.00337075 157.4984947 39.49520385 162.92476018 34.4375 168.875 C32.5625 170.375 32.5625 170.375 30.5625 170.375 C29.5725 167.9 29.5725 167.9 28.5625 165.375 C28.17578125 165.98988281 27.7890625 166.60476563 27.390625 167.23828125 C26.86984375 168.04652344 26.3490625 168.85476563 25.8125 169.6875 C25.04679687 170.88826172 25.04679687 170.88826172 24.265625 172.11328125 C22.52140873 174.42956846 21.04412754 175.88602347 18.5625 177.375 C14.8125 177.5625 14.8125 177.5625 11.5625 177.375 C12.80350329 174.16860688 14.16336401 171.11122376 15.75 168.0625 C17.36880926 164.90534861 18.84394605 161.74002402 20.1640625 158.44921875 C23.15121229 151.06864234 25.68480097 145.46841577 31.76953125 140.08984375 C36.55286046 135.51493847 38.00267137 129.51410215 38.97265625 123.16015625 C39.16730469 122.57105469 39.36195313 121.98195313 39.5625 121.375 C40.5525 121.045 41.5425 120.715 42.5625 120.375 C42.5625 119.715 42.5625 119.055 42.5625 118.375 C40.609375 118.40755208 38.65625 118.44010417 36.703125 118.47265625 C34.5625 118.375 34.5625 118.375 32.74023438 117.875 C30.28476637 117.31123335 28.09650754 117.26198776 25.578125 117.27734375 C24.17626953 117.28217773 24.17626953 117.28217773 22.74609375 117.28710938 C21.77800781 117.29548828 20.80992187 117.30386719 19.8125 117.3125 C18.33716797 117.31926758 18.33716797 117.31926758 16.83203125 117.32617188 C14.40879209 117.33793517 11.98567727 117.35437316 9.5625 117.375 C11.28564453 113.50585938 11.28564453 113.50585938 13.77734375 112.328125 C20.29034301 110.64614528 26.8346614 109.30609106 33.5625 110.375 C35.2125 111.365 36.8625 112.355 38.5625 113.375 C38.8925 104.795 39.2225 96.215 39.5625 87.375 C35.47633015 90.93594412 35.47633015 90.93594412 34.1875 94.8125 C32.20463296 99.15955466 30.42669555 100.66184142 26.5625 103.375 C25.9025 103.375 25.2425 103.375 24.5625 103.375 C24.5625 100.075 24.5625 96.775 24.5625 93.375 C23.964375 94.633125 23.36625 95.89125 22.75 97.1875 C21.36872657 100.09293722 20.05487167 102.30129443 17.5625 104.375 C16.9025 104.375 16.2425 104.375 15.5625 104.375 C15.70334796 102.58293453 15.85033701 100.79135083 16 99 C16.08121094 98.00226563 16.16242188 97.00453125 16.24609375 95.9765625 C16.5625 93.375 16.5625 93.375 17.5625 91.375 C17.6341735 88.82342345 17.65558442 86.30027029 17.625 83.75 C17.61823242 82.69039062 17.61823242 82.69039062 17.61132812 81.609375 C17.59953875 79.86454725 17.58160324 78.119763 17.5625 76.375 C17.13839844 77.22320312 16.71429688 78.07140625 16.27734375 78.9453125 C15.36661754 80.76676491 14.4556868 82.58811887 13.54077148 84.4074707 C11.93618067 87.60274773 10.35064395 90.80358003 8.8203125 94.03515625 C5.15430615 101.66281463 1.21583465 109.00687591 -4.4375 115.375 C-5.0975 115.375 -5.7575 115.375 -6.4375 115.375 C-6.37691406 114.67117188 -6.31632813 113.96734375 -6.25390625 113.2421875 C-5.57919719 105.29100079 -4.99096597 97.33548926 -4.4375 89.375 C-4.86160156 89.95507812 -5.28570312 90.53515625 -5.72265625 91.1328125 C-9.15445286 95.70351304 -12.51092645 99.60170818 -17.0546875 103.0859375 C-18.723381 104.43547188 -18.723381 104.43547188 -19.4375 107.375 C-17.7875 108.035 -16.1375 108.695 -14.4375 109.375 C-14.4375 110.035 -14.4375 110.695 -14.4375 111.375 C-19.62705 110.9425375 -24.4567256 110.18868647 -29.5 108.875 C-34.14197756 107.67951583 -38.64361836 106.65604834 -43.4375 106.375 C-44.62988281 106.29894531 -45.82226562 106.22289062 -47.05078125 106.14453125 C-55.19495545 105.47943201 -55.19495545 105.47943201 -62.1875 108.9375 C-62.93 109.741875 -63.6725 110.54625 -64.4375 111.375 C-65.9225 110.88 -65.9225 110.88 -67.4375 110.375 C-67.4375 109.055 -67.4375 107.735 -67.4375 106.375 C-69.87660662 106.47828563 -69.87660662 106.47828563 -72.4375 107.375 C-73.90797903 109.66060267 -73.90797903 109.66060267 -74.75 112.4375 C-75.07613281 113.35660156 -75.40226562 114.27570313 -75.73828125 115.22265625 C-75.96902344 115.93292969 -76.19976562 116.64320313 -76.4375 117.375 C-77.0975 117.375 -77.7575 117.375 -78.4375 117.375 C-78.4468457 116.75044922 -78.45619141 116.12589844 -78.46582031 115.48242188 C-78.51998937 112.6125237 -78.60354195 109.74417515 -78.6875 106.875 C-78.70167969 105.89273438 -78.71585937 104.91046875 -78.73046875 103.8984375 C-78.97427608 96.58421747 -80.13168091 90.90120703 -85.3125 85.375 C-89.16954616 83.55991945 -92.49059106 84.05936369 -96.4375 85.375 C-97.52492694 87.58933941 -97.52492694 87.58933941 -98.4375 90.375 C-98.94410156 91.37917969 -99.45070312 92.38335937 -99.97265625 93.41796875 C-101.96711144 98.06075901 -101.93157628 102.57166393 -101.875 107.5625 C-101.86742676 108.49215576 -101.85985352 109.42181152 -101.85205078 110.37963867 C-101.56135393 122.54752966 -98.07940067 131.73309933 -89.4375 140.375 C-86.35402174 140.54181109 -86.35402174 140.54181109 -83.4375 140.375 C-83.75073028 142.04556149 -84.09084443 143.71105325 -84.4375 145.375 C-84.664375 146.57125 -84.89125 147.7675 -85.125 149 C-86.50855827 154.59858462 -89.54947465 159.43447865 -92.4375 164.375 C-94.0875 164.375 -95.7375 164.375 -97.4375 164.375 C-97.7675 163.055 -98.0975 161.735 -98.4375 160.375 C-98.84484375 160.87902344 -99.2521875 161.38304687 -99.671875 161.90234375 C-101.4375 163.375 -101.4375 163.375 -103.453125 163.44140625 C-109.32031283 162.11821179 -113.66278773 160.18898371 -117.4375 155.375 C-119.09702231 152.13161749 -120.32797394 148.84077763 -121.4375 145.375 C-121.7675 144.385 -122.0975 143.395 -122.4375 142.375 C-123.0975 144.355 -123.7575 146.335 -124.4375 148.375 C-130.2762605 143.50936625 -132.08791624 137.42375127 -134.4375 130.375 C-134.48565558 128.4289794 -134.47486544 126.48124825 -134.4296875 124.53515625 C-134.41292969 123.38982422 -134.39617187 122.24449219 -134.37890625 121.06445312 C-134.33470406 118.65023346 -134.2826446 116.23614462 -134.22265625 113.82226562 C-134.20138672 112.10233398 -134.20138672 112.10233398 -134.1796875 110.34765625 C-134.1576123 109.29843994 -134.13553711 108.24922363 -134.11279297 107.16821289 C-134.48466242 103.96929678 -135.38316441 102.78513069 -137.4375 100.375 C-140.05753474 92.51489579 -137.83373929 85.30343542 -134.3359375 78.109375 C-134.03945312 77.53703125 -133.74296875 76.9646875 -133.4375 76.375 C-134.159375 76.148125 -134.88125 75.92125 -135.625 75.6875 C-139.5173863 73.87105306 -142.49887486 71.25225027 -144.4375 67.375 C-143.83164063 66.90191406 -143.22578125 66.42882812 -142.6015625 65.94140625 C-130.56234236 56.98588246 -130.56234236 56.98588246 -121.4375 45.375 C-122.9225 44.88 -122.9225 44.88 -124.4375 44.375 C-122.87738817 40.8972507 -120.80577674 38.10275973 -118.4375 35.125 C-117.73625 34.23296875 -117.035 33.3409375 -116.3125 32.421875 C-115.69375 31.74640625 -115.075 31.0709375 -114.4375 30.375 C-113.7775 30.375 -113.1175 30.375 -112.4375 30.375 C-112.16292969 29.78114502 -111.88835937 29.18729004 -111.60546875 28.57543945 C-106.57349481 19.09525946 -96.46243754 10.78996253 -87.4375 5.375 C-86.81327148 4.98860352 -86.18904297 4.60220703 -85.54589844 4.20410156 C-76.79202369 -1.2122303 -68.12736367 -6.05657715 -58.4375 -9.625 C-57.72078125 -9.94210938 -57.0040625 -10.25921875 -56.265625 -10.5859375 C-37.99038906 -18.074662 -16.00794162 -9.23230297 0 0 Z " fill="#080201" transform="translate(303.4375,218.625)"/>
<path d="M0 0 C1.15564453 -0.00515625 2.31128906 -0.0103125 3.50195312 -0.015625 C4.70658203 -0.00015625 5.91121094 0.0153125 7.15234375 0.03125 C8.32990234 0.01578125 9.50746094 0.0003125 10.72070312 -0.015625 C22.39861394 0.03607577 31.15178549 3.53327791 40.96484375 9.59375 C42.04378906 10.2444043 42.04378906 10.2444043 43.14453125 10.90820312 C44.52444743 11.74147972 45.90150552 12.57951461 47.27514648 13.4230957 C48.79312925 14.35005975 50.32825796 15.24886836 51.8671875 16.140625 C54.05929322 17.51213579 55.87047414 18.97733545 57.77734375 20.71875 C63.63679257 25.95556289 69.7829101 30.84444609 76.08984375 35.53125 C76.74984375 32.89125 77.40984375 30.25125 78.08984375 27.53125 C81.30966381 28.92019199 83.16333909 30.47371936 85.40234375 33.15625 C86.00949219 33.87296875 86.61664063 34.5896875 87.2421875 35.328125 C87.85191406 36.05515625 88.46164062 36.7821875 89.08984375 37.53125 C90.21118149 38.82609727 91.33614953 40.11781019 92.46484375 41.40625 C93.04234375 42.06882812 93.61984375 42.73140625 94.21484375 43.4140625 C95.53256753 44.90199227 96.86755536 46.37472399 98.21484375 47.8359375 C107.31301948 57.72388543 114.75482938 67.97899255 120.95776367 79.85009766 C121.90863775 81.6682849 122.87586178 83.47702701 123.84570312 85.28515625 C127.38067763 91.94719122 130.2652514 98.46976912 133.08984375 105.53125 C61.80984375 105.53125 -9.47015625 105.53125 -82.91015625 105.53125 C-75.67250174 83.81828648 -62.06249817 69.51375966 -44.98364258 54.88061523 C-40.06746644 50.65692565 -35.52885455 46.19686108 -31.09765625 41.46875 C-30.44345703 40.78748047 -29.78925781 40.10621094 -29.11523438 39.40429688 C-25.5820538 35.64736023 -22.91039593 32.29762039 -20.91015625 27.53125 C-20.25015625 27.53125 -19.59015625 27.53125 -18.91015625 27.53125 C-17.65547035 24.4566484 -16.47247975 21.3615463 -15.32421875 18.24609375 C-14.72787404 16.65364229 -14.13151963 15.06119447 -13.53515625 13.46875 C-13.24382812 12.66630859 -12.9525 11.86386719 -12.65234375 11.03710938 C-12.3584375 10.26044922 -12.06453125 9.48378906 -11.76171875 8.68359375 C-11.37234131 7.6315979 -11.37234131 7.6315979 -10.97509766 6.55834961 C-8.2931216 1.45324938 -5.69210268 0.02468885 0 0 Z " fill="#081020" transform="translate(186.91015625,394.46875)"/>
<path d="M0 0 C0.33 0 0.66 0 1 0 C1.35396698 10.21260287 0.84613188 19.10630347 -2 29 C2.33034194 25.15080717 4.6560756 21.27710354 7 16 C7.33 16 7.66 16 8 16 C8.14285714 24.57142857 8.14285714 24.57142857 7 28 C8.94999129 27.80528889 8.94999129 27.80528889 11 27 C12.28436734 25.0162233 12.28436734 25.0162233 13 23 C13.66 23 14.32 23 15 23 C15.268125 21.9275 15.53625 20.855 15.8125 19.75 C16.86117431 16.43839693 17.62752161 14.47133166 20 12 C20.66 12 21.32 12 22 12 C22 20.91 22 29.82 22 39 C20.02 38.01 18.04 37.02 16 36 C8.69334491 34.88264045 0.77986997 36.09434144 -6 39 C-6.66 39.99 -7.32 40.98 -8 42 C-7.32195312 41.9278125 -6.64390625 41.855625 -5.9453125 41.78125 C4.81670866 40.70802905 14.35234022 40.95096582 25 43 C25 43.66 25 44.32 25 45 C24.01 45.495 24.01 45.495 23 46 C22.23075743 48.34133792 22.23075743 48.34133792 21.625 51.125 C19.87539621 57.82892741 17.74116967 62.48697193 12.5625 67.25 C8.14841606 71.46643839 6.26921916 76.42463373 4 82 C0.99007803 88.87170866 -2.23371447 95.50916749 -6 102 C-4.35 102 -2.7 102 -1 102 C-1 102.33 -1 102.66 -1 103 C-1.99 103.165 -2.98 103.33 -4 103.5 C-7.44185921 104.47850073 -9.15468632 105.94666785 -11.5625 108.5625 C-18.65109295 116.13377925 -30.64273674 124.94954916 -41.11328125 126.265625 C-45.14090256 126.35664469 -49.05961901 125.7880762 -53 125 C-53.495 126.98 -53.495 126.98 -54 129 C-54.66 128.67 -55.32 128.34 -56 128 C-56.144375 128.94875 -56.28875 129.8975 -56.4375 130.875 C-57 134 -57 134 -58 136 C-61.54923911 134.43269582 -64.27202766 132.28421705 -67.25 129.8125 C-68.219375 129.01070312 -69.18875 128.20890625 -70.1875 127.3828125 C-72.58044358 125.35545752 -74.92188333 123.28826153 -77.25 121.1875 C-80.60740669 118.20468001 -84.02105817 116.07236554 -88 114 C-87.34 113.34 -86.68 112.68 -86 112 C-85.82757988 109.31433743 -85.76767722 106.7447894 -85.8125 104.0625 C-85.81314453 103.33353516 -85.81378906 102.60457031 -85.81445312 101.85351562 C-85.84087416 98.65069929 -85.98093137 96.0572059 -87 93 C-87.66 93 -88.32 93 -89 93 C-100 78.26108374 -100 78.26108374 -100 72 C-100.66 72 -101.32 72 -102 72 C-102.33 72.99 -102.66 73.98 -103 75 C-103.22036864 71.14354879 -102.60355101 68.50776784 -101 65 C-102.2684375 65.495 -102.2684375 65.495 -103.5625 66 C-107 66 -107 66 -108.8515625 64.49609375 C-117.04153055 55.31287426 -120.59268116 44.87286532 -120.5625 32.6875 C-120.5622583 31.77121826 -120.5620166 30.85493652 -120.56176758 29.91088867 C-120.36765706 22.20436067 -118.80443873 16.23057382 -114 10 C-110.48746854 7.65831236 -109.13530644 7.50376323 -105 8 C-100.13813715 10.77820734 -97.7690328 14.81754038 -96 20 C-95.5444009 23.85282889 -95.61786741 27.62749868 -95.75 31.5 C-95.76804688 32.51320313 -95.78609375 33.52640625 -95.8046875 34.5703125 C-95.85143417 37.04788607 -95.91693628 39.52342316 -96 42 C-95.34 42 -94.68 42 -94 42 C-93.79503906 41.28972656 -93.59007812 40.57945312 -93.37890625 39.84765625 C-92.97478516 38.46900391 -92.97478516 38.46900391 -92.5625 37.0625 C-92.29566406 36.14597656 -92.02882812 35.22945313 -91.75390625 34.28515625 C-91 32 -91 32 -90 31 C-88.33382885 30.95936168 -86.66611905 30.957279 -85 31 C-84.505 32.98 -84.505 32.98 -84 35 C-80.46391991 33.8470729 -80.46391991 33.8470729 -77.75 31.44921875 C-73.68891896 28.08613601 -66.09456049 29.57496542 -61 30 C-51.21639211 31.23252569 -41.57063153 33.68928246 -32 36 C-33.63412443 34.29159719 -34.86906094 33.06546953 -37 32 C-36.44833096 28.3222064 -35.19790622 27.01435688 -32.3125 24.75 C-28.1379344 21.28247794 -25.05843201 17.46021334 -22 13 C-20.7447562 17.24751831 -21.30275368 21.04970966 -21.875 25.375 C-22.01228516 26.48875 -22.01228516 26.48875 -22.15234375 27.625 C-22.6720839 31.76828059 -23.2816306 35.88570254 -24 40 C-20.20087111 36.45370281 -17.33569436 32.79890216 -14.6875 28.3125 C-14.1160022 27.35694214 -14.1160022 27.35694214 -13.53295898 26.38208008 C-10.05690764 20.40763927 -7.24469934 14.18030884 -4.56323242 7.81567383 C-2.18146946 2.18146946 -2.18146946 2.18146946 0 0 Z " fill="#9A8181" transform="translate(321,294)"/>
<path d="M0 0 C5.65569852 1.03880177 8.12485941 2.8223646 11.98046875 7 C15.14416015 10.13309477 18.77231107 12.56555494 22.3984375 15.1328125 C25.40199888 17.28852172 28.20526439 19.58293137 31 22 C31.66 19.36 32.32 16.72 33 14 C36.21982006 15.38894199 38.07349534 16.94246936 40.3125 19.625 C40.91964844 20.34171875 41.52679688 21.0584375 42.15234375 21.796875 C42.76207031 22.52390625 43.37179687 23.2509375 44 24 C45.12133774 25.29484727 46.24630578 26.58656019 47.375 27.875 C47.9525 28.53757812 48.53 29.20015625 49.125 29.8828125 C50.44272378 31.37074227 51.77771161 32.84347399 53.125 34.3046875 C62.22317573 44.19263543 69.66498563 54.44774255 75.86791992 66.31884766 C76.818794 68.1370349 77.78601803 69.94577701 78.75585938 71.75390625 C82.26568837 78.35118759 85.42902543 84.97798158 88 92 C83.35526018 92.07416067 78.71086501 92.12860615 74.06567383 92.16479492 C72.48553464 92.17988094 70.90543731 92.2003525 69.32543945 92.22631836 C67.05409415 92.26271126 64.78330241 92.27972762 62.51171875 92.29296875 C61.45219246 92.31619453 61.45219246 92.31619453 60.3712616 92.33988953 C55.41812128 92.34158887 55.41812128 92.34158887 53.21801758 90.54418945 C52.61509888 89.77981567 52.61509888 89.77981567 52 89 C51.01 88.67 50.02 88.34 49 88 C48 86 47 84 46 82 C42.22539017 76.20970548 42.22539017 76.20970548 37 72 C37 71.34 37 70.68 37 70 C36.41089844 69.73832031 35.82179688 69.47664063 35.21484375 69.20703125 C32.88214566 67.9357725 31.39645632 66.59769469 29.5625 64.6875 C28.95535156 64.06359375 28.34820312 63.4396875 27.72265625 62.796875 C27.15417969 62.20390625 26.58570313 61.6109375 26 61 C21.39516164 56.28004068 16.74971941 51.63813072 11.0625 48.25 C10.381875 47.8375 9.70125 47.425 9 47 C9 46.34 9 45.68 9 45 C8.21625 44.71125 7.4325 44.4225 6.625 44.125 C4 43 4 43 2 41 C1.175 40.67 0.35 40.34 -0.5 40 C-3 39 -3 39 -5 37 C-5.4406597 31.42067966 -4.40550248 26.44333491 -3.125 21.0625 C-2.95097656 20.30259766 -2.77695313 19.54269531 -2.59765625 18.75976562 C-1.90520846 15.75659393 -1.21204697 12.76205433 -0.38574219 9.79248047 C0.63218109 6.09801776 1.13756776 3.65848655 0 0 Z " fill="#020303" transform="translate(232,408)"/>
<path d="M0 0 C4.86186285 2.77820734 7.2309672 6.81754038 9 12 C9.4555991 15.85282889 9.38213259 19.62749868 9.25 23.5 C9.23195312 24.51320313 9.21390625 25.52640625 9.1953125 26.5703125 C9.14856583 29.04788607 9.08306372 31.52342316 9 34 C9.66 34 10.32 34 11 34 C11.20496094 33.28972656 11.40992188 32.57945312 11.62109375 31.84765625 C11.89050781 30.92855469 12.15992188 30.00945312 12.4375 29.0625 C12.70433594 28.14597656 12.97117188 27.22945313 13.24609375 26.28515625 C14 24 14 24 15 23 C16.66617115 22.95936168 18.33388095 22.957279 20 23 C20.495 24.98 20.495 24.98 21 27 C22.06927734 26.80083984 22.06927734 26.80083984 23.16015625 26.59765625 C28.43010955 25.62594212 33.6880905 24.7082546 39 24 C39 25.32 39 26.64 39 28 C39.66 28 40.32 28 41 28 C40.67 29.98 40.34 31.96 40 34 C35.05 34.495 35.05 34.495 30 35 C32.08129104 35.98350025 34.16511359 36.96164458 36.25 37.9375 C37.41015625 38.48277344 38.5703125 39.02804687 39.765625 39.58984375 C42.23044777 40.66448266 44.38065227 41.48780081 47 42 C48.17245648 47.59027248 48.1836593 53.06576364 48.1875 58.75 C48.19974609 59.6884375 48.21199219 60.626875 48.22460938 61.59375 C48.23982019 68.93550233 47.56782745 75.99332984 44.875 82.875 C42.71085558 90.60408723 43.95241376 99.14310318 45 107 C42.03 106.01 42.03 106.01 39 105 C39 104.34 39 103.68 39 103 C38.43410156 102.73703125 37.86820313 102.4740625 37.28515625 102.203125 C27.18661052 96.88628383 20.53235396 88.04717006 14 79 C13.45085937 78.24332031 12.90171875 77.48664063 12.3359375 76.70703125 C8.23222905 70.60182082 5 63.39774486 5 56 C3.80375 56.309375 2.6075 56.61875 1.375 56.9375 C-1.357656 57.28573227 -2.50595302 57.3593069 -4.76171875 55.71875 C-12.43789032 46.90178719 -15.59097982 36.18596456 -15.5625 24.6875 C-15.5622583 23.77121826 -15.5620166 22.85493652 -15.56176758 21.91088867 C-15.36765706 14.20436067 -13.80443873 8.23057382 -9 2 C-5.48746854 -0.34168764 -4.13530644 -0.49623677 0 0 Z " fill="#C8B2AE" transform="translate(216,302)"/>
<path d="M0 0 C1.24546405 2.49092811 0.7767578 3.41080733 0 6 C1.02770508 5.98428955 1.02770508 5.98428955 2.07617188 5.96826172 C5.21740974 5.92637148 8.35858857 5.90056963 11.5 5.875 C12.57765625 5.85824219 13.6553125 5.84148437 14.765625 5.82421875 C20.91024644 5.78675155 26.12606989 6.18265146 32 8 C32.87785156 8.26039063 33.75570312 8.52078125 34.66015625 8.7890625 C42.9618318 11.67777562 53.69271965 15.69271965 60 22 C60 23.32 60 24.64 60 26 C59.01 26 58.02 26 57 26 C56.814375 27.175625 56.814375 27.175625 56.625 28.375 C56 31 56 31 54 33 C53.01 33 52.02 33 51 33 C50.896875 33.78375 50.79375 34.5675 50.6875 35.375 C50 38 50 38 47 40 C41.43232291 40.47997216 37.2953366 39.69628539 32.078125 37.75390625 C19.4107218 33.15840095 5.9191259 36.41840678 -5.98046875 41.73046875 C-14.05319434 45.51939168 -21.34247923 50.03814851 -28.5234375 55.3125 C-31 57 -31 57 -33 57 C-33.226875 57.556875 -33.45375 58.11375 -33.6875 58.6875 C-35 61 -35 61 -37.33203125 63.25 C-40.084187 66.08677548 -41.91029484 68.96978803 -44 72.3125 C-47.9430689 77.76340912 -47.9430689 77.76340912 -52.47265625 78.77734375 C-55.728829 78.75254156 -58.7904675 78.53574886 -62 78 C-55.78524373 56.43114001 -40.67104735 41.57013701 -24.07348633 27.34936523 C-19.15731019 23.12567565 -14.6186983 18.66561108 -10.1875 13.9375 C-9.20620117 12.9155957 -9.20620117 12.9155957 -8.20507812 11.87304688 C-4.67189755 8.11611023 -2.00023968 4.76637039 0 0 Z " fill="#586C79" transform="translate(166,422)"/>
<path d="M0 0 C2.65426138 2.33827789 5.12459583 4.81209583 7.625 7.3125 C8.615 7.6425 9.605 7.9725 10.625 8.3125 C12.66819431 11.80088053 14.1056852 15.57075708 15.625 19.3125 C15.95113281 20.09753906 16.27726562 20.88257813 16.61328125 21.69140625 C18.91539129 27.79036129 18.625 31.24159027 18.625 38.3125 C-11.405 38.3125 -41.435 38.3125 -72.375 38.3125 C-69.405 33.8575 -69.405 33.8575 -66.375 29.3125 C-65.715 29.3125 -65.055 29.3125 -64.375 29.3125 C-64.10429688 28.71953125 -63.83359375 28.1265625 -63.5546875 27.515625 C-56.10325992 13.59971389 -34.90170435 4.64900123 -20.5625 -0.1875 C-13.5017805 -2.14978433 -6.73375785 -3.36687893 0 0 Z " fill="#556A79" transform="translate(191.375,461.6875)"/>
<path d="M0 0 C1.15564453 -0.00515625 2.31128906 -0.0103125 3.50195312 -0.015625 C4.70658203 -0.00015625 5.91121094 0.0153125 7.15234375 0.03125 C8.32990234 0.01578125 9.50746094 0.0003125 10.72070312 -0.015625 C21.76973045 0.03329156 30.41216841 3.11809806 39.77734375 8.78125 C40.39544922 9.14476562 41.01355469 9.50828125 41.65039062 9.8828125 C43.13503362 10.75748589 44.61321355 11.64311622 46.08984375 12.53125 C45.75984375 13.85125 45.42984375 15.17125 45.08984375 16.53125 C45.74984375 16.86125 46.40984375 17.19125 47.08984375 17.53125 C46.94885254 18.08361328 46.80786133 18.63597656 46.66259766 19.20507812 C43.69207403 30.95093238 41.23394373 42.45843384 40.08984375 54.53125 C39.42984375 54.53125 38.76984375 54.53125 38.08984375 54.53125 C38.00734375 55.088125 37.92484375 55.645 37.83984375 56.21875 C36.85088834 59.26802919 35.24226909 61.18314963 33.08984375 63.53125 C32.42984375 63.53125 31.76984375 63.53125 31.08984375 63.53125 C30.78046875 64.170625 30.47109375 64.81 30.15234375 65.46875 C29.08984375 67.53125 29.08984375 67.53125 28.08984375 68.53125 C26.09026011 68.57205783 24.08939121 68.57379356 22.08984375 68.53125 C24.42198523 67.32496992 26.58626514 66.3657762 29.08984375 65.53125 C29.17234375 64.7475 29.25484375 63.96375 29.33984375 63.15625 C29.58734375 62.29 29.83484375 61.42375 30.08984375 60.53125 C31.41452121 59.8475455 32.74848008 59.18160814 34.08984375 58.53125 C35.37239019 55.99354997 35.37239019 55.99354997 36.08984375 53.53125 C37.07984375 53.53125 38.06984375 53.53125 39.08984375 53.53125 C38.51743075 50.65371435 37.68544268 48.96168284 35.28857422 47.22949219 C32.90255641 45.87454699 30.48488042 44.62662128 28.02734375 43.40625 C27.20556641 42.97699219 26.38378906 42.54773438 25.53710938 42.10546875 C16.35574845 37.4100442 7.61673288 34.6048426 -2.74609375 34.21484375 C-3.80957031 34.17294922 -4.87304688 34.13105469 -5.96875 34.08789062 C-7.61037109 34.02891602 -7.61037109 34.02891602 -9.28515625 33.96875 C-10.96158203 33.90397461 -10.96158203 33.90397461 -12.671875 33.83789062 C-15.41785824 33.73227589 -18.16392506 33.6301703 -20.91015625 33.53125 C-20.38255884 29.54559562 -19.59382332 26.48728977 -17.66015625 22.96875 C-15.01169793 17.93896893 -13.08620934 12.77735402 -11.21875 7.4140625 C-8.68344279 1.82881856 -6.11563908 0.02652589 0 0 Z " fill="#212841" transform="translate(186.91015625,394.46875)"/>
<path d="M0 0 C0.33 0 0.66 0 1 0 C1 165 1 330 1 500 C-0.32 500 -1.64 500 -3 500 C-2.92176654 454.72907481 -2.84234754 409.45815175 -2.7563324 364.1872406 C-2.75506072 363.51775333 -2.75378904 362.84826605 -2.75247882 362.15849128 C-2.72483771 347.6104894 -2.69697473 333.06248796 -2.66888306 318.51448694 C-2.65510926 311.38067041 -2.64138452 304.24685379 -2.62768555 297.11303711 C-2.62632146 296.40311759 -2.62495738 295.69319807 -2.62355196 294.96176584 C-2.57932107 271.93040055 -2.53833231 248.89903088 -2.49901587 225.86765673 C-2.45861301 202.20985296 -2.41495724 178.55205738 -2.36717889 154.8942673 C-2.33638307 139.64204298 -2.30847682 124.38981922 -2.28482103 109.13758206 C-2.26905446 99.15266362 -2.24965309 89.16775647 -2.22733159 79.18285055 C-2.21454164 73.41274297 -2.20341338 67.64264414 -2.19658089 61.87252617 C-2.19030169 56.59936989 -2.17950164 51.32624373 -2.1649667 46.05310392 C-2.16050688 44.13654756 -2.15776639 42.21998634 -2.15683801 40.30342502 C-2.15534377 37.71601414 -2.14782178 35.12869222 -2.1386652 32.54129887 C-2.13968787 31.7818618 -2.14071054 31.02242472 -2.14176419 30.23997441 C-2.1141458 25.1141458 -2.1141458 25.1141458 -1 24 C-0.84235595 22.22130274 -0.74899323 20.43681524 -0.68359375 18.65234375 C-0.64169922 17.57275391 -0.59980469 16.49316406 -0.55664062 15.38085938 C-0.51732422 14.24455078 -0.47800781 13.10824219 -0.4375 11.9375 C-0.39431641 10.79732422 -0.35113281 9.65714844 -0.30664062 8.48242188 C-0.20017161 5.65507805 -0.09815793 2.82764262 0 0 Z " fill="#C8CFD4" transform="translate(499,0)"/>
<path d="M0 0 C0.66 0 1.32 0 2 0 C2.68835938 1.42892578 2.68835938 1.42892578 3.390625 2.88671875 C4.01008974 4.15380572 4.62989981 5.4207239 5.25 6.6875 C5.55035156 7.31333984 5.85070312 7.93917969 6.16015625 8.58398438 C8.07251635 12.46973735 10.25230962 15.62617663 13 19 C13 19.66 13 20.32 13 21 C13.66 21 14.32 21 15 21 C17.52775351 24.79163027 17.22443035 27.80874031 17.125 32.1875 C17.11597656 32.93708984 17.10695312 33.68667969 17.09765625 34.45898438 C17.07412578 36.30612654 17.03825561 38.15310412 17 40 C14.49163745 40.96137631 12.73061383 41.2959323 10.20019531 40.27099609 C8.13607853 39.1320478 6.12730891 37.93192563 4.125 36.6875 C-5.22168341 30.97171157 -13.02251404 29.67285067 -23.9375 29.375 C-25.09830078 29.33632813 -26.25910156 29.29765625 -27.45507812 29.2578125 C-30.30323169 29.16404613 -33.15138738 29.07834083 -36 29 C-36 28.67 -36 28.34 -36 28 C-28.74 27.67 -21.48 27.34 -14 27 C-13.01 24.69 -12.02 22.38 -11 20 C-10.67 19.34 -10.34 18.68 -10 18 C-10.66 17.67 -11.32 17.34 -12 17 C-10.68 17 -9.36 17 -8 17 C-7.73445313 16.30519531 -7.46890625 15.61039062 -7.1953125 14.89453125 C-5.89396924 11.74323924 -4.41296617 8.72999829 -2.875 5.6875 C-2.33617187 4.61886719 -1.79734375 3.55023438 -1.2421875 2.44921875 C-0.83226562 1.64097656 -0.42234375 0.83273437 0 0 Z " fill="#C6AFAC" transform="translate(219,366)"/>
<path d="M0 0 C0.15855469 0.60585938 0.31710938 1.21171875 0.48046875 1.8359375 C3.761507 13.61867156 9.44174182 22.44062874 17 32 C17.67417969 32.88429688 18.34835938 33.76859375 19.04296875 34.6796875 C20.83979839 36.81006036 22.45289133 38.26636916 24.75 39.8125 C25.8225 40.534375 26.895 41.25625 28 42 C27.34 42.66 26.68 43.32 26 44 C26.66 44.61875 27.32 45.2375 28 45.875 C30 48 30 48 30 50 C32.31 50.66 34.62 51.32 37 52 C37 52.66 37 53.32 37 54 C37.556875 54.0825 38.11375 54.165 38.6875 54.25 C41 55 41 55 43.4375 57 C46.09612686 59.07502584 47.70014614 59.62287384 51 60 C49.02 60.495 49.02 60.495 47 61 C46.67 62.32 46.34 63.64 46 65 C45.01 64.505 45.01 64.505 44 64 C43.855625 64.94875 43.71125 65.8975 43.5625 66.875 C43 70 43 70 42 72 C38.45076089 70.43269582 35.72797234 68.28421705 32.75 65.8125 C31.780625 65.01070313 30.81125 64.20890625 29.8125 63.3828125 C27.41955642 61.35545752 25.07811667 59.28826153 22.75 57.1875 C19.39259331 54.20468001 15.97894183 52.07236554 12 50 C12.66 49.34 13.32 48.68 14 48 C14.17242012 45.31433743 14.23232278 42.7447894 14.1875 40.0625 C14.18685547 39.33353516 14.18621094 38.60457031 14.18554688 37.85351562 C14.15912584 34.65069929 14.01906863 32.0572059 13 29 C12.34 29 11.68 29 11 29 C0 14.26108374 0 14.26108374 0 8 C-0.66 8 -1.32 8 -2 8 C-2.33 8.99 -2.66 9.98 -3 11 C-3.22036864 7.14354879 -2.60355101 4.50776784 -1 1 C-2.98 1.33 -4.96 1.66 -7 2 C-4 0 -4 0 0 0 Z " fill="#98807F" transform="translate(221,358)"/>
<path d="M0 0 C0.33 0.66 0.66 1.32 1 2 C2.01707031 1.89171875 2.01707031 1.89171875 3.0546875 1.78125 C13.81670866 0.70802905 23.35234022 0.95096582 34 3 C34 3.66 34 4.32 34 5 C33.34 5.33 32.68 5.66 32 6 C31.23075743 8.34133792 31.23075743 8.34133792 30.625 11.125 C28.40586391 19.61704059 24.98071959 24.64680773 18 30 C18 26 18 26 20 24 C19.67 23.34 19.34 22.68 19 22 C18.67 21.34 18.34 20.68 18 20 C16.31970703 20.05220703 16.31970703 20.05220703 14.60546875 20.10546875 C13.13282749 20.13360839 11.66017002 20.16090837 10.1875 20.1875 C9.08051758 20.22520508 9.08051758 20.22520508 7.95117188 20.26367188 C2.51271677 20.33749706 2.51271677 20.33749706 -0.01171875 18.67578125 C-1 17 -1 17 -1 14 C-0.11957031 13.96261719 0.76085937 13.92523438 1.66796875 13.88671875 C3.41013672 13.78810547 3.41013672 13.78810547 5.1875 13.6875 C6.91033203 13.60048828 6.91033203 13.60048828 8.66796875 13.51171875 C12.16608423 12.97449351 14.0853443 11.93102411 17 10 C17.66 10 18.32 10 19 10 C19 10.66 19 11.32 19 12 C19.66 11.67 20.32 11.34 21 11 C18.94077598 8.94077598 14.78291876 9.58572421 11.9375 9.4375 C11.17888672 9.39431641 10.42027344 9.35113281 9.63867188 9.30664062 C7.75934562 9.20026367 5.87969756 9.09960066 4 9 C4 8.34 4 7.68 4 7 C4.66 7 5.32 7 6 7 C6 6.34 6 5.68 6 5 C11.28 5 16.56 5 22 5 C22 4.34 22 3.68 22 3 C14.74 3 7.48 3 0 3 C0 2.01 0 1.02 0 0 Z " fill="#886E6D" transform="translate(312,334)"/>
<path d="M0 0 C3.91275905 0.6388178 5.33013439 1.62382567 8.0625 4.5 C12.13850717 10.53154818 12.581957 15.86975327 12.3125 23 C12.29445312 23.9178125 12.27640625 24.835625 12.2578125 25.78125 C12.21113102 28.02196092 12.14568522 30.26039799 12.0625 32.5 C11.7325 32.5 11.4025 32.5 11.0625 32.5 C10.7325 26.89 10.4025 21.28 10.0625 15.5 C9.0725 15.17 8.0825 14.84 7.0625 14.5 C7.04123047 16.03720703 7.04123047 16.03720703 7.01953125 17.60546875 C6.97260984 18.96618971 6.92436256 20.32686541 6.875 21.6875 C6.86919922 22.36103516 6.86339844 23.03457031 6.85742188 23.72851562 C6.68722791 27.60515594 6.14538148 29.39501679 3.71875 32.46875 C0.5570677 34.88650705 -1.05052281 34.95197409 -4.9375 34.5 C-6.88424463 27.74090266 -6.51421367 21.01756986 -3.9375 14.5 C-3.57643903 12.83911955 -3.23287827 11.17381019 -2.9375 9.5 C-1.6175 9.5 -0.2975 9.5 1.0625 9.5 C-0.9175 8.84 -2.8975 8.18 -4.9375 7.5 C-5.2675 8.16 -5.5975 8.82 -5.9375 9.5 C-6.5975 9.17 -7.2575 8.84 -7.9375 8.5 C-7.24046416 3.62074914 -4.91137715 0.83597909 0 0 Z " fill="#C2A7A6" transform="translate(212.9375,301.5)"/>
<path d="M0 0 C55.11 0 110.22 0 167 0 C166.67 0.66 166.34 1.32 166 2 C151.45841445 2.17395813 136.91674788 2.34018116 122.375 2.5 C120.7545578 2.51781588 120.7545578 2.51781588 119.10137939 2.53599167 C89.06719143 2.86416586 59.03609561 3.09681716 29 3.0625 C28.24513054 3.06164398 27.49026108 3.06078796 26.71251678 3.05990601 C17.80831907 3.04901479 8.90415621 3.02978769 0 3 C0 2.01 0 1.02 0 0 Z " fill="#E5E9EC" transform="translate(90,1)"/>
<path d="M0 0 C32.67 0 65.34 0 99 0 C99.495 1.485 99.495 1.485 100 3 C67 3 34 3 0 3 C0 2.01 0 1.02 0 0 Z " fill="#CCD2D8" transform="translate(0,497)"/>
<path d="M0 0 C0 0.33 0 0.66 0 1 C1.65 1.33 3.3 1.66 5 2 C5 2.33 5 2.66 5 3 C4.37996094 3.01417969 3.75992188 3.02835937 3.12109375 3.04296875 C-9.07384439 3.69975581 -20.3962838 8.11468383 -31 14 C-31.94230469 14.48984375 -32.88460937 14.9796875 -33.85546875 15.484375 C-46.34898989 22.27257536 -55.43988446 31.82429359 -64 43 C-64.66 42.67 -65.32 42.34 -66 42 C-64.1597237 39.44801713 -62.30031767 36.9105635 -60.4375 34.375 C-59.92380859 33.66214844 -59.41011719 32.94929688 -58.88085938 32.21484375 C-46.67388913 15.68615112 -21.02456847 -0.64515824 0 0 Z " fill="#091B29" transform="translate(183,457)"/>
<path d="M0 0 C3.53471921 0 6.56187949 0.23597322 10 1 C10.33 1.66 10.66 2.32 11 3 C9.35 2.67 7.7 2.34 6 2 C5.93941406 2.71027344 5.87882813 3.42054688 5.81640625 4.15234375 C5.73261719 5.07144531 5.64882812 5.99054688 5.5625 6.9375 C5.48128906 7.85402344 5.40007812 8.77054687 5.31640625 9.71484375 C5 12 5 12 4 13 C3.92728259 15.35313555 3.91629132 17.70833668 3.9375 20.0625 C3.94652344 21.35285156 3.95554688 22.64320313 3.96484375 23.97265625 C3.97644531 24.97167969 3.98804688 25.97070312 4 27 C3.01 27 2.02 27 1 27 C1 28.98 1 30.96 1 33 C0.34 33 -0.32 33 -1 33 C-3.62201651 28.04846284 -3.33144297 23.08057557 -3.3125 17.625 C-3.32861328 16.70460938 -3.34472656 15.78421875 -3.36132812 14.8359375 C-3.36542148 9.10524023 -2.65792157 5.0914276 0 0 Z " fill="#BFA9A6" transform="translate(204,309)"/>
<path d="M0 0 C1.32 0.33 2.64 0.66 4 1 C4 1.66 4 2.32 4 3 C4.66 3 5.32 3 6 3 C6.77605884 13.81308648 6.77605884 13.81308648 3.875 18.25 C0.55710442 20.26958861 -1.1996954 20.14738023 -5 20 C-5.86140345 7.27037119 -5.86140345 7.27037119 -2.5 2.6875 C-1.675 1.800625 -0.85 0.91375 0 0 Z " fill="#9E8683" transform="translate(213,316)"/>
<path d="M0 0 C1.13115234 0.02707031 1.13115234 0.02707031 2.28515625 0.0546875 C12.04549384 0.69409305 22.42791584 4.44066441 31 9 C30.34 10.32 29.68 11.64 29 13 C27.865625 12.401875 26.73125 11.80375 25.5625 11.1875 C17.38217913 7.10457879 9.31459426 5.0279686 0.1640625 4.68359375 C-0.89941406 4.64169922 -1.96289062 4.59980469 -3.05859375 4.55664062 C-4.15300781 4.51732422 -5.24742187 4.47800781 -6.375 4.4375 C-7.49261719 4.39431641 -8.61023438 4.35113281 -9.76171875 4.30664062 C-12.50770199 4.20102589 -15.25376881 4.0989203 -18 4 C-18 3.34 -18 2.68 -18 2 C-12.08080096 -0.77325437 -6.40745535 -0.2307607 0 0 Z " fill="#121A2D" transform="translate(184,424)"/>
<path d="M0 0 C4.27070558 -0.08692074 8.54118458 -0.14036515 12.8125 -0.1875 C14.63491211 -0.22520508 14.63491211 -0.22520508 16.49414062 -0.26367188 C18.23920898 -0.27817383 18.23920898 -0.27817383 20.01953125 -0.29296875 C21.09307861 -0.3086792 22.16662598 -0.32438965 23.27270508 -0.34057617 C26 0 26 0 27.8737793 1.26831055 C29 3 29 3 29 7 C18.25494044 7.53193364 9.49310207 7.85477661 0 2 C0 1.34 0 0.68 0 0 Z " fill="#0F0503" transform="translate(248,337)"/>
<path d="M0 0 C0.763125 0.66 1.52625 1.32 2.3125 2 C1.3225 2.495 1.3225 2.495 0.3125 3 C0.3125 3.66 0.3125 4.32 0.3125 5 C0.9725 5.33 1.6325 5.66 2.3125 6 C1.05566406 5.83628906 -0.20117188 5.67257812 -1.49609375 5.50390625 C-6.92388634 4.90081818 -12.29470338 4.88814798 -17.75 4.9375 C-19.19149414 4.94426758 -19.19149414 4.94426758 -20.66210938 4.95117188 C-23.00397422 4.96282294 -25.34570181 4.97917975 -27.6875 5 C-25.96435547 1.13085938 -25.96435547 1.13085938 -23.47265625 -0.046875 C-6.65524865 -4.38996448 -6.65524865 -4.38996448 0 0 Z " fill="#150A09" transform="translate(340.6875,331)"/>
<path d="M0 0 C0.66 0 1.32 0 2 0 C-0.05691148 6.97064445 -2.50467797 14.19958448 -7 20 C-10.32358468 21.15963079 -11.62543012 21.12485663 -15 20 C-15 19.34 -15 18.68 -15 18 C-15.99 18 -16.98 18 -18 18 C-18 17.34 -18 16.68 -18 16 C-10 12 -10 12 -7.796875 10.9765625 C-5.42141448 9.68555135 -5.09140914 8.45567057 -4 6 C-2 2.75 -2 2.75 0 0 Z " fill="#8B6C6F" transform="translate(290,302)"/>
<path d="M0 0 C-1.36983503 3.16115776 -1.9890638 3.9927092 -5 6 C-8.25 6.30078125 -8.25 6.30078125 -12 6.3125 C-13.85625 6.33763672 -13.85625 6.33763672 -15.75 6.36328125 C-19 6 -19 6 -20.9375 4.66796875 C-22 3 -22 3 -22 0 C-20.41058594 0.01740234 -20.41058594 0.01740234 -18.7890625 0.03515625 C-17.40104342 0.04453476 -16.01302245 0.05363489 -14.625 0.0625 C-13.57699219 0.07506836 -13.57699219 0.07506836 -12.5078125 0.08789062 C-7.81978365 0.11042923 -4.57958332 -1.08463815 0 0 Z " fill="#130D0A" transform="translate(333,348)"/>
<path d="M0 0 C1.32 1.32 2.64 2.64 4 4 C2.7934375 4.8971875 2.7934375 4.8971875 1.5625 5.8125 C-1.22327984 7.80947276 -1.22327984 7.80947276 -2 11 C0.475 11.99 0.475 11.99 3 13 C3 13.66 3 14.32 3 15 C-2.56890517 14.52013969 -7.67067568 13.70084819 -13 12 C-13 8.89448334 -12.4606285 7.64738916 -11 5 C-11 5.66 -11 6.32 -11 7 C-8.69 7 -6.38 7 -4 7 C-2.68 4.69 -1.36 2.38 0 0 Z " fill="#130D0A" transform="translate(286,315)"/>
<path d="M0 0 C2.3431213 0.25561323 4.67843403 0.59270772 7 1 C7.33 1.66 7.66 2.32 8 3 C8.99 3.33 9.98 3.66 11 4 C11 4.66 11 5.32 11 6 C11.66 6 12.32 6 13 6 C13 8.97 13 11.94 13 15 C12.34 15 11.68 15 11 15 C10.9175 15.556875 10.835 16.11375 10.75 16.6875 C9.76104459 19.73677919 8.15242534 21.65189963 6 24 C5.34 24 4.68 24 4 24 C3.690625 24.639375 3.38125 25.27875 3.0625 25.9375 C2 28 2 28 1 29 C-0.99958364 29.04080783 -3.00045254 29.04254356 -5 29 C-2.66785852 27.79371992 -0.50357861 26.8345262 2 26 C2.0825 25.21625 2.165 24.4325 2.25 23.625 C2.4975 22.75875 2.745 21.8925 3 21 C4.32467746 20.3162955 5.65863633 19.65035814 7 19 C8.28254644 16.46229997 8.28254644 16.46229997 9 14 C9.99 14 10.98 14 12 14 C11.04830876 10.77300097 10.39985907 9.2844899 7.6171875 7.3046875 C6.25980469 6.59699219 6.25980469 6.59699219 4.875 5.875 C2.1171875 4.4296875 2.1171875 4.4296875 0 3 C0 2.01 0 1.02 0 0 Z " fill="#061327" transform="translate(214,434)"/>
<path d="M0 0 C-1 2 -1 2 -4.4375 3.625 C-12.04699243 7.29996134 -18.42076171 12.85031116 -23.6953125 19.40625 C-25.62869226 21.76798336 -27.84333089 23.84333089 -30 26 C-31.02813611 27.31175986 -32.04084432 28.6369893 -33 30 C-33.66 29.67 -34.32 29.34 -35 29 C-33.1597237 26.44801713 -31.30031767 23.9105635 -29.4375 21.375 C-28.92380859 20.66214844 -28.41011719 19.94929688 -27.88085938 19.21484375 C-24.3656197 14.45507823 -20.66124985 10.63653393 -16 7 C-15.12214844 6.30132812 -14.24429688 5.60265625 -13.33984375 4.8828125 C-12.54707031 4.30273438 -11.75429687 3.72265625 -10.9375 3.125 C-10.14214844 2.52945312 -9.34679687 1.93390625 -8.52734375 1.3203125 C-5.49257942 -0.26508216 -3.37705128 -0.24506903 0 0 Z " fill="#112432" transform="translate(152,470)"/>
<path d="M0 0 C7.23678183 -0.96490424 11.93464087 2.35900843 18 6 C19.39416465 6.79460162 20.78970972 7.58679372 22.1875 8.375 C23.115625 8.91125 24.04375 9.4475 25 10 C24.67 11.32 24.34 12.64 24 14 C24.66 14.33 25.32 14.66 26 15 C25.67 16.65 25.34 18.3 25 20 C24.67 20 24.34 20 24 20 C23.731875 19.071875 23.46375 18.14375 23.1875 17.1875 C22.06289965 14.1688359 21.29293427 13.0844857 19 11 C19 10.34 19 9.68 19 9 C16.03 8.34 13.06 7.68 10 7 C10 5.68 10 4.36 10 3 C8.906875 3.061875 7.81375 3.12375 6.6875 3.1875 C3 3 3 3 1.0625 1.5 C0.5365625 0.7575 0.5365625 0.7575 0 0 Z " fill="#201928" transform="translate(208,397)"/>
<path d="M0 0 C1.32554118 3.97662354 0.34765994 6.09887911 -1 10 C-3 12 -3 12 -4.9453125 12.1953125 C-6.96354167 12.13020833 -8.98177083 12.06510417 -11 12 C-10.67567593 8.93617261 -10.01098513 8.01029035 -7.71484375 5.859375 C-6.79832031 5.16328125 -5.88179688 4.4671875 -4.9375 3.75 C-4.01839844 3.04359375 -3.09929687 2.3371875 -2.15234375 1.609375 C-1.44207031 1.07828125 -0.73179687 0.5471875 0 0 Z " fill="#392220" transform="translate(268,308)"/>
<path d="M0 0 C0.33 0.99 0.66 1.98 1 3 C1.99 2.67 2.98 2.34 4 2 C5.89470816 1.9314505 7.7916834 1.91519628 9.6875 1.9375 C10.68136719 1.94652344 11.67523438 1.95554687 12.69921875 1.96484375 C13.83810547 1.98224609 13.83810547 1.98224609 15 2 C15 2.99 15 3.98 15 5 C14 6 14 6 11.85546875 6.1328125 C10.97503906 6.13023437 10.09460938 6.12765625 9.1875 6.125 C8.31480469 6.12757813 7.44210937 6.13015625 6.54296875 6.1328125 C4.21345785 6.01114834 2.23061985 5.65514709 0 5 C-0.33 5.99 -0.66 6.98 -1 8 C-1.66 8 -2.32 8 -3 8 C-2.25 2.25 -2.25 2.25 0 0 Z " fill="#9C8684" transform="translate(310,342)"/>
<path d="M0 0 C0.15855469 0.60585938 0.31710938 1.21171875 0.48046875 1.8359375 C2.65224956 9.63515034 5.65427378 16.82194942 10.375 23.4375 C11.179375 24.7059375 11.179375 24.7059375 12 26 C11.67 26.99 11.34 27.98 11 29 C0 12.19101124 0 12.19101124 0 8 C-0.66 8 -1.32 8 -2 8 C-2.33 8.99 -2.66 9.98 -3 11 C-3.22036864 7.14354879 -2.60355101 4.50776784 -1 1 C-2.98 1.33 -4.96 1.66 -7 2 C-4 0 -4 0 0 0 Z " fill="#9D8480" transform="translate(221,358)"/>
<path d="M0 0 C3.85695474 1.63920576 6.65774244 3.47164549 9.75 6.3125 C13.54686214 9.7855987 17.59480849 12.26521852 22.09375 14.73828125 C22.7228125 15.15464844 23.351875 15.57101562 24 16 C24 16.66 24 17.32 24 18 C20.10635283 17.42316338 17.98810959 15.45178223 15 13 C14.01 12.67 13.02 12.34 12 12 C12 11.34 12 10.68 12 10 C11.29875 9.938125 10.5975 9.87625 9.875 9.8125 C5.99783115 8.71677837 3.86074042 6.79572359 1 4 C0.125 1.6875 0.125 1.6875 0 0 Z " fill="#87716D" transform="translate(246,400)"/>
<path d="M0 0 C0.33 0 0.66 0 1 0 C1.042721 1.66611905 1.04063832 3.33382885 1 5 C0.67 5.33 0.34 5.66 0 6 C-0.02627247 7.5664024 0.01207549 9.133989 0.078125 10.69921875 C0.11679687 12.14264648 0.11679687 12.14264648 0.15625 13.61523438 C0.21817107 15.64443944 0.29599642 17.67322886 0.390625 19.70117188 C0.5675576 28.01147494 0.5675576 28.01147494 -2.390625 31.70703125 C-5 34 -5 34 -7 34 C-7 33.34 -7 32.68 -7 32 C-6.34128906 31.51144531 -5.68257813 31.02289063 -5.00390625 30.51953125 C-1.85694801 26.56282937 -2.69201485 22.57366332 -2.9375 17.6875 C-3.25383566 10.91225115 -3.22142167 6.06631354 0 0 Z " fill="#6A5351" transform="translate(307,341)"/>
<path d="M0 0 C2.875 0.25 2.875 0.25 6 1 C7.4375 2.875 7.4375 2.875 8 5 C7.67 5.99 7.34 6.98 7 8 C6.67 7.34 6.34 6.68 6 6 C5.01 6 4.02 6 3 6 C-1.08984255 10.69128998 -1.72835443 14.88797464 -2 21 C-2.33 21 -2.66 21 -3 21 C-3.20597113 15.20992273 -3.16062028 10.46509835 -1 5 C-0.63893903 3.33911955 -0.29537827 1.67381019 0 0 Z " fill="#B19A96" transform="translate(210,311)"/>
<path d="M0 0 C0.66 0 1.32 0 2 0 C2 8.91 2 17.82 2 27 C1.67 27 1.34 27 1 27 C0.67 20.73 0.34 14.46 0 8 C-0.99 8.99 -1.98 9.98 -3 11 C-3.66 10.34 -4.32 9.68 -5 9 C-4.3566152 7.686298 -3.71021785 6.37407102 -3.0625 5.0625 C-2.70285156 4.33160156 -2.34320313 3.60070312 -1.97265625 2.84765625 C-1 1 -1 1 0 0 Z " fill="#866D6C" transform="translate(341,306)"/>
<path d="M0 0 C6.2484067 0.69345635 12.34403221 1.79641069 18.5 3.0625 C19.4178125 3.24876953 20.335625 3.43503906 21.28125 3.62695312 C23.52138854 4.08198127 25.76093726 4.53971267 28 5 C28 5.66 28 6.32 28 7 C4.74193548 4.34677419 4.74193548 4.34677419 0 0 Z " fill="#775E5C" transform="translate(272,386)"/>
<path d="M0 0 C1.70736328 0.00966797 1.70736328 0.00966797 3.44921875 0.01953125 C6.3125 0.1875 6.3125 0.1875 8.3125 1.1875 C8.3125 1.8475 8.3125 2.5075 8.3125 3.1875 C1.7125 3.5175 -4.8875 3.8475 -11.6875 4.1875 C-11.6875 3.5275 -11.6875 2.8675 -11.6875 2.1875 C-7.65873809 0.27516086 -4.4401811 -0.05569212 0 0 Z " fill="#0A0F20" transform="translate(177.6875,423.8125)"/>
<path d="M0 0 C0.33 0 0.66 0 1 0 C1 5.28 1 10.56 1 16 C0.67 16 0.34 16 0 16 C-0.33 14.35 -0.66 12.7 -1 11 C-2.65 11.66 -4.3 12.32 -6 13 C-3.04125904 3.17949809 -3.04125904 3.17949809 0 0 Z " fill="#85706F" transform="translate(321,294)"/>
<path d="M0 0 C0.33 1.32 0.66 2.64 1 4 C0.34 4 -0.32 4 -1 4 C-1.103125 5.093125 -1.20625 6.18625 -1.3125 7.3125 C-2.18116762 11.97171726 -2.18116762 11.97171726 -5 14 C-7.4519043 14.34057617 -7.4519043 14.34057617 -10.32421875 14.29296875 C-11.35224609 14.28330078 -12.38027344 14.27363281 -13.43945312 14.26367188 C-15.04723633 14.2259668 -15.04723633 14.2259668 -16.6875 14.1875 C-17.77095703 14.17396484 -18.85441406 14.16042969 -19.97070312 14.14648438 C-22.64763405 14.11110643 -25.32356838 14.06174189 -28 14 C-28 13.67 -28 13.34 -28 13 C-20.74 12.67 -13.48 12.34 -6 12 C-5.01 9.69 -4.02 7.38 -3 5 C-2.67 4.34 -2.34 3.68 -2 3 C-2.66 2.67 -3.32 2.34 -4 2 C-2.68 2 -1.36 2 0 2 C0 1.34 0 0.68 0 0 Z " fill="#938C90" transform="translate(211,381)"/>
<path d="M0 0 C1.24007812 0.02835937 2.48015625 0.05671875 3.7578125 0.0859375 C4.41531494 0.09882813 5.07281738 0.11171875 5.75024414 0.125 C12.20947989 0.32338804 18.53736716 1.26247227 24.8828125 2.4609375 C24.8828125 2.7909375 24.8828125 3.1209375 24.8828125 3.4609375 C22.78004127 3.68291335 20.67548948 3.88807387 18.5703125 4.0859375 C17.39855469 4.20195312 16.22679687 4.31796875 15.01953125 4.4375 C11.8828125 4.4609375 11.8828125 4.4609375 8.8828125 2.4609375 C6.27567686 2.1434381 6.27567686 2.1434381 3.4453125 2.2109375 C2.49785156 2.20578125 1.55039063 2.200625 0.57421875 2.1953125 C-2.14271203 2.46345661 -3.79184333 3.07562608 -6.1171875 4.4609375 C-4.39392286 1.27855827 -3.65810433 0.54092269 0 0 Z " fill="#705958" transform="translate(248.1171875,323.5390625)"/>
<path d="M0 0 C4.67948398 -0.27771418 7.67583336 0.45162603 11.875 2.5 C13.32519531 3.19609375 13.32519531 3.19609375 14.8046875 3.90625 C15.52914062 4.2671875 16.25359375 4.628125 17 5 C16.34 6.32 15.68 7.64 15 9 C10.05 6.36 5.1 3.72 0 1 C0 0.67 0 0.34 0 0 Z " fill="#0C182C" transform="translate(198,428)"/>
<path d="M0 0 C1.48306641 0.02126953 1.48306641 0.02126953 2.99609375 0.04296875 C3.98738281 0.04941406 4.97867188 0.05585938 6 0.0625 C8.43359375 0.23046875 8.43359375 0.23046875 9.43359375 1.23046875 C9.50564886 2.91655841 9.51745443 4.60547534 9.49609375 6.29296875 C9.48707031 7.21207031 9.47804688 8.13117188 9.46875 9.078125 C9.45714844 9.78839844 9.44554687 10.49867188 9.43359375 11.23046875 C8.77359375 11.23046875 8.11359375 11.23046875 7.43359375 11.23046875 C7.76359375 9.25046875 8.09359375 7.27046875 8.43359375 5.23046875 C7.77359375 5.23046875 7.11359375 5.23046875 6.43359375 5.23046875 C6.10359375 4.24046875 5.77359375 3.25046875 5.43359375 2.23046875 C4.34046875 2.41609375 3.24734375 2.60171875 2.12109375 2.79296875 C-1.56640625 3.23046875 -1.56640625 3.23046875 -4.56640625 2.23046875 C-2.56640625 0.23046875 -2.56640625 0.23046875 0 0 Z " fill="#AF9495" transform="translate(248.56640625,324.76953125)"/>
<path d="M0 0 C0.309375 0.639375 0.61875 1.27875 0.9375 1.9375 C1.8345163 3.93610821 1.8345163 3.93610821 3 5 C3.99 4.01 4.98 3.02 6 2 C5.55491959 7.04424468 3.39019075 9.44443409 0 13 C-0.66 13 -1.32 13 -2 13 C-1.85915204 11.20793453 -1.71216299 9.41635083 -1.5625 7.625 C-1.48128906 6.62726563 -1.40007812 5.62953125 -1.31640625 4.6015625 C-1 2 -1 2 0 0 Z " fill="#19090B" transform="translate(321,310)"/>
<path d="M0 0 C0.33 1.32 0.66 2.64 1 4 C0.34 4 -0.32 4 -1 4 C-1.0825 4.556875 -1.165 5.11375 -1.25 5.6875 C-2.23895541 8.73677919 -3.84757466 10.65189963 -6 13 C-6.66 13 -7.32 13 -8 13 C-8.309375 13.639375 -8.61875 14.27875 -8.9375 14.9375 C-10 17 -10 17 -11 18 C-12.99958364 18.04080783 -15.00045254 18.04254356 -17 18 C-14.66785852 16.79371992 -12.50357861 15.8345262 -10 15 C-9.9175 14.21625 -9.835 13.4325 -9.75 12.625 C-9.5025 11.75875 -9.255 10.8925 -9 10 C-7.67532254 9.3162955 -6.34136367 8.65035814 -5 8 C-3.71745356 5.46229997 -3.71745356 5.46229997 -3 3 C-2.01 3 -1.02 3 0 3 C0 2.01 0 1.02 0 0 Z " fill="#2A3A48" transform="translate(226,445)"/>
<path d="M0 0 C0.99 0 1.98 0 3 0 C4.25406138 5.78645644 4.11186913 11.48868116 4.0625 17.375 C4.05798828 18.39722656 4.05347656 19.41945313 4.04882812 20.47265625 C4.037103 22.98183194 4.02069176 25.4908849 4 28 C3.67 28 3.34 28 3 28 C2.91697632 27.04746338 2.91697632 27.04746338 2.83227539 26.07568359 C2.57809631 23.17523849 2.32032933 20.27512281 2.0625 17.375 C1.97548828 16.37597656 1.88847656 15.37695312 1.79882812 14.34765625 C1.36767947 9.52517874 0.90214786 4.76269053 0 0 Z " fill="#B7A09B" transform="translate(260,344)"/>
<path d="M0 0 C0.66 0.33 1.32 0.66 2 1 C1.67 2.32 1.34 3.64 1 5 C-3.29 4.67 -7.58 4.34 -12 4 C-6.82849266 -0.13720587 -6.12696911 -0.57801595 0 0 Z " fill="#010100" transform="translate(271,338)"/>
<path d="M0 0 C2.97 0.495 2.97 0.495 6 1 C6.33 2.98 6.66 4.96 7 7 C1.06 7 -4.88 7 -11 7 C-11 6.67 -11 6.34 -11 6 C-4.565 5.505 -4.565 5.505 2 5 C2.33 4.01 2.66 3.02 3 2 C2.01 1.67 1.02 1.34 0 1 C0 0.67 0 0.34 0 0 Z " fill="#332523" transform="translate(270,337)"/>
<path d="M0 0 C1.32 0.33 2.64 0.66 4 1 C3.34 1 2.68 1 2 1 C1.75507813 1.56203125 1.51015625 2.1240625 1.2578125 2.703125 C-0.22926539 5.41865854 -2.04062782 7.46391438 -4.125 9.75 C-5.21167969 10.94882812 -5.21167969 10.94882812 -6.3203125 12.171875 C-6.87460938 12.77515625 -7.42890625 13.3784375 -8 14 C-8.625 12.125 -8.625 12.125 -9 10 C-8.34 9.34 -7.68 8.68 -7 8 C-6.525625 7.29875 -6.05125 6.5975 -5.5625 5.875 C-5.046875 5.25625 -4.53125 4.6375 -4 4 C-3.01 4 -2.02 4 -1 4 C-0.67 2.68 -0.34 1.36 0 0 Z " fill="#CCCED1" transform="translate(187,248)"/>
<path d="M0 0 C0 3 0 3 -1 6 C-1 6.99 -1 7.98 -1 9 C-1.99 9.495 -1.99 9.495 -3 10 C-3.33 16.27 -3.66 22.54 -4 29 C-4.33 29 -4.66 29 -5 29 C-5.05849554 25.79174438 -5.09376162 22.58362767 -5.125 19.375 C-5.15013672 18.01955078 -5.15013672 18.01955078 -5.17578125 16.63671875 C-5.25631612 5.60344168 -5.25631612 5.60344168 -1.375 1.125 C-0.92125 0.75375 -0.4675 0.3825 0 0 Z " fill="#98999A" transform="translate(349,345)"/>
<path d="M0 0 C1.65 0 3.3 0 5 0 C5.33 1.32 5.66 2.64 6 4 C9.465 3.505 9.465 3.505 13 3 C10.63310671 5.19219402 9.48272731 5.9871902 6.203125 6.07421875 C5.22859375 5.94660156 4.2540625 5.81898438 3.25 5.6875 C2.26515625 5.56761719 1.2803125 5.44773437 0.265625 5.32421875 C-0.85585937 5.16373047 -0.85585937 5.16373047 -2 5 C-1.34 3.35 -0.68 1.7 0 0 Z " fill="#A18D8A" transform="translate(231,325)"/>
<path d="M0 0 C3.16115776 1.36983503 3.9927092 1.9890638 6 5 C2.3321148 6.96189209 -0.87248551 8.39301257 -5 9 C-5 8.01 -5 7.02 -5 6 C-3.515 6.99 -3.515 6.99 -2 8 C-1.34 5.36 -0.68 2.72 0 0 Z " fill="#34282A" transform="translate(265,422)"/>
<path d="M0 0 C0.33 0 0.66 0 1 0 C1.0270043 1.45823212 1.04639787 2.91660675 1.0625 4.375 C1.07410156 5.18710937 1.08570313 5.99921875 1.09765625 6.8359375 C1 9 1 9 0 11 C0.66 11.33 1.32 11.66 2 12 C1.34 12 0.68 12 0 12 C0 12.66 0 13.32 0 14 C-0.99 14 -1.98 14 -3 14 C-3 13.34 -3 12.68 -3 12 C-3.66 11.67 -4.32 11.34 -5 11 C-4.72285156 10.45730469 -4.44570312 9.91460937 -4.16015625 9.35546875 C-3.79792969 8.64003906 -3.43570313 7.92460937 -3.0625 7.1875 C-2.52302734 6.12595703 -2.52302734 6.12595703 -1.97265625 5.04296875 C-0.89269484 2.88189715 -0.89269484 2.88189715 0 0 Z " fill="#32384B" transform="translate(173,409)"/>
<path d="M0 0 C0.66 0.33 1.32 0.66 2 1 C2 6.28 2 11.56 2 17 C0.35 16.67 -1.3 16.34 -3 16 C-2.34 15.34 -1.68 14.68 -1 14 C-0.69940057 11.63490639 -0.50484988 9.25558119 -0.375 6.875 C-0.30023438 5.59367187 -0.22546875 4.31234375 -0.1484375 2.9921875 C-0.09945312 2.00476563 -0.05046875 1.01734375 0 0 Z " fill="#A9918F" transform="translate(236,392)"/>
<path d="M0 0 C0 4.66611955 -1.21484544 7.17458111 -4.4375 10.5625 C-5.283125 11.366875 -6.12875 12.17125 -7 13 C-8.02813611 14.31175986 -9.04084432 15.6369893 -10 17 C-10.66 16.67 -11.32 16.34 -12 16 C-8.04 10.72 -4.08 5.44 0 0 Z " fill="#1E3141" transform="translate(129,483)"/>
<path d="M0 0 C0 0.33 0 0.66 0 1 C1.65 1.33 3.3 1.66 5 2 C5 2.33 5 2.66 5 3 C3.93072266 3.09087891 3.93072266 3.09087891 2.83984375 3.18359375 C-2.46960288 3.64808101 -7.733409 4.18075251 -13 5 C-13 4.01 -13 3.02 -13 2 C-4.57142857 -0.28571429 -4.57142857 -0.28571429 0 0 Z " fill="#0F212F" transform="translate(183,457)"/>
<path d="M0 0 C0.66 0.33 1.32 0.66 2 1 C2.33333333 2.66666667 2.66666667 4.33333333 3 6 C3.66 6.33 4.32 6.66 5 7 C3.71937515 8.7074998 2.38232443 10.37373596 1 12 C0.34 12 -0.32 12 -1 12 C-0.67 8.04 -0.34 4.08 0 0 Z " fill="#220F0F" transform="translate(298,322)"/>
<path d="M0 0 C1.32 0.33 2.64 0.66 4 1 C3.67 1.99 3.34 2.98 3 4 C2.34 3.67 1.68 3.34 1 3 C0.01 5.97 -0.98 8.94 -2 12 C-2.66 12 -3.32 12 -4 12 C-4.50423019 6.70558305 -3.18923033 4.18586481 0 0 Z " fill="#816B67" transform="translate(213,316)"/>
<path d="M0 0 C3.65114875 -0.33964174 5.55333235 -0.26393998 8.75 1.625 C11.29483345 4.31121308 12.11040186 6.44160742 13 10 C12.34 10 11.68 10 11 10 C10.34 8.02 9.68 6.04 9 4 C5.7 3.34 2.4 2.68 -1 2 C-0.67 1.34 -0.34 0.68 0 0 Z " fill="#A6908C" transform="translate(210,302)"/>
<path d="M0 0 C0.33 0 0.66 0 1 0 C1.14285714 8.57142857 1.14285714 8.57142857 0 12 C1.32 11.67 2.64 11.34 4 11 C3.01 12.485 3.01 12.485 2 14 C1.01 13.67 0.02 13.34 -1 13 C-1 12.01 -1 11.02 -1 10 C-1.99 9.67 -2.98 9.34 -4 9 C-2.68 6.03 -1.36 3.06 0 0 Z " fill="#886F73" transform="translate(328,310)"/>
<path d="M0 0 C1.32 0 2.64 0 4 0 C4 0.66 4 1.32 4 2 C9.94 1.505 9.94 1.505 16 1 C15.67 1.66 15.34 2.32 15 3 C10.47258828 4.50913724 5.93573202 4.77429281 1.5 3 C1.005 2.67 0.51 2.34 0 2 C0 1.34 0 0.68 0 0 Z " fill="#938889" transform="translate(270,416)"/>
<path d="M0 0 C0 3 0 3 -1 6 C-1.66 6 -2.32 6 -3 6 C-3.33 6.99 -3.66 7.98 -4 9 C-4.66 9 -5.32 9 -6 9 C-6.33 9.99 -6.66 10.98 -7 12 C-7.66 11.67 -8.32 11.34 -9 11 C-8.46324097 7.14896699 -6.88399077 5.68202413 -3.9375 3.25 C-3.20402344 2.63640625 -2.47054688 2.0228125 -1.71484375 1.390625 C-1.14894531 0.93171875 -0.58304687 0.4728125 0 0 Z " fill="#8D7B79" transform="translate(293,315)"/>
<path d="M0 0 C2.39073445 3.82517513 2.55966552 7.59665524 3 12 C1.02 12 -0.96 12 -3 12 C-2.01 11.01 -1.02 10.02 0 9 C-0.33 8.67 -0.66 8.34 -1 8 C-1.23529412 2.47058824 -1.23529412 2.47058824 0 0 Z " fill="#19171A" transform="translate(381,298)"/>
<path d="M0 0 C0.66 0 1.32 0 2 0 C3.85999285 1.9675587 5.53390198 4.05555598 7.24609375 6.15234375 C8.96005081 8.24798169 8.96005081 8.24798169 12 9 C12.33 10.98 12.66 12.96 13 15 C11.85677009 13.85677009 10.71417763 12.71289785 9.57421875 11.56640625 C8.44112727 10.43893805 7.29642928 9.32309091 6.14453125 8.21484375 C5.51933594 7.60769531 4.89414062 7.00054687 4.25 6.375 C3.65703125 5.80523437 3.0640625 5.23546875 2.453125 4.6484375 C1 3 1 3 0 0 Z " fill="#9FA2A3" transform="translate(275,431)"/>
<path d="M0 0 C1.32 1.32 2.64 2.64 4 4 C3.21625 4.598125 2.4325 5.19625 1.625 5.8125 C-1.14574323 7.91085249 -1.14574323 7.91085249 -3 11 C-3.75 9.4375 -3.75 9.4375 -4 7 C-2.86915563 4.49713591 -1.47860484 2.32992278 0 0 Z " fill="#1B0F0D" transform="translate(286,315)"/>
<path d="M0 0 C0.66 0 1.32 0 2 0 C1.54917531 1.46067199 1.08906463 2.91848032 0.625 4.375 C0.36976563 5.18710937 0.11453125 5.99921875 -0.1484375 6.8359375 C-1 9 -1 9 -3 11 C-3.33 10.34 -3.66 9.68 -4 9 C-4.99 9.495 -4.99 9.495 -6 10 C-4.34643078 6.41726669 -2.32019297 3.19026533 0 0 Z " fill="#81656C" transform="translate(290,302)"/>
<path d="M0 0 C1.98 0 3.96 0 6 0 C6 0.66 6 1.32 6 2 C5.01 2.495 5.01 2.495 4 3 C3.31270746 5.11846285 3.31270746 5.11846285 2.875 7.5625 C2.70742188 8.38878906 2.53984375 9.21507812 2.3671875 10.06640625 C2.24601562 10.70449219 2.12484375 11.34257812 2 12 C-0.1642235 8.75366476 -0.37569856 7.75698557 0 4 C0.66 3.01 1.32 2.02 2 1 C1.34 0.67 0.68 0.34 0 0 Z " fill="#756463" transform="translate(340,337)"/>
<path d="M0 0 C0 0.66 0 1.32 0 2 C0.99 2.33 1.98 2.66 3 3 C2.67 3.99 2.34 4.98 2 6 C1.67 5.34 1.34 4.68 1 4 C0.175 4.165 -0.65 4.33 -1.5 4.5 C-5.41272317 5.05896045 -9.05183173 5.06807187 -13 5 C-13 4.67 -13 4.34 -13 4 C-11.39125 3.566875 -11.39125 3.566875 -9.75 3.125 C-6.54214448 2.16264334 -3.3153523 0 0 0 Z " fill="#846E6C" transform="translate(331,344)"/>
<path d="M0 0 C-0.37047118 2.74148672 -0.68587944 4.58593199 -2.375 6.8125 C-4 8 -4 8 -7 8 C-6.44414399 4.1090079 -4.34122117 0 0 0 Z " fill="#91726D" transform="translate(267,310)"/>
<path d="M0 0 C1.09651823 3.41139003 0.94215473 6.20655581 0.5625 9.75 C0.46066406 10.73484375 0.35882813 11.7196875 0.25390625 12.734375 C0.12822266 13.85585938 0.12822266 13.85585938 0 15 C-0.33 15 -0.66 15 -1 15 C-1.12375 14.030625 -1.2475 13.06125 -1.375 12.0625 C-1.58125 11.051875 -1.7875 10.04125 -2 9 C-2.66 8.67 -3.32 8.34 -4 8 C-3.40072174 4.64404172 -2.15377564 2.62198774 0 0 Z " fill="#886A6C" transform="translate(299,307)"/>
<path d="M0 0 C0.33 3.3 0.66 6.6 1 10 C0.67 9.34 0.34 8.68 0 8 C-0.66 8 -1.32 8 -2 8 C-2.33 8.99 -2.66 9.98 -3 11 C-3.22036864 7.14354879 -2.60355101 4.50776784 -1 1 C-2.98 1.33 -4.96 1.66 -7 2 C-4 0 -4 0 0 0 Z " fill="#82736B" transform="translate(221,358)"/>
<path d="M0 0 C0.33 0 0.66 0 1 0 C1.042721 1.66611905 1.04063832 3.33382885 1 5 C0.67 5.33 0.34 5.66 0 6 C-0.28101946 8.31952569 -0.44782625 10.63885514 -0.62109375 12.96875 C-0.74613281 13.6390625 -0.87117188 14.309375 -1 15 C-1.99 15.495 -1.99 15.495 -3 16 C-3.37952295 9.80112515 -2.8352113 5.5522888 0 0 Z " fill="#725C5A" transform="translate(307,341)"/>
<path d="M0 0 C0.66 0 1.32 0 2 0 C2 0.99 2 1.98 2 3 C3.65 3.33 5.3 3.66 7 4 C7 5.98 7 7.96 7 10 C4.06799526 7.14723863 1.35684596 4.34920216 -1 1 C-0.67 0.67 -0.34 0.34 0 0 Z " fill="#B6BABA" transform="translate(289,445)"/>
<path d="M0 0 C1.24546405 2.49092811 0.7767578 3.41080733 0 6 C1.65 6 3.3 6 5 6 C4.34 6.66 3.68 7.32 3 8 C2.01 8 1.02 8 0 8 C0 8.66 0 9.32 0 10 C-1.32 9.67 -2.64 9.34 -4 9 C-2.68 6.03 -1.36 3.06 0 0 Z " fill="#555F67" transform="translate(166,422)"/>
<path d="M0 0 C0.99 0.33 1.98 0.66 3 1 C2.69381595 4.67420866 2.24228216 5.78135513 -0.5625 8.3125 C-1.366875 8.869375 -2.17125 9.42625 -3 10 C-2.49287967 6.28111761 -1.88391785 3.26545761 0 0 Z " fill="#AD9692" transform="translate(216,326)"/>
<path d="M0 0 C2 1 2 1 2.8515625 2.85546875 C4.3516571 7.37848126 5.37173481 11.16744753 5 16 C4 14 4 14 3 12 C2.195625 10.576875 2.195625 10.576875 1.375 9.125 C-0.09144223 5.79217675 -0.25684186 3.59578599 0 0 Z " fill="#2F3F51" transform="translate(205,480)"/>
<path d="M0 0 C2.31 0 4.62 0 7 0 C7 1.32 7 2.64 7 4 C5.02 4 3.04 4 1 4 C0.67 2.68 0.34 1.36 0 0 Z " fill="#5F3F41" transform="translate(283,399)"/>
<path d="M0 0 C3.3 0 6.6 0 10 0 C10.33 0.99 10.66 1.98 11 3 C3.57142857 3.14285714 3.57142857 3.14285714 0 2 C0 1.34 0 0.68 0 0 Z " fill="#E8ECEF" transform="translate(72,1)"/>
<path d="M0 0 C2.97 0 5.94 0 9 0 C8.67 0.66 8.34 1.32 8 2 C8.33 2.99 8.66 3.98 9 5 C6.03 4.01 3.06 3.02 0 2 C0 1.34 0 0.68 0 0 Z " fill="#1E100D" transform="translate(248,337)"/>
<path d="M0 0 C0.33 0 0.66 0 1 0 C1 5.28 1 10.56 1 16 C1.66 16 2.32 16 3 16 C2.67 17.32 2.34 18.64 2 20 C1.34 20 0.68 20 0 20 C0 13.4 0 6.8 0 0 Z " fill="#493231" transform="translate(225,316)"/>
<path d="M0 0 C0.99 0.33 1.98 0.66 3 1 C3.1953125 7.0546875 3.1953125 7.0546875 3 9 C2.34 9.66 1.68 10.32 1 11 C-0.28317892 7.15046324 -0.06643637 4.05261865 0 0 Z " fill="#0A0A0C" transform="translate(165,308)"/>
<path d="M0 0 C0.99 0 1.98 0 3 0 C2.54738642 1.43931117 2.08767021 2.87638999 1.625 4.3125 C1.36976563 5.11300781 1.11453125 5.91351563 0.8515625 6.73828125 C0 9 0 9 -2 12 C-2.25 5.375 -2.25 5.375 0 2 C0 1.34 0 0.68 0 0 Z " fill="#B0B8C0" transform="translate(174,400)"/>
<path d="M0 0 C2 3 2 3 2 5 C2.66 5 3.32 5 4 5 C4 5.66 4 6.32 4 7 C1.69 7 -0.62 7 -3 7 C-1.125 2.25 -1.125 2.25 0 0 Z " fill="#150D0D" transform="translate(318,389)"/>
<path d="M0 0 C0.12375 0.804375 0.2475 1.60875 0.375 2.4375 C0.684375 3.7059375 0.684375 3.7059375 1 5 C1.66 5.33 2.32 5.66 3 6 C2.34 7.65 1.68 9.3 1 11 C0.67 11 0.34 11 0 11 C-0.433125 9.576875 -0.433125 9.576875 -0.875 8.125 C-1.76825109 4.94788422 -1.76825109 4.94788422 -4 3 C-1.125 0 -1.125 0 0 0 Z " fill="#BCB8B5" transform="translate(206,378)"/>
<path d="M0 0 C0.928125 0.4640625 0.928125 0.4640625 1.875 0.9375 C6.18802294 2.4039278 10.4759996 2.66619026 15 3 C15 3.33 15 3.66 15 4 C10.05 4 5.1 4 0 4 C0 2.68 0 1.36 0 0 Z " fill="#A1898A" transform="translate(258,332)"/>
<path d="M0 0 C0.99 0 1.98 0 3 0 C3 2.31 3 4.62 3 7 C1.35 7 -0.3 7 -2 7 C-1.34 4.69 -0.68 2.38 0 0 Z " fill="#3D292B" transform="translate(233,318)"/>
<path d="M0 0 C-0.66 1.65 -1.32 3.3 -2 5 C-3.65 5 -5.3 5 -7 5 C-7 4.01 -7 3.02 -7 2 C-4 0 -4 0 0 0 Z " fill="#A97B84" transform="translate(283,317)"/>
<path d="M0 0 C1.27208622 0.62244599 2.54261882 1.24806767 3.8125 1.875 C4.52019531 2.22304688 5.22789062 2.57109375 5.95703125 2.9296875 C8 4 8 4 11 6 C11 6.66 11 7.32 11 8 C7.90694578 7.39096941 5.80360238 6.40131197 3.25 4.5625 C2.63640625 4.13066406 2.0228125 3.69882812 1.390625 3.25390625 C0.70226562 2.63322266 0.70226562 2.63322266 0 2 C0 1.34 0 0.68 0 0 Z " fill="#695252" transform="translate(259,410)"/>
<path d="M0 0 C2.31406112 3.47109168 2.08619615 4.94878113 2 9 C2.33 9.66 2.66 10.32 3 11 C1.68 11.33 0.36 11.66 -1 12 C-0.67 8.04 -0.34 4.08 0 0 Z " fill="#2B171A" transform="translate(329,310)"/>
<path d="M0 0 C2.75 -0.25 2.75 -0.25 6 0 C8.375 2 8.375 2 10 4 C6.28111761 3.49287967 3.26545761 2.88391785 0 1 C0 0.67 0 0.34 0 0 Z " fill="#030D1E" transform="translate(198,428)"/>
<path d="M0 0 C3.375 -0.125 3.375 -0.125 7 0 C7.66 0.66 8.32 1.32 9 2 C7.02 2 5.04 2 3 2 C2.67 2.99 2.34 3.98 2 5 C1.34 4.34 0.68 3.68 0 3 C0 2.01 0 1.02 0 0 Z " fill="#1F150F" transform="translate(311,348)"/>
<path d="M0 0 C0.33 0 0.66 0 1 0 C1.66 2.97 2.32 5.94 3 9 C1.02 9.99 1.02 9.99 -1 11 C-0.67 7.37 -0.34 3.74 0 0 Z " fill="#31181A" transform="translate(320,312)"/>
<path d="M0 0 C0.66 0 1.32 0 2 0 C2 0.66 2 1.32 2 2 C3.98 2 5.96 2 8 2 C8 2.33 8 2.66 8 3 C4.7 3.66 1.4 4.32 -2 5 C-1.34 3.35 -0.68 1.7 0 0 Z " fill="#1D1F2F" transform="translate(168,421)"/>
<path d="M0 0 C2.88437779 1.29299694 4.87219421 2.65941363 7 5 C5.0085944 5.38133299 3.00720923 5.71325582 1 6 C0 5 0 5 -0.0625 2.4375 C-0.041875 1.633125 -0.02125 0.82875 0 0 Z " fill="#BBB6B8" transform="translate(371,305)"/>
<path d="M0 0 C2.1875 0.3125 2.1875 0.3125 4 1 C1.03 3.475 1.03 3.475 -2 6 C-2.33 5.01 -2.66 4.02 -3 3 C-1.75 1.4375 -1.75 1.4375 0 0 Z " fill="#C6D1D9" transform="translate(134,453)"/>
<path d="M0 0 C0.66 0 1.32 0 2 0 C1.49701212 4.40114397 -0.08772731 6.71195019 -3 10 C-2.67 8.02 -2.34 6.04 -2 4 C-1.34 4 -0.68 4 0 4 C0 2.68 0 1.36 0 0 Z " fill="#ACB4B7" transform="translate(170,412)"/>
<path d="M0 0 C3 1 3 1 5 4 C5.66 4.33 6.32 4.66 7 5 C7 5.66 7 6.32 7 7 C5.35 7 3.7 7 2 7 C1.34 4.69 0.68 2.38 0 0 Z " fill="#171612" transform="translate(204,376)"/>
<path d="M0 0 C2 3 2 3 1.75 5.5625 C1 8 1 8 -1 10 C-0.67 6.7 -0.34 3.4 0 0 Z " fill="#0A0813" transform="translate(230,423)"/>
<path d="M0 0 C2.475 0.99 2.475 0.99 5 2 C5 2.66 5 3.32 5 4 C3.02 4 1.04 4 -1 4 C-0.67 2.68 -0.34 1.36 0 0 Z " fill="#220D0E" transform="translate(284,326)"/>
<path d="M0 0 C0.8125 1.6875 0.8125 1.6875 1 4 C-1.4375 6.75 -1.4375 6.75 -4 9 C-2.94124926 5.59687262 -1.99097846 2.98646769 0 0 Z " fill="#7C6767" transform="translate(320,295)"/>
<path d="M0 0 C0 3.20395416 -0.74335022 5.09399739 -2 8 C-2.99 6.68 -3.98 5.36 -5 4 C-3.35 2.68 -1.7 1.36 0 0 Z " fill="#1E1F20" transform="translate(164,282)"/>
</svg>
