<?xml version="1.0" encoding="UTF-8" standalone="no"?>
<!DOCTYPE svg PUBLIC "-//W3C//DTD SVG 1.1//EN" "http://www.w3.org/Graphics/SVG/1.1/DTD/svg11.dtd">
<svg width="100%" height="100%" viewBox="0 0 586 178" version="1.1" xmlns="http://www.w3.org/2000/svg" xmlns:xlink="http://www.w3.org/1999/xlink" xml:space="preserve" xmlns:serif="http://www.serif.com/" style="fill-rule:evenodd;clip-rule:evenodd;stroke-miterlimit:2;">
    <g transform="matrix(1,0,0,1,-822.054,-774.38)">
        <g transform="matrix(5.70707,0,0,5.70707,-4433.46,-4103.85)">
            <rect x="924.451" y="876.937" width="9" height="8.932" style="fill:rgb(83,0,76);fill-rule:nonzero;"/>
            <path d="M942.451,872.437L946.951,872.437L946.951,867.937L955.951,867.937L955.951,858.869L964.951,858.869L964.951,881.437L969.451,881.437L969.451,885.869L946.951,885.869L946.951,881.437L942.451,881.437L942.451,872.437ZM951.451,872.437L951.451,881.437L955.951,881.437L955.951,872.437L951.451,872.437ZM962.312,876.937" style="fill:rgb(83,0,76);fill-rule:nonzero;"/>
            <path d="M969.451,872.437L973.951,872.437L973.951,867.937L991.951,867.937L991.951,876.937L987.451,876.937L987.451,881.437L996.451,881.437L996.451,885.869L973.951,885.869L973.951,881.437L969.451,881.437L969.451,872.437ZM978.451,872.437L978.451,876.937L982.951,876.937L982.951,872.437L978.451,872.437Z" style="fill:rgb(83,0,76);fill-rule:nonzero;"/>
            <path d="M996.451,867.937L1005.45,867.937L1005.45,881.437L1009.95,881.437L1009.95,867.937L1023.45,867.937L1023.45,872.437L1018.95,872.437L1018.95,881.437L1014.45,881.437L1014.45,885.869L996.451,885.869L996.451,867.937Z" style="fill:rgb(83,0,76);fill-rule:nonzero;"/>
        </g>
        <g transform="matrix(5.70707,0,0,5.70707,-4443.46,-4116.85)">
            <rect x="924.451" y="876.937" width="9" height="8.932" style="fill:none;fill-rule:nonzero;stroke:rgb(255,178,248);stroke-width:1.63px;"/>
            <rect x="924.451" y="876.937" width="9" height="8.932" style="fill:url(#_Linear1);fill-rule:nonzero;"/>
            <path d="M942.451,872.437L946.951,872.437L946.951,867.937L955.951,867.937L955.951,858.869L964.951,858.869L964.951,881.437L969.451,881.437L969.451,885.869L946.951,885.869L946.951,881.437L942.451,881.437L942.451,872.437ZM951.451,872.437L951.451,881.437L955.951,881.437L955.951,872.437L951.451,872.437ZM962.312,876.937" style="fill:none;fill-rule:nonzero;stroke:rgb(255,178,248);stroke-width:1.63px;"/>
            <path d="M942.451,872.437L946.951,872.437L946.951,867.937L955.951,867.937L955.951,858.869L964.951,858.869L964.951,881.437L969.451,881.437L969.451,885.869L946.951,885.869L946.951,881.437L942.451,881.437L942.451,872.437ZM951.451,872.437L951.451,881.437L955.951,881.437L955.951,872.437L951.451,872.437ZM962.312,876.937" style="fill:url(#_Linear2);fill-rule:nonzero;"/>
            <path d="M969.451,872.437L973.951,872.437L973.951,867.937L991.951,867.937L991.951,876.937L987.451,876.937L987.451,881.437L996.451,881.437L996.451,885.869L973.951,885.869L973.951,881.437L969.451,881.437L969.451,872.437ZM978.451,872.437L978.451,876.937L982.951,876.937L982.951,872.437L978.451,872.437Z" style="fill:none;fill-rule:nonzero;stroke:rgb(255,178,248);stroke-width:1.63px;"/>
            <path d="M969.451,872.437L973.951,872.437L973.951,867.937L991.951,867.937L991.951,876.937L987.451,876.937L987.451,881.437L996.451,881.437L996.451,885.869L973.951,885.869L973.951,881.437L969.451,881.437L969.451,872.437ZM978.451,872.437L978.451,876.937L982.951,876.937L982.951,872.437L978.451,872.437Z" style="fill:url(#_Linear3);fill-rule:nonzero;"/>
            <path d="M996.451,867.937L1005.45,867.937L1005.45,881.437L1009.95,881.437L1009.95,867.937L1023.45,867.937L1023.45,872.437L1018.95,872.437L1018.95,881.437L1014.45,881.437L1014.45,885.869L996.451,885.869L996.451,867.937Z" style="fill:none;fill-rule:nonzero;stroke:rgb(255,178,248);stroke-width:1.63px;"/>
            <path d="M996.451,867.937L1005.45,867.937L1005.45,881.437L1009.95,881.437L1009.95,867.937L1023.45,867.937L1023.45,872.437L1018.95,872.437L1018.95,881.437L1014.45,881.437L1014.45,885.869L996.451,885.869L996.451,867.937Z" style="fill:url(#_Linear4);fill-rule:nonzero;"/>
        </g>
    </g>
    <defs>
        <linearGradient id="_Linear1" x1="0" y1="0" x2="1" y2="0" gradientUnits="userSpaceOnUse" gradientTransform="matrix(-1.40177,-96.3717,96.3717,-1.40177,958.19,884.49)"><stop offset="0" style="stop-color:rgb(255,42,237);stop-opacity:1"/><stop offset="1" style="stop-color:black;stop-opacity:1"/></linearGradient>
        <linearGradient id="_Linear2" x1="0" y1="0" x2="1" y2="0" gradientUnits="userSpaceOnUse" gradientTransform="matrix(-1.40177,-96.3717,96.3717,-1.40177,958.19,884.49)"><stop offset="0" style="stop-color:rgb(255,42,237);stop-opacity:1"/><stop offset="1" style="stop-color:black;stop-opacity:1"/></linearGradient>
        <linearGradient id="_Linear3" x1="0" y1="0" x2="1" y2="0" gradientUnits="userSpaceOnUse" gradientTransform="matrix(-1.40177,-96.3717,96.3717,-1.40177,958.19,884.49)"><stop offset="0" style="stop-color:rgb(255,42,237);stop-opacity:1"/><stop offset="1" style="stop-color:black;stop-opacity:1"/></linearGradient>
        <linearGradient id="_Linear4" x1="0" y1="0" x2="1" y2="0" gradientUnits="userSpaceOnUse" gradientTransform="matrix(-1.40177,-96.3717,96.3717,-1.40177,958.19,884.49)"><stop offset="0" style="stop-color:rgb(255,42,237);stop-opacity:1"/><stop offset="1" style="stop-color:black;stop-opacity:1"/></linearGradient>
    </defs>
</svg>
