<?xml version="1.0" encoding="UTF-8" standalone="no"?>
<!DOCTYPE svg PUBLIC "-//W3C//DTD SVG 1.1//EN" "http://www.w3.org/Graphics/SVG/1.1/DTD/svg11.dtd">
<svg width="100%" height="100%" viewBox="0 0 1277 426" version="1.1" xmlns="http://www.w3.org/2000/svg" xmlns:xlink="http://www.w3.org/1999/xlink" xml:space="preserve" xmlns:serif="http://www.serif.com/" style="fill-rule:evenodd;clip-rule:evenodd;stroke-miterlimit:2;">
    <g transform="matrix(1,0,0,1,-294.306,-326.306)">
        <g transform="matrix(3.63363,-0.271239,0.271239,3.63363,-631.856,-734.906)">
            <path d="M247,325.014L264.996,325.014L264.996,334.012L273.994,334.012L273.994,343.01L282.992,343.01L282.992,334.012L291.99,334.012L291.99,325.014L309.986,325.014L309.986,388L291.99,388L291.99,352.008L282.992,352.008L282.992,361.006L273.994,361.006L273.994,352.008L264.996,352.008L264.996,388L247,388L247,325.014Z" style="fill:none;fill-rule:nonzero;stroke:rgb(0,93,81);stroke-width:2.69px;"/>
            <path d="M247,325.014L264.996,325.014L264.996,334.012L273.994,334.012L273.994,343.01L282.992,343.01L282.992,334.012L291.99,334.012L291.99,325.014L309.986,325.014L309.986,388L291.99,388L291.99,352.008L282.992,352.008L282.992,361.006L273.994,361.006L273.994,352.008L264.996,352.008L264.996,388L247,388L247,325.014Z" style="fill:rgb(0,93,81);fill-rule:nonzero;"/>
        </g>
        <g transform="matrix(3.61482,0.45817,-0.45817,3.61482,543.208,-905.714)">
            <path d="M300.988,388L255.998,388L255.998,379.002L247,379.002L247,334.012L255.998,334.012L255.998,325.014L300.988,325.014L300.988,334.012L309.986,334.012L309.986,379.002L300.988,379.002L300.988,388ZM291.99,334.012L264.996,334.012L264.996,379.002L291.99,379.002L291.99,334.012Z" style="fill:none;fill-rule:nonzero;stroke:rgb(0,93,81);stroke-width:2.69px;"/>
            <path d="M300.988,388L255.998,388L255.998,379.002L247,379.002L247,334.012L255.998,334.012L255.998,325.014L300.988,325.014L300.988,334.012L309.986,334.012L309.986,379.002L300.988,379.002L300.988,388ZM291.99,334.012L264.996,334.012L264.996,379.002L291.99,379.002L291.99,334.012Z" style="fill:rgb(0,93,81);fill-rule:nonzero;"/>
        </g>
        <g transform="matrix(3.64374,0,0,3.64374,-82.2697,-820.517)">
            <path d="M300.988,343.01L282.992,343.01L282.992,334.012L264.996,334.012L264.996,352.008L300.988,352.008L300.988,361.006L309.986,361.006L309.986,379.002L300.988,379.002L300.988,388L255.998,388L255.998,379.002L247,379.002L247,369.869L265.131,369.869L264.996,379.002L291.99,379.002L291.99,361.006L255.998,361.006L255.998,352.008L247,352.008L247,334.012L255.998,334.012L255.998,325.014L291.99,325.014L291.99,334.012L300.988,334.012L300.988,343.01Z" style="fill:none;fill-rule:nonzero;stroke:rgb(0,93,81);stroke-width:2.69px;"/>
            <path d="M300.988,343.01L282.992,343.01L282.992,334.012L264.996,334.012L264.996,352.008L300.988,352.008L300.988,361.006L309.986,361.006L309.986,379.002L300.988,379.002L300.988,388L255.998,388L255.998,379.002L247,379.002L247,369.869L265.131,369.869L264.996,379.002L291.99,379.002L291.99,361.006L255.998,361.006L255.998,352.008L247,352.008L247,334.012L255.998,334.012L255.998,325.014L291.99,325.014L291.99,334.012L300.988,334.012L300.988,343.01Z" style="fill:rgb(0,93,81);fill-rule:nonzero;"/>
        </g>
        <g transform="matrix(3.63363,-0.271239,0.271239,3.63363,-640.856,-740.906)">
            <path d="M247,325.014L264.996,325.014L264.996,334.012L273.994,334.012L273.994,343.01L282.992,343.01L282.992,334.012L291.99,334.012L291.99,325.014L309.986,325.014L309.986,388L291.99,388L291.99,352.008L282.992,352.008L282.992,361.006L273.994,361.006L273.994,352.008L264.996,352.008L264.996,388L247,388L247,325.014Z" style="fill:none;fill-rule:nonzero;stroke:rgb(135,249,234);stroke-width:2.69px;"/>
            <path d="M247,325.014L264.996,325.014L264.996,334.012L273.994,334.012L273.994,343.01L282.992,343.01L282.992,334.012L291.99,334.012L291.99,325.014L309.986,325.014L309.986,388L291.99,388L291.99,352.008L282.992,352.008L282.992,361.006L273.994,361.006L273.994,352.008L264.996,352.008L264.996,388L247,388L247,325.014Z" style="fill:url(#_Linear1);fill-rule:nonzero;"/>
        </g>
        <g transform="matrix(3.64367,0.0217393,-0.0217393,3.64367,-299.556,-832.143)">
            <path d="M247,343.01L255.998,343.01L255.998,334.012L264.996,334.012L264.996,325.014L291.99,325.014L291.99,334.012L300.988,334.012L300.988,343.01L309.986,343.01L309.986,388L291.99,388L291.99,370.004L264.996,370.004L264.996,388L247,388L247,343.01ZM273.994,334.012L273.994,343.01L264.996,343.01L264.996,361.006L291.99,361.006L291.99,343.01L282.992,343.01L282.992,334.012L273.994,334.012Z" style="fill:none;fill-rule:nonzero;stroke:rgb(0,93,81);stroke-width:2.69px;"/>
            <path d="M247,343.01L255.998,343.01L255.998,334.012L264.996,334.012L264.996,325.014L291.99,325.014L291.99,334.012L300.988,334.012L300.988,343.01L309.986,343.01L309.986,388L291.99,388L291.99,370.004L264.996,370.004L264.996,388L247,388L247,343.01ZM273.994,334.012L273.994,343.01L264.996,343.01L264.996,361.006L291.99,361.006L291.99,343.01L282.992,343.01L282.992,334.012L273.994,334.012Z" style="fill:rgb(0,93,81);fill-rule:nonzero;"/>
        </g>
        <g transform="matrix(3.64367,0.0217393,-0.0217393,3.64367,-308.556,-838.143)">
            <path d="M247,343.01L255.998,343.01L255.998,334.012L264.996,334.012L264.996,325.014L291.99,325.014L291.99,334.012L300.988,334.012L300.988,343.01L309.986,343.01L309.986,388L291.99,388L291.99,370.004L264.996,370.004L264.996,388L247,388L247,343.01ZM273.994,334.012L273.994,343.01L264.996,343.01L264.996,361.006L291.99,361.006L291.99,343.01L282.992,343.01L282.992,334.012L273.994,334.012Z" style="fill:none;fill-rule:nonzero;stroke:rgb(135,249,234);stroke-width:2.69px;"/>
            <path d="M247,343.01L255.998,343.01L255.998,334.012L264.996,334.012L264.996,325.014L291.99,325.014L291.99,334.012L300.988,334.012L300.988,343.01L309.986,343.01L309.986,388L291.99,388L291.99,370.004L264.996,370.004L264.996,388L247,388L247,343.01ZM273.994,334.012L273.994,343.01L264.996,343.01L264.996,361.006L291.99,361.006L291.99,343.01L282.992,343.01L282.992,334.012L273.994,334.012Z" style="fill:url(#_Linear2);fill-rule:nonzero;"/>
        </g>
        <g transform="matrix(3.61482,0.45817,-0.45817,3.61482,534.208,-911.714)">
            <path d="M300.988,388L255.998,388L255.998,379.002L247,379.002L247,334.012L255.998,334.012L255.998,325.014L300.988,325.014L300.988,334.012L309.986,334.012L309.986,379.002L300.988,379.002L300.988,388ZM291.99,334.012L264.996,334.012L264.996,379.002L291.99,379.002L291.99,334.012Z" style="fill:none;fill-rule:nonzero;stroke:rgb(135,249,234);stroke-width:2.69px;"/>
            <path d="M300.988,388L255.998,388L255.998,379.002L247,379.002L247,334.012L255.998,334.012L255.998,325.014L300.988,325.014L300.988,334.012L309.986,334.012L309.986,379.002L300.988,379.002L300.988,388ZM291.99,334.012L264.996,334.012L264.996,379.002L291.99,379.002L291.99,334.012Z" style="fill:url(#_Linear3);fill-rule:nonzero;"/>
        </g>
        <g transform="matrix(3.64374,0,0,3.64374,165.784,-821.517)">
            <path d="M300.988,343.01L282.992,343.01L282.992,334.012L264.996,334.012L264.996,352.008L300.988,352.008L300.988,361.006L309.986,361.006L309.986,379.002L300.988,379.002L300.988,388L255.998,388L255.998,379.002L247,379.002L247,369.869L265.131,369.869L264.996,379.002L291.99,379.002L291.99,361.006L255.998,361.006L255.998,352.008L247,352.008L247,334.012L255.998,334.012L255.998,325.014L291.99,325.014L291.99,334.012L300.988,334.012L300.988,343.01Z" style="fill:none;fill-rule:nonzero;stroke:rgb(0,93,81);stroke-width:2.69px;"/>
            <path d="M300.988,343.01L282.992,343.01L282.992,334.012L264.996,334.012L264.996,352.008L300.988,352.008L300.988,361.006L309.986,361.006L309.986,379.002L300.988,379.002L300.988,388L255.998,388L255.998,379.002L247,379.002L247,369.869L265.131,369.869L264.996,379.002L291.99,379.002L291.99,361.006L255.998,361.006L255.998,352.008L247,352.008L247,334.012L255.998,334.012L255.998,325.014L291.99,325.014L291.99,334.012L300.988,334.012L300.988,343.01Z" style="fill:rgb(0,93,81);fill-rule:nonzero;"/>
        </g>
        <g transform="matrix(3.64374,0,0,3.64374,156.784,-827.517)">
            <path d="M300.988,343.01L282.992,343.01L282.992,334.012L264.996,334.012L264.996,352.008L300.988,352.008L300.988,361.006L309.986,361.006L309.986,379.002L300.988,379.002L300.988,388L255.998,388L255.998,379.002L247,379.002L247,369.869L265.131,369.869L264.996,379.002L291.99,379.002L291.99,361.006L255.998,361.006L255.998,352.008L247,352.008L247,334.012L255.998,334.012L255.998,325.014L291.99,325.014L291.99,334.012L300.988,334.012L300.988,343.01Z" style="fill:none;fill-rule:nonzero;stroke:rgb(135,249,234);stroke-width:2.69px;"/>
            <path d="M300.988,343.01L282.992,343.01L282.992,334.012L264.996,334.012L264.996,352.008L300.988,352.008L300.988,361.006L309.986,361.006L309.986,379.002L300.988,379.002L300.988,388L255.998,388L255.998,379.002L247,379.002L247,369.869L265.131,369.869L264.996,379.002L291.99,379.002L291.99,361.006L255.998,361.006L255.998,352.008L247,352.008L247,334.012L255.998,334.012L255.998,325.014L291.99,325.014L291.99,334.012L300.988,334.012L300.988,343.01Z" style="fill:url(#_Linear4);fill-rule:nonzero;"/>
        </g>
        <g transform="matrix(3.64374,0,0,3.64374,-91.2697,-826.517)">
            <path d="M300.988,343.01L282.992,343.01L282.992,334.012L264.996,334.012L264.996,352.008L300.988,352.008L300.988,361.006L309.986,361.006L309.986,379.002L300.988,379.002L300.988,388L255.998,388L255.998,379.002L247,379.002L247,369.869L265.131,369.869L264.996,379.002L291.99,379.002L291.99,361.006L255.998,361.006L255.998,352.008L247,352.008L247,334.012L255.998,334.012L255.998,325.014L291.99,325.014L291.99,334.012L300.988,334.012L300.988,343.01Z" style="fill:none;fill-rule:nonzero;stroke:rgb(135,249,234);stroke-width:2.69px;"/>
            <path d="M300.988,343.01L282.992,343.01L282.992,334.012L264.996,334.012L264.996,352.008L300.988,352.008L300.988,361.006L309.986,361.006L309.986,379.002L300.988,379.002L300.988,388L255.998,388L255.998,379.002L247,379.002L247,369.869L265.131,369.869L264.996,379.002L291.99,379.002L291.99,361.006L255.998,361.006L255.998,352.008L247,352.008L247,334.012L255.998,334.012L255.998,325.014L291.99,325.014L291.99,334.012L300.988,334.012L300.988,343.01Z" style="fill:url(#_Linear5);fill-rule:nonzero;"/>
        </g>
        <g transform="matrix(0.841439,0,0,0.595442,121.249,206.338)">
            <rect x="216" y="216" width="1501" height="692" style="fill:none;stroke:rgb(0,178,155);stroke-width:9.11px;stroke-linecap:square;stroke-miterlimit:1;"/>
        </g>
        <g transform="matrix(0.841439,0,0,0.595442,117.249,202.384)">
            <rect x="216" y="216" width="1501" height="692" style="fill:none;stroke:rgb(149,255,241);stroke-width:9.11px;stroke-linecap:square;stroke-miterlimit:1;"/>
        </g>
    </g>
    <defs>
        <linearGradient id="_Linear1" x1="0" y1="0" x2="1" y2="0" gradientUnits="userSpaceOnUse" gradientTransform="matrix(-7.54774,-256.506,256.506,-7.54774,257.866,386.624)"><stop offset="0" style="stop-color:rgb(0,236,206);stop-opacity:1"/><stop offset="1" style="stop-color:black;stop-opacity:1"/></linearGradient>
        <linearGradient id="_Linear2" x1="0" y1="0" x2="1" y2="0" gradientUnits="userSpaceOnUse" gradientTransform="matrix(2.17592,-233.294,233.294,2.17592,259.058,384.917)"><stop offset="0" style="stop-color:rgb(0,236,206);stop-opacity:1"/><stop offset="1" style="stop-color:black;stop-opacity:1"/></linearGradient>
        <linearGradient id="_Linear3" x1="0" y1="0" x2="1" y2="0" gradientUnits="userSpaceOnUse" gradientTransform="matrix(-9.44944,-249.161,249.161,-9.44944,279.832,385.774)"><stop offset="0" style="stop-color:rgb(0,236,206);stop-opacity:1"/><stop offset="1" style="stop-color:black;stop-opacity:1"/></linearGradient>
        <linearGradient id="_Linear4" x1="0" y1="0" x2="1" y2="0" gradientUnits="userSpaceOnUse" gradientTransform="matrix(-16.1922,-246.45,246.45,-16.1922,279.443,385.735)"><stop offset="0" style="stop-color:rgb(0,236,206);stop-opacity:1"/><stop offset="1" style="stop-color:black;stop-opacity:1"/></linearGradient>
        <linearGradient id="_Linear5" x1="0" y1="0" x2="1" y2="0" gradientUnits="userSpaceOnUse" gradientTransform="matrix(-13.1733,-236.296,236.296,-13.1733,279.732,386.009)"><stop offset="0" style="stop-color:rgb(0,236,206);stop-opacity:1"/><stop offset="1" style="stop-color:black;stop-opacity:1"/></linearGradient>
    </defs>
</svg>
