<?xml version="1.0" encoding="UTF-8"?>
<svg version="1.1" xmlns="http://www.w3.org/2000/svg" width="500" height="500">
<path d="M0 0 C4.66661562 2.65962003 9.27654705 3.99339287 14.4375 5.3125 C33.684291 10.31550682 49.86893474 21.23799538 60.1953125 38.5 C64.57055009 46.74652112 67.57668376 55.55209869 70.69873047 64.32568359 C71.65099323 66.94653963 72.64872574 69.54597725 73.66015625 72.14453125 C74.15334351 73.42734985 74.15334351 73.42734985 74.65649414 74.73608398 C75.28826343 76.37594494 75.92897889 78.01239552 76.57983398 79.64477539 C78.14192766 83.74943998 79.14697823 86.53390299 77.625 90.875 C76.366875 90.91625 75.10875 90.9575 73.8125 91 C73.10480469 91.02320313 72.39710938 91.04640625 71.66796875 91.0703125 C69.625 90.875 69.625 90.875 66.625 88.875 C66.48964844 89.66261719 66.35429687 90.45023437 66.21484375 91.26171875 C64.03978852 102.26723771 60.27002373 113.37509271 50.625 119.875 C47.65399417 122.17077723 45.71916504 123.73375244 43.625 126.875 C42.965 126.875 42.305 126.875 41.625 126.875 C40.29790697 133.34457853 39.52193424 139.44706805 39.6875 146.0625 C39.81136402 156.30943283 36.5958905 162.70125669 30.625 170.875 C28.6875 170.5 28.6875 170.5 26.625 169.875 C26.295 169.215 25.965 168.555 25.625 167.875 C25.109375 168.596875 24.59375 169.31875 24.0625 170.0625 C20.33539326 174.36300778 16.78634451 177.33157624 11.20703125 178.734375 C7.19171051 180.01297223 5.54179092 181.45059392 2.625 184.4375 C-1.7167928 188.5808452 -6.0857554 191.82230991 -11.25 194.875 C-11.88035156 195.24826416 -12.51070312 195.62152832 -13.16015625 196.00610352 C-19.44979968 199.63287419 -23.91636296 201.18090867 -31.1875 201 C-31.88037109 200.99097656 -32.57324219 200.98195313 -33.28710938 200.97265625 C-34.98322395 200.94926157 -36.67915871 200.91339641 -38.375 200.875 C-35.94408634 205.29559984 -32.92623467 208.91144422 -29.625 212.6875 C-29.08713867 213.30915039 -28.54927734 213.93080078 -27.99511719 214.57128906 C-25.22270306 217.77151393 -22.42830764 220.9518115 -19.625 224.125 C-18.53927821 225.372926 -17.45596285 226.62294951 -16.375 227.875 C-15.76527344 228.56980469 -15.15554688 229.26460937 -14.52734375 229.98046875 C-8.07332303 237.64060864 -3.23080729 246.15440474 1.625 254.875 C2.04523438 255.62894043 2.46546875 256.38288086 2.8984375 257.15966797 C4.13284803 259.3912867 5.35144755 261.63062976 6.5625 263.875 C6.92786865 264.544104 7.2932373 265.21320801 7.66967773 265.90258789 C10.31015547 270.88563382 11.7887777 275.36633309 13.625 280.875 C-57.985 280.875 -129.595 280.875 -203.375 280.875 C-196.99642841 265.56642818 -189.79711255 254.51200034 -178.375 242.875 C-177.57707031 242.05 -176.77914062 241.225 -175.95703125 240.375 C-172.62702881 236.98195105 -169.2342279 233.73709987 -165.640625 230.625 C-154.65457527 221.05642268 -143.54790316 211.29608623 -137.375 197.875 C-136.99601562 197.08867187 -136.61703125 196.30234375 -136.2265625 195.4921875 C-134.81708931 192.45069273 -133.56155721 189.39109066 -132.421875 186.23828125 C-130.55288982 181.15790486 -129.24631155 177.74782476 -124.375 174.875 C-121.55088235 173.93362745 -119.84581968 173.75774618 -116.92578125 173.77734375 C-116.07822266 173.78056641 -115.23066406 173.78378906 -114.35742188 173.78710938 C-113.47634766 173.79548828 -112.59527344 173.80386719 -111.6875 173.8125 C-110.79482422 173.81701172 -109.90214844 173.82152344 -108.98242188 173.82617188 C-106.77988013 173.83795017 -104.57747401 173.85439836 -102.375 173.875 C-100.50895656 169.69420801 -100.32924932 167.37172794 -101.375 162.875 C-102.53 162.9575 -103.685 163.04 -104.875 163.125 C-110.87652813 163.11435899 -115.41689609 160.83310391 -119.625 156.625 C-121.82626546 153.16586856 -123.64294713 149.58785801 -125.375 145.875 C-125.99375 146.06707031 -126.6125 146.25914062 -127.25 146.45703125 C-129.375 146.875 -129.375 146.875 -131.375 145.5625 C-138.88730205 135.46784411 -138.50311086 124.0978752 -138.16015625 112.109375 C-138.14597656 111.11164063 -138.13179688 110.11390625 -138.1171875 109.0859375 C-138.0951123 108.18149902 -138.07303711 107.27706055 -138.05029297 106.34521484 C-138.44010374 103.37972211 -139.4890181 102.14568172 -141.375 99.875 C-143.48403943 93.54788172 -142.10772609 88.31148643 -140.03125 82.20703125 C-139.19440956 79.63702713 -139.19440956 79.63702713 -139.375 75.875 C-141.75112865 74.26592892 -141.75112865 74.26592892 -144.375 72.875 C-146.375 69.875 -146.375 69.875 -146.421875 67.55859375 C-144.85436501 63.54038718 -141.95123678 61.56684304 -138.625 58.9375 C-131.84360451 53.53168381 -131.84360451 53.53168381 -126.375 46.875 C-126.54773438 45.88886719 -126.72046875 44.90273438 -126.8984375 43.88671875 C-127.375 40.875 -127.375 40.875 -125.1640625 37.83203125 C-124.12562838 36.76774957 -123.06975437 35.72029548 -122 34.6875 C-120.87877856 33.54694998 -119.76031722 32.40368053 -118.64453125 31.2578125 C-118.08717285 30.69094727 -117.52981445 30.12408203 -116.95556641 29.54003906 C-114.70621149 27.17046839 -112.70248722 24.63223503 -110.6875 22.0625 C-82.40440366 -12.76294959 -38.44366359 -22.77273507 0 0 Z " fill="#050910" transform="translate(306.375,219.125)"/>
<path d="M0 0 C4.66661562 2.65962003 9.27654705 3.99339287 14.4375 5.3125 C33.684291 10.31550682 49.86893474 21.23799538 60.1953125 38.5 C64.57055009 46.74652112 67.57668376 55.55209869 70.69873047 64.32568359 C71.65099323 66.94653963 72.64872574 69.54597725 73.66015625 72.14453125 C74.15334351 73.42734985 74.15334351 73.42734985 74.65649414 74.73608398 C75.28826343 76.37594494 75.92897889 78.01239552 76.57983398 79.64477539 C78.14192766 83.74943998 79.14697823 86.53390299 77.625 90.875 C76.366875 90.91625 75.10875 90.9575 73.8125 91 C73.10480469 91.02320313 72.39710938 91.04640625 71.66796875 91.0703125 C69.625 90.875 69.625 90.875 66.625 88.875 C66.42197266 90.05642578 66.42197266 90.05642578 66.21484375 91.26171875 C64.03978852 102.26723771 60.27002373 113.37509271 50.625 119.875 C47.65399417 122.17077723 45.71916504 123.73375244 43.625 126.875 C42.965 126.875 42.305 126.875 41.625 126.875 C40.29790697 133.34457853 39.52193424 139.44706805 39.6875 146.0625 C39.81136402 156.30943283 36.5958905 162.70125669 30.625 170.875 C28.6875 170.5 28.6875 170.5 26.625 169.875 C26.295 169.215 25.965 168.555 25.625 167.875 C25.109375 168.596875 24.59375 169.31875 24.0625 170.0625 C20.60626597 174.05046234 17.09138658 177.61261845 11.6875 178.1875 C11.006875 178.084375 10.32625 177.98125 9.625 177.875 C9.625 173.54307071 10.39046257 171.94534935 12.375 168.1875 C14.27596257 164.51081475 16.1403615 160.84921053 17.8125 157.0625 C18.12960937 156.34707031 18.44671875 155.63164062 18.7734375 154.89453125 C19.55635564 153.0377942 20.25149362 151.14468428 20.9375 149.25 C22.80004738 145.52490524 24.94439866 143.38116949 27.91796875 140.5390625 C33.11023575 135.4774933 34.44600524 130.30681828 35.81640625 123.38671875 C36.08324219 122.55785156 36.35007812 121.72898437 36.625 120.875 C37.615 120.545 38.605 120.215 39.625 119.875 C39.625 119.215 39.625 118.555 39.625 117.875 C28.405 117.875 17.185 117.875 5.625 117.875 C5.625 116.885 5.625 115.895 5.625 114.875 C11.85097846 112.17316029 16.696349 110.69364696 23.5625 110.6875 C24.27857422 110.67525391 24.99464844 110.66300781 25.73242188 110.65039062 C29.84560547 110.63895453 31.84781567 110.98640784 35.625 112.875 C35.955 104.295 36.285 95.715 36.625 86.875 C33.04694438 90.45305562 31.75959846 92.51686148 29.625 96.875 C26.29614094 101.70721477 26.29614094 101.70721477 21.625 102.875 C21.625 99.575 21.625 96.275 21.625 92.875 C20.696875 94.793125 20.696875 94.793125 19.75 96.75 C18.52440919 99.28288768 17.63493705 100.86506295 15.625 102.875 C14.635 102.875 13.645 102.875 12.625 102.875 C12.769375 102.18277344 12.91375 101.49054688 13.0625 100.77734375 C14.65987834 92.35782875 14.83489053 84.41054807 14.625 75.875 C14.20089844 76.72320312 13.77679688 77.57140625 13.33984375 78.4453125 C12.42911754 80.26676491 11.5181868 82.08811887 10.60327148 83.9074707 C8.99868067 87.10274773 7.41314395 90.30358003 5.8828125 93.53515625 C2.21680615 101.16281463 -1.72166535 108.50687591 -7.375 114.875 C-8.035 114.875 -8.695 114.875 -9.375 114.875 C-9.13969246 112.00625062 -8.90172722 109.13776118 -8.66015625 106.26953125 C-8.47620714 104.0797809 -8.29622384 101.88969206 -8.12109375 99.69921875 C-7.99927734 98.23935547 -7.99927734 98.23935547 -7.875 96.75 C-7.8028125 95.86054688 -7.730625 94.97109375 -7.65625 94.0546875 C-7.375 91.875 -7.375 91.875 -6.375 89.875 C-7.035 90.535 -7.695 91.195 -8.375 91.875 C-8.82488281 92.32359375 -9.27476562 92.7721875 -9.73828125 93.234375 C-10.96990076 94.46893394 -12.19544238 95.70956089 -13.41796875 96.953125 C-14.12566406 97.66984375 -14.83335937 98.3865625 -15.5625 99.125 C-16.23667969 99.81078125 -16.91085937 100.4965625 -17.60546875 101.203125 C-19.375 102.875 -19.375 102.875 -21.375 103.875 C-21.87 105.36 -21.87 105.36 -22.375 106.875 C-20.725 107.535 -19.075 108.195 -17.375 108.875 C-17.375 109.535 -17.375 110.195 -17.375 110.875 C-22.30827756 111.33390954 -26.02892554 110.4706039 -30.75 108.9375 C-36.0613899 107.22746207 -40.81289552 106.10564548 -46.375 105.875 C-47.50292969 105.80023438 -48.63085938 105.72546875 -49.79296875 105.6484375 C-57.56123008 105.33737962 -61.54301146 105.69101019 -67.375 110.875 C-68.365 110.875 -69.355 110.875 -70.375 110.875 C-70.705 109.555 -71.035 108.235 -71.375 106.875 C-72.695 106.875 -74.015 106.875 -75.375 106.875 C-76.695 110.175 -78.015 113.475 -79.375 116.875 C-80.035 116.545 -80.695 116.215 -81.375 115.875 C-81.38958252 115.27026855 -81.40416504 114.66553711 -81.41918945 114.04248047 C-81.49409188 111.27770735 -81.59061073 108.51408643 -81.6875 105.75 C-81.71005859 104.79867187 -81.73261719 103.84734375 -81.75585938 102.8671875 C-82.02111074 95.92242457 -83.16936581 91.48693523 -87.75 86.0625 C-90.49959013 83.77117489 -91.82698386 82.96597477 -95.375 82.875 C-97.625 83.375 -97.625 83.375 -99.375 84.875 C-100.52520525 87.12243756 -100.52520525 87.12243756 -101.375 89.875 C-101.8803125 90.91269531 -102.385625 91.95039063 -102.90625 93.01953125 C-104.68460677 97.15749549 -104.87362603 100.91279968 -104.8125 105.375 C-104.80492676 106.15601074 -104.79735352 106.93702148 -104.78955078 107.74169922 C-104.46257361 119.5057174 -101.92593691 130.32406309 -93.375 138.875 C-91.04682036 139.24260731 -88.7131615 139.57741581 -86.375 139.875 C-87.99159712 148.31722938 -90.14402472 156.87378613 -95.375 163.875 C-96.365 164.205 -97.355 164.535 -98.375 164.875 C-98.9525 164.565625 -99.53 164.25625 -100.125 163.9375 C-102.45076095 162.62759535 -102.45076095 162.62759535 -105.625 163 C-111.40081667 162.80747278 -115.55356229 160.69643771 -119.625 156.625 C-121.82626546 153.16586856 -123.64294713 149.58785801 -125.375 145.875 C-126.303125 146.16310547 -126.303125 146.16310547 -127.25 146.45703125 C-129.375 146.875 -129.375 146.875 -131.375 145.5625 C-138.88730205 135.46784411 -138.50311086 124.0978752 -138.16015625 112.109375 C-138.14597656 111.11164063 -138.13179687 110.11390625 -138.1171875 109.0859375 C-138.0951123 108.18149902 -138.07303711 107.27706055 -138.05029297 106.34521484 C-138.44010374 103.37972211 -139.4890181 102.14568172 -141.375 99.875 C-143.48403943 93.54788172 -142.10772609 88.31148643 -140.03125 82.20703125 C-139.19440956 79.63702713 -139.19440956 79.63702713 -139.375 75.875 C-141.75112865 74.26592892 -141.75112865 74.26592892 -144.375 72.875 C-146.375 69.875 -146.375 69.875 -146.421875 67.55859375 C-144.85436501 63.54038718 -141.95123678 61.56684304 -138.625 58.9375 C-131.84360451 53.53168381 -131.84360451 53.53168381 -126.375 46.875 C-126.54773438 45.88886719 -126.72046875 44.90273438 -126.8984375 43.88671875 C-127.375 40.875 -127.375 40.875 -125.1640625 37.83203125 C-124.12562838 36.76774957 -123.06975437 35.72029548 -122 34.6875 C-120.87877856 33.54694998 -119.76031722 32.40368053 -118.64453125 31.2578125 C-118.08717285 30.69094727 -117.52981445 30.12408203 -116.95556641 29.54003906 C-114.70621149 27.17046839 -112.70248722 24.63223503 -110.6875 22.0625 C-82.40440366 -12.76294959 -38.44366359 -22.77273507 0 0 Z " fill="#090202" transform="translate(306.375,219.125)"/>
<path d="M0 0 C0.33 0 0.66 0 1 0 C1.33706931 9.83743016 1.02149686 18.50386702 -2 28 C1.9429464 26.53403275 3.01834588 24.62691725 4.75 20.875 C5.17796875 19.96492188 5.6059375 19.05484375 6.046875 18.1171875 C6.36140625 17.41851562 6.6759375 16.71984375 7 16 C7.33 16 7.66 16 8 16 C8.14285714 24.57142857 8.14285714 24.57142857 7 28 C11.83485536 25.71687386 13.60720295 22.55496307 16 18 C17.2501165 15.90273495 18.55413156 13.97602021 20 12 C20.66 12 21.32 12 22 12 C22 20.91 22 29.82 22 39 C20.35 38.34 18.7 37.68 17 37 C14.38739524 36.78391991 11.92117611 36.667756 9.3125 36.6875 C8.25772461 36.68943359 8.25772461 36.68943359 7.18164062 36.69140625 C1.43794287 36.7966986 -3.65363034 37.84088918 -9 40 C-9 40.99 -9 41.98 -9 43 C-8.21367187 42.83757812 -7.42734375 42.67515625 -6.6171875 42.5078125 C-2.09349007 41.87273619 2.31369292 41.85466728 6.875 41.875 C7.73480469 41.87113281 8.59460938 41.86726563 9.48046875 41.86328125 C14.74346615 41.87126759 19.79196324 42.23873245 25 43 C25 43.66 25 44.32 25 45 C24.01 45.495 24.01 45.495 23 46 C22.54232686 47.81888164 22.15927171 49.65675707 21.8125 51.5 C20.06713317 58.9310315 16.38561379 63.32374187 11.31640625 68.828125 C8.15010623 72.33395345 6.25536248 75.27235778 4.7734375 79.76171875 C2.71520762 85.71811128 -0.04867164 91.51270358 -3.25 96.9375 C-5.0444913 99.71889861 -5.0444913 99.71889861 -5.42578125 101.984375 C-8.232018 111.83483868 -24.37528725 118.93139258 -32.43359375 123.6171875 C-36.92364739 126.03648581 -40.71292173 126.12288237 -45.6875 126.0625 C-46.38939453 126.05798828 -47.09128906 126.05347656 -47.81445312 126.04882812 C-49.54300538 126.03706927 -51.27151365 126.01913454 -53 126 C-53 126.66 -53 127.32 -53 128 C-53.99 128 -54.98 128 -56 128 C-56.495 131.96 -56.495 131.96 -57 136 C-58.32 136 -59.64 136 -61 136 C-62.37698196 134.36920993 -63.70251433 132.69472313 -65 131 C-67.14242543 129.24440139 -69.27132611 127.57236622 -71.5 125.9375 C-77.58565965 121.43190391 -77.58565965 121.43190391 -80.02734375 118.88671875 C-82.48098258 116.53997111 -84.99980487 115.3247516 -88.0625 113.875 C-91.21514503 112.37077135 -94.09002953 110.93998031 -97 109 C-97 108.34 -97 107.68 -97 107 C-97.72179443 106.87713623 -98.44358887 106.75427246 -99.18725586 106.62768555 C-101.98728991 106.00283635 -104.36507277 105.06979841 -107.00390625 103.95703125 C-113.38222287 101.59124396 -119.1991645 101.50690137 -125.9375 101.6875 C-127.04673828 101.69716797 -128.15597656 101.70683594 -129.29882812 101.71679688 C-135.7255081 101.77009885 -135.7255081 101.77009885 -142 103 C-139.53299648 100.29804376 -137.69135891 99.09210468 -133.9152832 98.88647461 C-132.74485474 98.89432983 -132.74485474 98.89432983 -131.55078125 98.90234375 C-130.70322266 98.90556641 -129.85566406 98.90878906 -128.98242188 98.91210938 C-127.66081055 98.92467773 -127.66081055 98.92467773 -126.3125 98.9375 C-124.97348633 98.94426758 -124.97348633 98.94426758 -123.60742188 98.95117188 C-121.40488013 98.96295017 -119.20247401 98.97939836 -117 99 C-115.48179307 95.44357039 -114.7779121 92.88653827 -115 89 C-113.35 89 -111.7 89 -110 89 C-109.7525 88.360625 -109.505 87.72125 -109.25 87.0625 C-108.24708362 84.60535486 -107.17626972 82.21926676 -106.0625 79.8125 C-103.90062418 75.00293357 -102.39903751 70.07681034 -101 65 C-102.546875 65.2165625 -102.546875 65.2165625 -104.125 65.4375 C-108.26291804 64.97031571 -108.68708773 64.80496252 -111.25 61.875 C-119.44970046 50.93481609 -121.34922483 37.51000599 -120.31494141 24.12841797 C-119.41804789 18.06708645 -116.54009334 12.24979696 -111.94921875 8.18359375 C-110 7 -110 7 -107.5625 7 C-102.86087266 8.8347814 -99.75093621 12.87359568 -97 17 C-96.04831317 19.85506049 -95.8099054 21.90937282 -95.68359375 24.88671875 C-95.64169922 25.82451172 -95.59980469 26.76230469 -95.55664062 27.72851562 C-95.51732422 28.70498047 -95.47800781 29.68144531 -95.4375 30.6875 C-95.39431641 31.67556641 -95.35113281 32.66363281 -95.30664062 33.68164062 C-95.20058458 36.12092972 -95.09979026 38.56044654 -95 41 C-92.525 36.05 -92.525 36.05 -90 31 C-88.35 31.33 -86.7 31.66 -85 32 C-85 33.32 -85 34.64 -85 36 C-83.3603125 35.071875 -83.3603125 35.071875 -81.6875 34.125 C-81.07261719 33.77695312 -80.45773438 33.42890625 -79.82421875 33.0703125 C-78.18017711 32.10571419 -76.58599412 31.05732941 -75 30 C-63.52918992 28.94876673 -51.81462825 30.38219243 -41.01171875 34.3359375 C-38.03035755 35.32007615 -35.11594743 35.66851623 -32 36 C-33.63412443 34.29159719 -34.86906094 33.06546953 -37 32 C-36.44961611 28.29300265 -35.13470436 26.93493244 -32.25 24.625 C-29.58978311 22.41768742 -27.26787134 20.27637598 -25.125 17.5625 C-24.42375 16.716875 -23.7225 15.87125 -23 15 C-22.34 15 -21.68 15 -21 15 C-21.30836942 18.22957498 -21.62242819 21.45857255 -21.9375 24.6875 C-22.02451172 25.59951172 -22.11152344 26.51152344 -22.20117188 27.45117188 C-22.28818359 28.33740234 -22.37519531 29.22363281 -22.46484375 30.13671875 C-22.543396 30.94842529 -22.62194824 31.76013184 -22.70288086 32.59643555 C-23.01211634 35.09801594 -23.47634232 37.53516441 -24 40 C-20.20087111 36.45370281 -17.33569436 32.79890216 -14.6875 28.3125 C-14.1160022 27.35694214 -14.1160022 27.35694214 -13.53295898 26.38208008 C-10.05690764 20.40763927 -7.24469934 14.18030884 -4.56323242 7.81567383 C-2.18146946 2.18146946 -2.18146946 2.18146946 0 0 Z " fill="#9A8281" transform="translate(321,294)"/>
<path d="M0 0 C0.495 1.485 0.495 1.485 1 3 C0.67 3.66 0.34 4.32 0 5 C1.03217651 4.99045288 1.03217651 4.99045288 2.08520508 4.98071289 C23.9084648 4.9207938 40.71527208 9.00323281 59 21 C59.99 21.99 59.99 21.99 61 23 C60.85548381 26.2542904 60.31042763 27.6675339 58.07421875 30.0625 C57.28660156 30.701875 56.49898438 31.34125 55.6875 32 C52.96470521 34.27114636 50.89046734 36.14604355 48.75 39 C47 41 47 41 44.4375 41.4375 C42 41 42 41 39 39 C21.28121064 33.29439279 5.65884303 35.88055206 -10.625 44.1875 C-11.95091402 44.88857981 -13.27645873 45.5903587 -14.6015625 46.29296875 C-17.24203718 47.61927615 -19.18697308 48.38107261 -22 49 C-22 49.66 -22 50.32 -22 51 C-23.9765625 52.55078125 -23.9765625 52.55078125 -26.625 54.3125 C-27.5428125 54.94285156 -28.460625 55.57320313 -29.40625 56.22265625 C-30.2621875 56.80917969 -31.118125 57.39570313 -32 58 C-38.02194114 62.33579762 -41.82959107 67.95608249 -46 74 C-42.46144547 71.31045067 -39.56681791 68.50438226 -36.6875 65.125 C-32.80975147 60.74481894 -28.84922296 57.24532136 -24 54 C-23.08605469 53.36835938 -22.17210937 52.73671875 -21.23046875 52.0859375 C-9.16542881 44.29545222 7.23069892 35.44990485 22 38 C28.06324633 40.46640529 32.28077883 44.62078746 36 50 C36.6953125 52.25 36.6953125 52.25 37 54 C37.66 54 38.32 54 39 54 C39.85402742 56.11676796 40.68213214 58.24399986 41.5 60.375 C41.9640625 61.55835938 42.428125 62.74171875 42.90625 63.9609375 C44 68 44 68 44 78 C8.69 78 -26.62 78 -63 78 C-56.62142841 62.69142818 -49.42211255 51.63700034 -38 40 C-37.20207031 39.175 -36.40414062 38.35 -35.58203125 37.5 C-32.25659442 34.11160309 -28.86966763 30.87307948 -25.27734375 27.76953125 C-20.76745326 23.84403276 -16.49189238 19.7117546 -12.25 15.5 C-11.50878906 14.77941406 -10.76757812 14.05882812 -10.00390625 13.31640625 C-5.80538282 9.14803379 -2.64945847 5.29891694 0 0 Z " fill="#566B78" transform="translate(166,422)"/>
<path d="M0 0 C4.70162734 1.8347814 7.81156379 5.87359568 10.5625 10 C11.51418683 12.85506049 11.7525946 14.90937282 11.87890625 17.88671875 C11.92080078 18.82451172 11.96269531 19.76230469 12.00585938 20.72851562 C12.04517578 21.70498047 12.08449219 22.68144531 12.125 23.6875 C12.16818359 24.67556641 12.21136719 25.66363281 12.25585938 26.68164062 C12.36191542 29.12092972 12.46270974 31.56044654 12.5625 34 C14.2125 30.7 15.8625 27.4 17.5625 24 C19.2125 24.33 20.8625 24.66 22.5625 25 C23.0575 26.98 23.0575 26.98 23.5625 29 C27.45709074 29.21081851 27.45709074 29.21081851 30.5625 28 C31.0575 26.515 31.0575 26.515 31.5625 25 C35.1925 25 38.8225 25 42.5625 25 C44.5580516 28.99110319 44.75796065 30.69986566 44.5625 35 C40.9325 35 37.3025 35 33.5625 35 C36.31827249 37.75577249 37.7307704 38.6950174 41.1875 40.125 C45.47916667 41.91666667 45.47916667 41.91666667 46.5625 43 C46.60330783 44.99958364 46.60504356 47.00045254 46.5625 49 C47.2225 49 47.8825 49 48.5625 49 C50.45442495 53.77094118 50.83939629 58.0529368 50.75 63.125 C50.74935547 63.82753906 50.74871094 64.53007812 50.74804688 65.25390625 C50.71928179 68.63540136 50.60921748 71.76773641 49.5625 75 C48.9025 75 48.2425 75 47.5625 75 C47.53343388 79.56248659 47.51567887 84.1249493 47.5 88.6875 C47.48743164 90.62786133 47.48743164 90.62786133 47.47460938 92.60742188 C47.47138672 93.85458984 47.46816406 95.10175781 47.46484375 96.38671875 C47.45960693 97.53358154 47.45437012 98.68044434 47.44897461 99.86206055 C47.55174193 102.70263777 47.90933584 105.24043792 48.5625 108 C41.84275659 108 37.51023607 102.85920262 32.8125 98.375 C32.07 97.59125 31.3275 96.8075 30.5625 96 C29.1703125 94.6696875 29.1703125 94.6696875 27.75 93.3125 C25.5625 91 25.5625 91 25.5625 89 C24.5725 88.67 23.5825 88.34 22.5625 88 C20.95605413 85.96575061 19.49800926 83.96102624 18.0625 81.8125 C17.67191406 81.24724609 17.28132813 80.68199219 16.87890625 80.09960938 C10.0300943 70.03393121 10.0300943 70.03393121 10.5625 64 C9.9025 64 9.2425 64 8.5625 64 C8.5625 61.69 8.5625 59.38 8.5625 57 C7.98242188 57.15339844 7.40234375 57.30679688 6.8046875 57.46484375 C4.257706 57.97339946 2.15451829 58.23717814 -0.4375 58 C-3.12788125 56.11443365 -4.7189684 53.76967229 -6.4375 51 C-6.994375 50.113125 -7.55125 49.22625 -8.125 48.3125 C-12.66369093 36.85770862 -15.12666823 23.27637214 -11.23046875 11.28515625 C-5.82727273 0 -5.82727273 0 0 0 Z " fill="#C9B3AE" transform="translate(213.4375,301)"/>
<path d="M0 0 C1.07314453 -0.01998047 2.14628906 -0.03996094 3.25195312 -0.06054688 C10.86556736 -0.05594094 16.85037962 1.43247332 23.8125 4.4375 C25.47797784 5.10713107 27.14430923 5.77465631 28.8125 6.4375 C28.8125 7.0975 28.8125 7.7575 28.8125 8.4375 C29.555 8.705625 30.2975 8.97375 31.0625 9.25 C33.67886554 10.37979421 35.61437111 11.64643202 37.8125 13.4375 C37.4825 14.4275 37.1525 15.4175 36.8125 16.4375 C37.4725 16.7675 38.1325 17.0975 38.8125 17.4375 C38.379375 18.571875 37.94625 19.70625 37.5 20.875 C35.6439342 26.36402872 34.73981393 31.96803797 33.81518555 37.67163086 C32.90257764 43.25734472 32.90257764 43.25734472 31.8125 45.4375 C31.1525 45.4375 30.4925 45.4375 29.8125 45.4375 C29.8125 44.7775 29.8125 44.1175 29.8125 43.4375 C28.7296875 43.2828125 28.7296875 43.2828125 27.625 43.125 C24.56758007 42.37763068 22.42920365 41.15704811 19.8125 39.4375 C19.4825 40.4275 19.1525 41.4175 18.8125 42.4375 C16.08286868 41.4804738 13.35378758 40.52192654 10.625 39.5625 C9.85607422 39.29308594 9.08714844 39.02367187 8.29492188 38.74609375 C7.54404297 38.48183594 6.79316406 38.21757812 6.01953125 37.9453125 C5.3335083 37.70441895 4.64748535 37.46352539 3.94067383 37.21533203 C1.8125 36.4375 1.8125 36.4375 -0.55078125 35.36914062 C-3.66182937 34.26990362 -6.28617892 34.11715842 -9.58203125 34.0234375 C-10.78408203 33.98476563 -11.98613281 33.94609375 -13.22460938 33.90625 C-15.09342773 33.85984375 -15.09342773 33.85984375 -17 33.8125 C-18.26521484 33.77382813 -19.53042969 33.73515625 -20.83398438 33.6953125 C-23.95167851 33.60119343 -27.06936914 33.51555639 -30.1875 33.4375 C-29.73017501 32.01445898 -29.26835135 30.59286329 -28.8046875 29.171875 C-28.54800293 28.38006836 -28.29131836 27.58826172 -28.02685547 26.77246094 C-27.01176093 23.9486203 -25.69025301 21.39578689 -24.28125 18.75390625 C-22.39015737 14.74884221 -21.09774731 10.50023725 -19.7265625 6.29296875 C-15.70273826 -1.17255287 -7.45222476 -0.04836252 0 0 Z " fill="#212942" transform="translate(195.1875,394.5625)"/>
<path d="M0 0 C0.99 0 1.98 0 3 0 C3.40089844 0.88300781 3.80179688 1.76601563 4.21484375 2.67578125 C7.73773744 10.1884835 11.49610994 16.33476333 17.1796875 22.5 C20.18976673 26.6340144 20.25959943 30.79749751 19.6875 35.75 C19.60886719 36.50796875 19.53023437 37.2659375 19.44921875 38.046875 C19 40 19 40 17 42 C15.72740489 41.54658132 14.45698757 41.08704773 13.1875 40.625 C12.12595703 40.24214844 12.12595703 40.24214844 11.04296875 39.8515625 C9 39 9 39 6 37 C6 36.34 6 35.68 6 35 C5.27820557 34.87713623 4.55641113 34.75427246 3.81274414 34.62768555 C1.01271009 34.00283635 -1.36507277 33.06979841 -4.00390625 31.95703125 C-10.38222287 29.59124396 -16.1991645 29.50690137 -22.9375 29.6875 C-24.60135742 29.70200195 -24.60135742 29.70200195 -26.29882812 29.71679688 C-32.7255081 29.77009885 -32.7255081 29.77009885 -39 31 C-36.53299648 28.29804376 -34.69135891 27.09210468 -30.9152832 26.88647461 C-30.13499756 26.89171143 -29.35471191 26.89694824 -28.55078125 26.90234375 C-27.70322266 26.90556641 -26.85566406 26.90878906 -25.98242188 26.91210938 C-24.66081055 26.92467773 -24.66081055 26.92467773 -23.3125 26.9375 C-21.97348633 26.94426758 -21.97348633 26.94426758 -20.60742188 26.95117188 C-18.40488013 26.96295017 -16.20247401 26.97939836 -14 27 C-12.48179307 23.44357039 -11.7779121 20.88653827 -12 17 C-10.35 17 -8.7 17 -7 17 C-6.72414062 16.30519531 -6.44828125 15.61039062 -6.1640625 14.89453125 C-4.92556397 11.81490906 -3.65405114 8.75049088 -2.375 5.6875 C-1.70597656 4.08455078 -1.70597656 4.08455078 -1.0234375 2.44921875 C-0.68570313 1.64097656 -0.34796875 0.83273437 0 0 Z " fill="#C7B1AD" transform="translate(218,366)"/>
<path d="M0 0 C4.70162734 1.8347814 7.81156379 5.87359568 10.5625 10 C11.51418683 12.85506049 11.7525946 14.90937282 11.87890625 17.88671875 C11.92080078 18.82451172 11.96269531 19.76230469 12.00585938 20.72851562 C12.04517578 21.70498047 12.08449219 22.68144531 12.125 23.6875 C12.16818359 24.67556641 12.21136719 25.66363281 12.25585938 26.68164062 C12.36191654 29.12095546 12.46397714 31.56037113 12.5625 34 C13.5525 33.505 13.5525 33.505 14.5625 33 C14.5625 34.32 14.5625 35.64 14.5625 37 C13.5725 37 12.5825 37 11.5625 37 C10.41435003 34.70370006 10.25480191 32.92301914 10 30.375 C9.91621094 29.55773437 9.83242187 28.74046875 9.74609375 27.8984375 C9.68550781 27.27195312 9.62492187 26.64546875 9.5625 26 C8.9025 26.33 8.2425 26.66 7.5625 27 C7.09248967 30.27555608 7.09248967 30.27555608 6.9375 34.0625 C6.86273438 35.35285156 6.78796875 36.64320313 6.7109375 37.97265625 C6.66195312 38.97167969 6.61296875 39.97070312 6.5625 41 C5.0775 41.495 5.0775 41.495 3.5625 42 C3.294375 41.195625 3.02625 40.39125 2.75 39.5625 C2.358125 38.716875 1.96625 37.87125 1.5625 37 C0.5725 36.67 -0.4175 36.34 -1.4375 36 C-1.4375 36.99 -1.4375 37.98 -1.4375 39 C-2.7575 39 -4.0775 39 -5.4375 39 C-5.4375 38.01 -5.4375 37.02 -5.4375 36 C-6.0975 36 -6.7575 36 -7.4375 36 C-7.7675 33.36 -8.0975 30.72 -8.4375 28 C-9.0975 28.99 -9.7575 29.98 -10.4375 31 C-11.0975 31.66 -11.7575 32.32 -12.4375 33 C-13.10567412 21.86376469 -13.44824818 12.40662313 -6.4375 3 C-3.05040323 0 -3.05040323 0 0 0 Z " fill="#C3ADA9" transform="translate(213.4375,301)"/>
<path d="M0 0 C1.29647461 -0.00580078 1.29647461 -0.00580078 2.61914062 -0.01171875 C7.89871923 -0.00374957 12.96319407 0.36046743 18.1875 1.125 C18.1875 1.785 18.1875 2.445 18.1875 3.125 C17.5275 3.455 16.8675 3.785 16.1875 4.125 C15.680655 5.98245509 15.25664672 7.8628389 14.875 9.75 C13.58292879 15.33121482 11.85322094 18.76576429 8.1875 23.125 C7.1975 22.795 6.2075 22.465 5.1875 22.125 C4.8575 21.465 4.5275 20.805 4.1875 20.125 C3.1975 20.785 2.2075 21.445 1.1875 22.125 C-0.49948082 21.51155243 -2.16077188 20.82786303 -3.8125 20.125 C-6.33808184 19.62070363 -8.86662851 19.1888286 -11.41015625 18.78515625 C-14.1632277 18.02862117 -15.73615928 17.0753605 -17.8125 15.125 C-18.5625 11.9375 -18.5625 11.9375 -18.8125 9.125 C-17.8225 8.795 -16.8325 8.465 -15.8125 8.125 C-15.4825 5.815 -15.1525 3.505 -14.8125 1.125 C-9.89886266 -0.15681844 -5.03858914 -0.02224543 0 0 Z " fill="#917876" transform="translate(327.8125,335.875)"/>
<path d="M0 0 C0.66 0.33 1.32 0.66 2 1 C1.525625 2.03125 1.05125 3.0625 0.5625 4.125 C-0.83273851 7.40048851 -1.75001903 10.41693949 -2 14 C-1.34 14.66 -0.68 15.32 0 16 C-1.2065625 16.8971875 -1.2065625 16.8971875 -2.4375 17.8125 C-5.22327984 19.80947276 -5.22327984 19.80947276 -6 23 C-3.525 23.99 -3.525 23.99 -1 25 C-1 25.66 -1 26.32 -1 27 C-5.73979556 27.44091122 -9.13229714 26.70241193 -13.625 25.125 C-22.82020213 22.08508558 -32.39034851 21.67053589 -42 21 C-42 20.67 -42 20.34 -42 20 C-41.21753906 19.95101563 -40.43507812 19.90203125 -39.62890625 19.8515625 C-38.61699219 19.77679688 -37.60507813 19.70203125 -36.5625 19.625 C-35.55316406 19.55539062 -34.54382813 19.48578125 -33.50390625 19.4140625 C-32.67761719 19.27742188 -31.85132813 19.14078125 -31 19 C-30.67 18.34 -30.34 17.68 -30 17 C-30.99 17 -31.98 17 -33 17 C-32.67567593 13.93617261 -32.01098513 13.01029035 -29.71484375 10.859375 C-28.79832031 10.16328125 -27.88179688 9.4671875 -26.9375 8.75 C-26.01839844 8.04359375 -25.09929687 7.3371875 -24.15234375 6.609375 C-23.44207031 6.07828125 -22.73179687 5.5471875 -22 5 C-20.9140625 6.796875 -20.9140625 6.796875 -20 9 C-21.375 12.25 -21.375 12.25 -23 15 C-21.66613701 14.66879249 -20.33292749 14.33495252 -19 14 C-18.30261719 13.83242188 -17.60523438 13.66484375 -16.88671875 13.4921875 C-9.11707234 11.31171835 -4.48305458 6.59272733 0 0 Z " fill="#130908" transform="translate(290,303)"/>
<path d="M0 0 C0.66 0 1.32 0 2 0 C2 8.91 2 17.82 2 27 C0.35 26.34 -1.3 25.68 -3 25 C-5.70910327 24.83623249 -8.29726913 24.76512741 -11 24.8125 C-11.69867188 24.81314453 -12.39734375 24.81378906 -13.1171875 24.81445312 C-16.86244 24.84625244 -20.35894067 25.1110695 -24 26 C-23.67 25.01 -23.34 24.02 -23 23 C-23.33 22.195625 -23.66 21.39125 -24 20.5625 C-25.08904289 17.7718276 -25.01714949 16.74630362 -24 14 C-23.34 14 -22.68 14 -22 14 C-22 14.66 -22 15.32 -22 16 C-18.0570536 14.53403275 -16.98165412 12.62691725 -15.25 8.875 C-14.82203125 7.96492188 -14.3940625 7.05484375 -13.953125 6.1171875 C-13.63859375 5.41851562 -13.3240625 4.71984375 -13 4 C-12.67 4 -12.34 4 -12 4 C-11.85714286 12.57142857 -11.85714286 12.57142857 -13 16 C-8.16514464 13.71687386 -6.39279705 10.55496307 -4 6 C-2.7498835 3.90273495 -1.44586844 1.97602021 0 0 Z M-23 17 C-22 19 -22 19 -22 19 Z " fill="#8F797A" transform="translate(341,306)"/>
<path d="M0 0 C2.77707581 2.53559096 3.85812727 4.43265211 4.20532227 8.26831055 C4.24197998 9.13238525 4.2786377 9.99645996 4.31640625 10.88671875 C4.35830078 11.82451172 4.40019531 12.76230469 4.44335938 13.72851562 C4.48267578 14.70498047 4.52199219 15.68144531 4.5625 16.6875 C4.60568359 17.67556641 4.64886719 18.66363281 4.69335938 19.68164062 C4.79941654 22.12095546 4.90147714 24.56037113 5 27 C5.66 26.67 6.32 26.34 7 26 C7 27.32 7 28.64 7 30 C6.01 30 5.02 30 4 30 C2.85185003 27.70370006 2.69230191 25.92301914 2.4375 23.375 C2.35371094 22.55773437 2.26992187 21.74046875 2.18359375 20.8984375 C2.12300781 20.27195312 2.06242188 19.64546875 2 19 C1.34 19.33 0.68 19.66 0 20 C-0.47001033 23.27555608 -0.47001033 23.27555608 -0.625 27.0625 C-0.69976562 28.35285156 -0.77453125 29.64320313 -0.8515625 30.97265625 C-0.90054688 31.97167969 -0.94953125 32.97070312 -1 34 C-2.485 34.495 -2.485 34.495 -4 35 C-4.33 32.03 -4.66 29.06 -5 26 C-5.66 26.66 -6.32 27.32 -7 28 C-10.125 28.125 -10.125 28.125 -13 28 C-13.054348 25.9377952 -13.09294961 23.87517184 -13.125 21.8125 C-13.14820313 20.66394531 -13.17140625 19.51539063 -13.1953125 18.33203125 C-13.00484152 15.08259628 -12.39360127 12.91339479 -11 10 C-10.34 10 -9.68 10 -9 10 C-9 9.34 -9 8.68 -9 8 C-5.47930015 8.58678331 -3.28700157 9.35649921 0 11 C-0.99 8.03 -1.98 5.06 -3 2 C-2.01 1.34 -1.02 0.68 0 0 Z " fill="#B59E9C" transform="translate(221,308)"/>
<path d="M0 0 C3.16664666 -0.02940458 6.33325747 -0.04693315 9.5 -0.0625 C10.386875 -0.07087891 11.27375 -0.07925781 12.1875 -0.08789062 C17.55823086 -0.10763596 22.68633663 0.21164107 28 1 C28 1.66 28 2.32 28 3 C27.34 3.33 26.68 3.66 26 4 C25.493155 5.85745509 25.06914672 7.7378389 24.6875 9.625 C23.39542879 15.20621482 21.66572094 18.64076429 18 23 C17.01 22.67 16.02 22.34 15 22 C14.67 21.34 14.34 20.68 14 20 C13.01 20.66 12.02 21.32 11 22 C9.31301918 21.38655243 7.65172812 20.70286303 6 20 C3.44163491 19.49651375 0.88069 19.06339068 -1.6953125 18.66015625 C-4.31277094 17.91040968 -5.3919306 17.18087844 -7 15 C-7 14.01 -7 13.02 -7 12 C-5.53626953 12.01740234 -5.53626953 12.01740234 -4.04296875 12.03515625 C-2.77066406 12.04417969 -1.49835938 12.05320312 -0.1875 12.0625 C1.70935547 12.07990234 1.70935547 12.07990234 3.64453125 12.09765625 C6.99605237 12.16159116 6.99605237 12.16159116 10 11 C10.33 10.01 10.66 9.02 11 8 C11.66 8 12.32 8 13 8 C13 8.66 13 9.32 13 10 C15.97 10 18.94 10 22 10 C22 8.68 22 7.36 22 6 C22 5.34 22 4.68 22 4 C19.13026116 2.38364512 16.95535797 1.7266582 13.671875 1.5859375 C12.47304688 1.52792969 12.47304688 1.52792969 11.25 1.46875 C10.425 1.4378125 9.6 1.406875 8.75 1.375 C7.90953125 1.33632813 7.0690625 1.29765625 6.203125 1.2578125 C4.13576618 1.16384164 2.06791373 1.08084436 0 1 C0 0.67 0 0.34 0 0 Z " fill="#917475" transform="translate(318,336)"/>
<path d="M0 0 C1.99788438 0.34578768 3.99759451 0.68143549 6 1 C6 1.33 6 1.66 6 2 C5.12859375 2.09796875 4.2571875 2.1959375 3.359375 2.296875 C-8.81089214 3.82474403 -19.2520289 7.13298825 -30 13 C-30.94617188 13.49113281 -31.89234375 13.98226563 -32.8671875 14.48828125 C-44.8646859 21.01679012 -53.9133571 30.0354636 -62 41 C-62.495 39.515 -62.495 39.515 -63 38 C-61.64584449 35.77553331 -60.29552969 33.84147987 -58.6875 31.8125 C-58.00941284 30.94564575 -58.00941284 30.94564575 -57.31762695 30.0612793 C-52.01553946 23.49168014 -46.04467897 17.89038908 -38 15 C-38 14.34 -38 13.68 -38 13 C-9.73902833 -2.95122071 -9.73902833 -2.95122071 0 0 Z " fill="#0A1C2A" transform="translate(182,458)"/>
<path d="M0 0 C0.66 0.33 1.32 0.66 2 1 C1.67 1.99 1.34 2.98 1 4 C1.57854736 4.07516846 2.15709473 4.15033691 2.75317383 4.2277832 C24.32226172 7.06689407 24.32226172 7.06689407 33 10 C33.76699219 10.25910156 34.53398437 10.51820313 35.32421875 10.78515625 C38.50924194 11.92307297 41.17539805 13.11693203 44 15 C44 15.66 44 16.32 44 17 C38.79591159 16.6877547 34.96872088 15.58166079 30.1875 13.5 C19.05638793 9.26015819 6.75854341 10.06488701 -5 10 C-3.49760034 6.38058265 -2.17854707 3.2678206 0 0 Z " fill="#0E1326" transform="translate(170,418)"/>
<path d="M0 0 C4.2710989 0.1386402 8.54179892 0.28713901 12.8125 0.4375 C14.63491211 0.49647461 14.63491211 0.49647461 16.49414062 0.55664062 C17.65751953 0.59853516 18.82089844 0.64042969 20.01953125 0.68359375 C21.09307861 0.72025146 22.16662598 0.75690918 23.27270508 0.79467773 C26 1 26 1 29 2 C29.33 3.98 29.66 5.96 30 8 C18.39665488 8.45061534 9.91020243 8.60680162 0 2 C0 1.34 0 0.68 0 0 Z " fill="#080100" transform="translate(247,336)"/>
<path d="M0 0 C0.71607422 -0.01224609 1.43214844 -0.02449219 2.16992188 -0.03710938 C9.37298069 -0.05713642 9.37298069 -0.05713642 12.0625 2.1875 C12.3925 3.8375 12.7225 5.4875 13.0625 7.1875 C2.8325 7.1875 -7.3975 7.1875 -17.9375 7.1875 C-17.9375 6.1975 -17.9375 5.2075 -17.9375 4.1875 C-11.71152154 1.48566029 -6.866151 0.00614696 0 0 Z " fill="#130806" transform="translate(329.9375,329.8125)"/>
<path d="M0 0 C2.64220612 0.35705488 4.53863452 0.66004649 6.70703125 2.2578125 C8 4 8 4 7.9609375 6.19140625 C7.76757812 6.97386719 7.57421875 7.75632812 7.375 8.5625 C7.19710937 9.34753906 7.01921875 10.13257813 6.8359375 10.94140625 C6 13 6 13 3 15 C2.27034634 17.56282742 2.27034634 17.56282742 2 20 C0.02 20 -1.96 20 -4 20 C-4.054348 17.9377952 -4.09294961 15.87517184 -4.125 13.8125 C-4.14820313 12.66394531 -4.17140625 11.51539063 -4.1953125 10.33203125 C-4.00484152 7.08259628 -3.39360127 4.91339479 -2 2 C-1.34 2 -0.68 2 0 2 C0 1.34 0 0.68 0 0 Z " fill="#9F8883" transform="translate(212,316)"/>
<path d="M0 0 C3.63 0 7.26 0 11 0 C12.9955516 3.99110319 13.19546065 5.69986566 13 10 C9.37 10 5.74 10 2 10 C1.67 10.66 1.34 11.32 1 12 C0.34 11.67 -0.32 11.34 -1 11 C-1.34153937 9.33499557 -1.67449498 7.66821323 -2 6 C-2.66 5.34 -3.32 4.68 -4 4 C-3.01 3.67 -2.02 3.34 -1 3 C-0.67 2.01 -0.34 1.02 0 0 Z " fill="#C3ADAC" transform="translate(245,326)"/>
<path d="M0 0 C0.99 0.33 1.98 0.66 3 1 C-5.52090936 9.48081096 -18.27865574 20.54811688 -30.76953125 21.1953125 C-32.11732715 21.18216327 -33.46505695 21.1585249 -34.8125 21.125 C-35.85180664 21.11146484 -35.85180664 21.11146484 -36.91210938 21.09765625 C-38.60822395 21.07426157 -40.30415871 21.03839641 -42 21 C-42 21.66 -42 22.32 -42 23 C-42.66 23 -43.32 23 -44 23 C-43.896875 22.236875 -43.79375 21.47375 -43.6875 20.6875 C-43.790625 19.800625 -43.89375 18.91375 -44 18 C-46.44496043 16.28288757 -46.44496043 16.28288757 -49 15 C-49 14.34 -49 13.68 -49 13 C-50.32 12.34 -51.64 11.68 -53 11 C-52.34 10.67 -51.68 10.34 -51 10 C-50.40832031 10.42152344 -49.81664062 10.84304688 -49.20703125 11.27734375 C-48.41683594 11.82519531 -47.62664062 12.37304688 -46.8125 12.9375 C-46.03519531 13.48277344 -45.25789063 14.02804687 -44.45703125 14.58984375 C-41.92049701 16.0456289 -39.8781818 16.59613435 -37 17 C-37 17.66 -37 18.32 -37 19 C-26.14338328 17.88353942 -16.78090026 14.87981 -9 7 C-8.01 6.67 -7.02 6.34 -6 6 C-5.484375 5.484375 -4.96875 4.96875 -4.4375 4.4375 C-3.963125 3.963125 -3.48875 3.48875 -3 3 C-2.34 3 -1.68 3 -1 3 C-0.67 2.01 -0.34 1.02 0 0 Z " fill="#887679" transform="translate(310,399)"/>
<path d="M0 0 C0.20625 0.5775 0.4125 1.155 0.625 1.75 C2.49750888 4.81410544 4.96958519 6.15539968 8 8 C5.99155908 12.92980953 2.35894926 16.09403383 -2 19 C-4.6875 19.125 -4.6875 19.125 -7 19 C-7 14.57805511 -6.09269911 12.79248984 -4.0625 8.9375 C-2.5005447 5.95021434 -1.06630075 3.19890226 0 0 Z " fill="#140C0C" transform="translate(323,378)"/>
<path d="M0 0 C0.66 0.33 1.32 0.66 2 1 C0.89835882 3.23044611 -0.20621894 5.45935646 -1.3125 7.6875 C-1.62123047 8.31333984 -1.92996094 8.93917969 -2.24804688 9.58398438 C-6.10573571 17.33996929 -6.10573571 17.33996929 -8 20 C-11.1875 20.3125 -11.1875 20.3125 -14 20 C-14.33 19.01 -14.66 18.02 -15 17 C-15.99 17 -16.98 17 -18 17 C-18 16.34 -18 15.68 -18 15 C-17.45472656 14.75507813 -16.90945313 14.51015625 -16.34765625 14.2578125 C-9.36600812 10.79682454 -4.90721081 5.97450016 0 0 Z " fill="#96787C" transform="translate(290,303)"/>
<path d="M0 0 C8.00180661 -0.54249536 14.46595398 1.39161312 22 4 C18.71023192 5.09658936 17.28696233 4.79953138 14 4 C14.33 5.65 14.66 7.3 15 9 C12.03 9 9.06 9 6 9 C6 8.34 6 7.68 6 7 C5.071875 7.309375 5.071875 7.309375 4.125 7.625 C3.42375 7.74875 2.7225 7.8725 2 8 C0 6 0 6 -0.125 2.875 C-0.08375 1.92625 -0.0425 0.9775 0 0 Z " fill="#897171" transform="translate(260,325)"/>
<path d="M0 0 C0.33 0 0.66 0 1 0 C1.19865739 8.89543642 1.33447255 17.32910197 -1 26 C-1.33 26 -1.66 26 -2 26 C-2 24.35 -2 22.7 -2 21 C-2.66 21 -3.32 21 -4 21 C-4 20.34 -4 19.68 -4 19 C-4.66 19 -5.32 19 -6 19 C-7.20703125 17.44921875 -7.20703125 17.44921875 -8 15 C-7.01502187 12.41184426 -6.00842112 10.21574011 -4.6875 7.8125 C-4.35298828 7.17119141 -4.01847656 6.52988281 -3.67382812 5.86914062 C-1.22860282 1.22860282 -1.22860282 1.22860282 0 0 Z " fill="#877273" transform="translate(321,294)"/>
<path d="M0 0 C-1.36983503 3.16115776 -1.9890638 3.9927092 -5 6 C-8.25 6.30078125 -8.25 6.30078125 -12 6.3125 C-13.85625 6.33763672 -13.85625 6.33763672 -15.75 6.36328125 C-19 6 -19 6 -20.9375 4.66796875 C-22 3 -22 3 -22 0 C-20.53626953 0.01740234 -20.53626953 0.01740234 -19.04296875 0.03515625 C-17.77066406 0.04417969 -16.49835938 0.05320312 -15.1875 0.0625 C-13.29064453 0.07990234 -13.29064453 0.07990234 -11.35546875 0.09765625 C-0.85489834 -0.20794824 -0.85489834 -0.20794824 0 0 Z " fill="#090401" transform="translate(333,348)"/>
<path d="M0 0 C0.969375 0.4125 1.93875 0.825 2.9375 1.25 C3.2675 2.24 3.5975 3.23 3.9375 4.25 C4.5975 4.58 5.2575 4.91 5.9375 5.25 C4.9475 5.745 4.9475 5.745 3.9375 6.25 C4.5975 9.22 5.2575 12.19 5.9375 15.25 C4.9475 15.25 3.9575 15.25 2.9375 15.25 C2.6075 13.93 2.2775 12.61 1.9375 11.25 C0.9475 11.25 -0.0425 11.25 -1.0625 11.25 C-1.3925 9.6 -1.7225 7.95 -2.0625 6.25 C-4.3725 6.25 -6.6825 6.25 -9.0625 6.25 C-4.38732163 -1.07444611 -4.38732163 -1.07444611 0 0 Z " fill="#C9AFAC" transform="translate(215.0625,303.75)"/>
<path d="M0 0 C5.82271337 -0.59720137 9.9209404 1.471757 15 4 C15 4.66 15 5.32 15 6 C15.7425 6.268125 16.485 6.53625 17.25 6.8125 C19.86636554 7.94229421 21.80187111 9.20893202 24 11 C23.67 11.99 23.34 12.98 23 14 C23.66 14.33 24.32 14.66 25 15 C24.34 16.32 23.68 17.64 23 19 C23 17.68 23 16.36 23 15 C22.01 14.67 21.02 14.34 20 14 C19.34 13.01 18.68 12.02 18 11 C16.01954441 10.33820153 16.01954441 10.33820153 14 10 C13.34 9.67 12.68 9.34 12 9 C12 8.34 12 7.68 12 7 C11.360625 6.87625 10.72125 6.7525 10.0625 6.625 C9.381875 6.41875 8.70125 6.2125 8 6 C7.67 5.34 7.34 4.68 7 4 C6.01 3.67 5.02 3.34 4 3 C3.01 2.67 2.02 2.34 1 2 C0.67 1.34 0.34 0.68 0 0 Z " fill="#211B29" transform="translate(209,397)"/>
<path d="M0 0 C0 0.66 0 1.32 0 2 C-0.99 2 -1.98 2 -3 2 C-3 1.34 -3 0.68 -3 0 C-3.66 0 -4.32 0 -5 0 C-5.103125 0.639375 -5.20625 1.27875 -5.3125 1.9375 C-5.539375 2.618125 -5.76625 3.29875 -6 4 C-11.96422183 5.98807394 -17.25472393 5.29811043 -23 3 C-23 2.34 -23 1.68 -23 1 C-16.23556513 -0.8038493 -6.5730318 -3.2865159 0 0 Z " fill="#957F7D" transform="translate(334,344)"/>
<path d="M0 0 C0.99 0.33 1.98 0.66 3 1 C2.113125 1.721875 1.22625 2.44375 0.3125 3.1875 C-2.62643151 5.65173473 -5.4373693 8.13588334 -8 11 C-8 11.99 -8 12.98 -8 14 C-9.94228991 16.1503924 -12.0497717 18.04550556 -14.1875 20 C-16.06422036 22.07086385 -16.61050856 23.27355989 -17 26 C-18.65 26.33 -20.3 26.66 -22 27 C-16.00721285 16.60977519 -8.4731359 8.39376226 0 0 Z " fill="#4E5963" transform="translate(132,458)"/>
<path d="M0 0 C1.65 0 3.3 0 5 0 C3.68254507 4.61109225 2.09545138 8.3026553 -1 12 C-5.6753105 13.18616928 -10.33485225 13.08887102 -15.125 13 C-21.13909766 12.81510601 -21.13909766 12.81510601 -27 14 C-24.53299648 11.29804376 -22.69135891 10.09210468 -18.9152832 9.88647461 C-18.13499756 9.89171143 -17.35471191 9.89694824 -16.55078125 9.90234375 C-15.70322266 9.90556641 -14.85566406 9.90878906 -13.98242188 9.91210938 C-13.10134766 9.92048828 -12.22027344 9.92886719 -11.3125 9.9375 C-9.97348633 9.94426758 -9.97348633 9.94426758 -8.60742188 9.95117188 C-6.40488013 9.96295017 -4.20247401 9.97939836 -2 10 C-0.48179307 6.44357039 0.2220879 3.88653827 0 0 Z " fill="#6A6674" transform="translate(206,383)"/>
<path d="M0 0 C0 2 0 2 -2.1875 4.25 C-3.115625 5.1575 -4.04375 6.065 -5 7 C-5.84373922 8.03325603 -6.6772208 9.07497701 -7.5 10.125 C-9.91840137 12.90616158 -11.8152361 14.24837986 -15 16 C-16.68477344 17.31037934 -18.35648543 18.63823078 -20 20 C-20 16.16474507 -19.03954675 15.65406041 -16.38671875 12.98828125 C-15.63326172 12.23095703 -14.87980469 11.47363281 -14.10351562 10.69335938 C-13.30623047 9.90767578 -12.50894531 9.12199219 -11.6875 8.3125 C-10.50897461 7.11657227 -10.50897461 7.11657227 -9.30664062 5.89648438 C-8.54931641 5.14302734 -7.79199219 4.38957031 -7.01171875 3.61328125 C-6.31522217 2.92016846 -5.61872559 2.22705566 -4.90112305 1.51293945 C-3 0 -3 0 0 0 Z " fill="#5C616C" transform="translate(160,434)"/>
<path d="M0 0 C1.32 0 2.64 0 4 0 C2.74194623 4.50802601 1.09592835 7.4912812 -2 11 C-3.875 10.75 -3.875 10.75 -6 10 C-7.25 7.9375 -7.25 7.9375 -8 6 C-7 5 -6 4 -5 3 C-4.67 2.34 -4.34 1.68 -4 1 C-3.01 1.33 -2.02 1.66 -1 2 C-0.67 1.34 -0.34 0.68 0 0 Z " fill="#171117" transform="translate(339,379)"/>
<path d="M0 0 C1.125 3.75 1.125 3.75 0 6 C-0.04896726 7.60993467 -0.03673528 9.22196823 0.0078125 10.83203125 C0.02457031 11.79560547 0.04132813 12.75917969 0.05859375 13.75195312 C0.10261446 15.78078993 0.15460661 17.80947053 0.21484375 19.83789062 C0.35191531 29.18990922 0.35191531 29.18990922 -3 33 C-5.1875 33.8125 -5.1875 33.8125 -7 34 C-6.01193359 32.83791016 -6.01193359 32.83791016 -5.00390625 31.65234375 C-2.05308977 27.22287066 -2.67507674 22.69233552 -2.9375 17.5625 C-3.25529336 10.82243485 -3.19705921 6.03704427 0 0 Z " fill="#6E5756" transform="translate(307,341)"/>
<path d="M0 0 C3.35385053 1.30881972 5.18158898 3.34698486 7.5625 6 C6.5725 6.495 6.5725 6.495 5.5625 7 C5.15 6.525625 4.7375 6.05125 4.3125 5.5625 C2.25576262 3.72612734 1.34108383 3 -1.4375 3 C-4.20872275 5.35426499 -4.20872275 5.35426499 -6.4375 8 C-6.1075 8.66 -5.7775 9.32 -5.4375 10 C-6.0975 10 -6.7575 10 -7.4375 10 C-9.01304035 12.88628401 -9.90026373 15.53342384 -10.5625 18.75 C-10.73007813 19.54921875 -10.89765625 20.3484375 -11.0703125 21.171875 C-11.25207031 22.07679688 -11.25207031 22.07679688 -11.4375 23 C-11.7675 23 -12.0975 23 -12.4375 23 C-13.32875903 15.27575504 -10.61102681 9.46130871 -6.4375 3 C-3.12171053 0 -3.12171053 0 0 0 Z " fill="#AD9894" transform="translate(213.4375,301)"/>
<path d="M0 0 C6.02577572 0.7939649 11.97130201 1.90840975 17.9375 3.0625 C19.3925293 3.3419043 19.3925293 3.3419043 20.87695312 3.62695312 C23.25158936 4.08316403 25.62592437 4.5408823 28 5 C28 5.66 28 6.32 28 7 C18.37083774 7.48961842 8.37752166 6.02651299 0 1 C0 0.67 0 0.34 0 0 Z " fill="#78605E" transform="translate(272,386)"/>
<path d="M0 0 C0.12375 0.61875 0.2475 1.2375 0.375 1.875 C0.87197356 4.19120832 0.87197356 4.19120832 3 6 C1.7934375 6.8971875 1.7934375 6.8971875 0.5625 7.8125 C-2.22327984 9.80947276 -2.22327984 9.80947276 -3 13 C-0.525 13.99 -0.525 13.99 2 15 C2 15.66 2 16.32 2 17 C-1.375 17.125 -1.375 17.125 -5 17 C-5.66 16.34 -6.32 15.68 -7 15 C-6.34 14.67 -5.68 14.34 -5 14 C-4.80155488 12.04862298 -4.6044293 10.09708988 -4.41796875 8.14453125 C-3.75949906 4.76602791 -2.0897324 2.69642891 0 0 Z " fill="#241313" transform="translate(287,313)"/>
<path d="M0 0 C5 2 5 2 10 4 C10 4.66 10 5.32 10 6 C10.66 6 11.32 6 12 6 C12.33 5.34 12.66 4.68 13 4 C13.6875 5.8125 13.6875 5.8125 14 8 C12.51953125 9.63671875 12.51953125 9.63671875 11 11 C9.55962331 10.06692579 8.12281015 9.12834923 6.6875 8.1875 C5.48673828 7.40439453 5.48673828 7.40439453 4.26171875 6.60546875 C2.2762598 5.19610151 0.6508148 3.77903343 -1 2 C-0.67 1.34 -0.34 0.68 0 0 Z " fill="#07152B" transform="translate(215,434)"/>
<path d="M0 0 C3.16664666 -0.02940458 6.33325747 -0.04693315 9.5 -0.0625 C10.386875 -0.07087891 11.27375 -0.07925781 12.1875 -0.08789062 C17.55823086 -0.10763596 22.68633663 0.21164107 28 1 C28 1.66 28 2.32 28 3 C27.01 3.495 27.01 3.495 26 4 C25.31270746 6.11846285 25.31270746 6.11846285 24.875 8.5625 C24.70742188 9.38878906 24.53984375 10.21507812 24.3671875 11.06640625 C24.24601562 11.70449219 24.12484375 12.34257812 24 13 C22.25434889 9.78360346 21.795563 7.67986596 22 4 C19.13026116 2.38364512 16.95535797 1.7266582 13.671875 1.5859375 C12.87265625 1.54726563 12.0734375 1.50859375 11.25 1.46875 C10.425 1.4378125 9.6 1.406875 8.75 1.375 C7.90953125 1.33632813 7.0690625 1.29765625 6.203125 1.2578125 C4.13576618 1.16384164 2.06791373 1.08084436 0 1 C0 0.67 0 0.34 0 0 Z " fill="#7D6B69" transform="translate(318,336)"/>
<path d="M0 0 C0 1.98 0 3.96 0 6 C-0.66 5.67 -1.32 5.34 -2 5 C-2 4.34 -2 3.68 -2 3 C-9.73217066 2.1587727 -9.73217066 2.1587727 -16.9765625 4.11328125 C-18.48172755 5.59603596 -18.48172755 5.59603596 -20 8 C-20.99 7.34 -21.98 6.68 -23 6 C-15.73366762 -0.45896212 -9.46774436 -0.72725206 0 0 Z " fill="#8E7A78" transform="translate(260,324)"/>
<path d="M0 0 C0.66 1.32 1.32 2.64 2 4 C2.66 4.33 3.32 4.66 4 5 C4 5.66 4 6.32 4 7 C4.66 7.33 5.32 7.66 6 8 C4.68 11.3 3.36 14.6 2 18 C1.34 17.67 0.68 17.34 0 17 C0 11.39 0 5.78 0 0 Z " fill="#120706" transform="translate(225,318)"/>
<path d="M0 0 C0.99 0.33 1.98 0.66 3 1 C-3.36165457 7.08566088 -9.97733413 13.18222556 -18 17 C-18.99 16.67 -19.98 16.34 -21 16 C-19.43902526 14.8936781 -17.87614673 13.79004215 -16.3125 12.6875 C-15.00732422 11.76517578 -15.00732422 11.76517578 -13.67578125 10.82421875 C-11.91047616 9.62071878 -10.10872761 8.46881187 -8.2734375 7.375 C-5.97277801 6.10727712 -5.97277801 6.10727712 -4.3125 4.3125 C-3.6628125 3.6628125 -3.6628125 3.6628125 -3 3 C-2.34 3 -1.68 3 -1 3 C-0.67 2.01 -0.34 1.02 0 0 Z " fill="#867074" transform="translate(310,399)"/>
<path d="M0 0 C0.66 0.66 1.32 1.32 2 2 C1.38125 2.58394531 1.38125 2.58394531 0.75 3.1796875 C-4.31859519 8.08988909 -8.68198982 13.42584141 -13 19 C-13.33 18.01 -13.66 17.02 -14 16 C-12.51488777 13.69048679 -11.02407492 11.62943527 -9.3125 9.5 C-8.86455078 8.91863281 -8.41660156 8.33726562 -7.95507812 7.73828125 C-5.55568852 4.68578269 -3.28209356 2.1521925 0 0 Z " fill="#142635" transform="translate(133,480)"/>
<path d="M0 0 C1.32 0.66 2.64 1.32 4 2 C4.33 1.34 4.66 0.68 5 0 C5.99 0.66 6.98 1.32 8 2 C7.67 3.65 7.34 5.3 7 7 C5.02 7 3.04 7 1 7 C0.67 6.01 0.34 5.02 0 4 C-0.99 4 -1.98 4 -3 4 C-3 3.34 -3 2.68 -3 2 C-2.01 1.34 -1.02 0.68 0 0 Z " fill="#89656A" transform="translate(275,316)"/>
<path d="M0 0 C7.56220495 -0.24220585 13.50700359 -0.32866427 20 4 C20 4.66 20 5.32 20 6 C12.91296261 5.45484328 6.67203894 3.39081395 0 1 C0 0.67 0 0.34 0 0 Z " fill="#111D2F" transform="translate(194,429)"/>
<path d="M0 0 C3.43752007 1.5277867 6.18953688 3.50181056 9 6 C9 6.66 9 7.32 9 8 C9.61875 8.2475 10.2375 8.495 10.875 8.75 C13.35068687 10.20628639 13.95125002 11.37812506 15 14 C13.32700041 13.34938905 11.66140763 12.67966676 10 12 C8.88625 11.566875 8.88625 11.566875 7.75 11.125 C6 10 6 10 5.25 7.875 C5.12625 6.946875 5.12625 6.946875 5 6 C4.34 6 3.68 6 3 6 C1.375 4.6875 1.375 4.6875 0 3 C0 2.01 0 1.02 0 0 Z " fill="#88736E" transform="translate(240,394)"/>
<path d="M0 0 C1.258125 -0.020625 2.51625 -0.04125 3.8125 -0.0625 C4.52019531 -0.07410156 5.22789062 -0.08570313 5.95703125 -0.09765625 C8 0 8 0 11 1 C11.33 2.98 11.66 4.96 12 7 C6.06 7 0.12 7 -6 7 C-6 6.67 -6 6.34 -6 6 C-1.71 6 2.58 6 7 6 C7 4.68 7 3.36 7 2 C4.69 1.67 2.38 1.34 0 1 C0 0.67 0 0.34 0 0 Z " fill="#2D1F1E" transform="translate(265,337)"/>
<path d="M0 0 C0 0.66 0 1.32 0 2 C0.66 2.33 1.32 2.66 2 3 C2.99 3.66 3.98 4.32 5 5 C4.67 5.99 4.34 6.98 4 8 C1.525 7.01 1.525 7.01 -1 6 C-1 6.66 -1 7.32 -1 8 C-1.66 8 -2.32 8 -3 8 C-3.33 8.99 -3.66 9.98 -4 11 C-4 8.03 -4 5.06 -4 2 C-4.99 1.67 -5.98 1.34 -7 1 C-4.53721199 -0.231394 -2.7204945 -0.07159196 0 0 Z " fill="#B69D99" transform="translate(213,310)"/>
<path d="M0 0 C1.09570312 0.00902344 2.19140625 0.01804687 3.3203125 0.02734375 C4.16335938 0.03894531 5.00640625 0.05054688 5.875 0.0625 C5.545 0.7225 5.215 1.3825 4.875 2.0625 C2.53755706 2.53056645 0.17760921 2.88919794 -2.1875 3.1875 C-4.12302734 3.43886719 -4.12302734 3.43886719 -6.09765625 3.6953125 C-7.59619141 3.87707031 -7.59619141 3.87707031 -9.125 4.0625 C-9.125 4.7225 -9.125 5.3825 -9.125 6.0625 C-8.135 6.3925 -7.145 6.7225 -6.125 7.0625 C-7.115 7.0625 -8.105 7.0625 -9.125 7.0625 C-9.455 8.0525 -9.785 9.0425 -10.125 10.0625 C-10.455 8.0825 -10.785 6.1025 -11.125 4.0625 C-10.135 3.7325 -9.145 3.4025 -8.125 3.0625 C-8.125 2.4025 -8.125 1.7425 -8.125 1.0625 C-5.36047967 -0.31976016 -3.0788637 -0.03275387 0 0 Z " fill="#88706F" transform="translate(320.125,340.9375)"/>
<path d="M0 0 C-1.50424852 3.00849705 -3.99650263 3.49825131 -7 5 C-9.37732432 6.55962049 -11.71652505 8.16410169 -14.046875 9.79296875 C-16 11 -16 11 -18 11 C-16.4972742 6.79236776 -13.76667005 5.1972242 -10 3 C-9.34 3 -8.68 3 -8 3 C-8 2.34 -8 1.68 -8 1 C-5.29120665 -0.35439668 -2.99066732 -0.06501451 0 0 Z " fill="#0D202E" transform="translate(152,470)"/>
<path d="M0 0 C1.65 0.33 3.3 0.66 5 1 C5.33 2.65 5.66 4.3 6 6 C5.34 5.67 4.68 5.34 4 5 C4 4.34 4 3.68 4 3 C3.34 3 2.68 3 2 3 C1.896875 3.556875 1.79375 4.11375 1.6875 4.6875 C0.86866423 7.44176578 -0.45853781 9.58727657 -2 12 C-3.231394 8.30581799 -2.64432764 5.7943739 -2 2 C-1.34 2 -0.68 2 0 2 C0 1.34 0 0.68 0 0 Z " fill="#937C77" transform="translate(212,316)"/>
<path d="M0 0 C4.24925258 0.78992516 6.08910865 2.84653437 9 6 C8.67 6.66 8.34 7.32 8 8 C6.68 7.01 5.36 6.02 4 5 C2.35 6.65 0.7 8.3 -1 10 C-1.99 9.67 -2.98 9.34 -4 9 C-3.34 8.67 -2.68 8.34 -2 8 C-1.31527335 6.11235097 -1.31527335 6.11235097 -0.875 3.9375 C-0.70742188 3.20402344 -0.53984375 2.47054688 -0.3671875 1.71484375 C-0.24601562 1.14894531 -0.12484375 0.58304687 0 0 Z " fill="#312429" transform="translate(265,422)"/>
<path d="M0 0 C2.39652893 3.5947934 2.1385371 4.85505219 1.75 9.0625 C1.66234375 10.12597656 1.5746875 11.18945312 1.484375 12.28515625 C1 15 1 15 -1 17 C-3.64 16.01 -6.28 15.02 -9 14 C-6.01857603 13.25464401 -3.01350238 12.60270048 0 12 C0 8.04 0 4.08 0 0 Z " fill="#B09996" transform="translate(236,391)"/>
<path d="M0 0 C-1.36983503 3.16115776 -1.9890638 3.9927092 -5 6 C-8.35546875 6.1953125 -8.35546875 6.1953125 -12.1875 6.125 C-13.45980469 6.10695313 -14.73210937 6.08890625 -16.04296875 6.0703125 C-17.50669922 6.03550781 -17.50669922 6.03550781 -19 6 C-19 5.67 -19 5.34 -19 5 C-14.38 4.67 -9.76 4.34 -5 4 C-5 3.34 -5 2.68 -5 2 C-5.99 1.34 -6.98 0.68 -8 0 C-4.71023192 -1.09658936 -3.28696233 -0.79953138 0 0 Z " fill="#241817" transform="translate(333,348)"/>
<path d="M0 0 C0.99 0.33 1.98 0.66 3 1 C3 1.99 3 2.98 3 4 C9.27 4 15.54 4 22 4 C22 4.66 22 5.32 22 6 C20.75863281 5.98839844 19.51726562 5.97679687 18.23828125 5.96484375 C16.59635568 5.95546132 14.95442847 5.9463616 13.3125 5.9375 C12.49587891 5.92912109 11.67925781 5.92074219 10.83789062 5.91210938 C6.75500916 5.89557949 2.98348293 5.96964902 -1 7 C-0.67 4.69 -0.34 2.38 0 0 Z " fill="#705F5F" transform="translate(318,325)"/>
<path d="M0 0 C-0.3492558 3.14330223 -0.83925733 4.79491452 -2.8125 7.3125 C-5 9 -5 9 -9 9 C-8.82701599 6.66471585 -8.29774631 5.30822418 -6.66796875 3.62109375 C-2.42788462 0 -2.42788462 0 0 0 Z " fill="#836665" transform="translate(267,310)"/>
<path d="M0 0 C0.33 0 0.66 0 1 0 C1.09038099 5.15171623 0.84681133 9.91913204 0 15 C-0.33 15 -0.66 15 -1 15 C-1 13.35 -1 11.7 -1 10 C-1.66 10 -2.32 10 -3 10 C-3.75 7.8125 -3.75 7.8125 -4 5 C-2.125 2.1875 -2.125 2.1875 0 0 Z " fill="#91757A" transform="translate(320,305)"/>
<path d="M0 0 C2.33333333 2.33333333 4.66666667 4.66666667 7 7 C9.65537372 7.56520003 12.29144713 7.73788198 15 8 C15 8.33 15 8.66 15 9 C10.38 9 5.76 9 1 9 C0.67 6.03 0.34 3.06 0 0 Z " fill="#A08889" transform="translate(257,327)"/>
<path d="M0 0 C3.63 0 7.26 0 11 0 C12.9955516 3.99110319 13.19546065 5.69986566 13 10 C12.34 10 11.68 10 11 10 C10.34 7.03 9.68 4.06 9 1 C5.7 1.33 2.4 1.66 -1 2 C-0.67 1.34 -0.34 0.68 0 0 Z " fill="#B29999" transform="translate(245,326)"/>
<path d="M0 0 C2 3 2 3 2 5 C0.02 5.99 0.02 5.99 -2 7 C-1.67 7.66 -1.34 8.32 -1 9 C-2.98 9 -4.96 9 -7 9 C-6.82374165 6.62051228 -6.30280227 5.29774151 -4.59765625 3.62109375 C-3.09350908 2.37884514 -1.54870149 1.18623944 0 0 Z " fill="#907D7C" transform="translate(291,317)"/>
<path d="M0 0 C2.35171131 0.59861742 4.6859378 1.26924352 7 2 C7.33 2.66 7.66 3.32 8 4 C6.35 3.67 4.7 3.34 3 3 C3 3.66 3 4.32 3 5 C3.99 5.33 4.98 5.66 6 6 C5.67 6.66 5.34 7.32 5 8 C4.01 8 3.02 8 2 8 C2 8.66 2 9.32 2 10 C1.34 10 0.68 10 0 10 C0.185625 9.0925 0.37125 8.185 0.5625 7.25 C0.95734621 4.31685676 0.94691572 2.7355343 0 0 Z " fill="#03070E" transform="translate(232,408)"/>
<path d="M0 0 C0.66 0.33 1.32 0.66 2 1 C0.68 3.97 -0.64 6.94 -2 10 C-3.98 10 -5.96 10 -8 10 C-7.04367001 8.70684939 -6.08486149 7.41553147 -5.125 6.125 C-4.59132813 5.40570313 -4.05765625 4.68640625 -3.5078125 3.9453125 C-2 2 -2 2 0 0 Z " fill="#896E74" transform="translate(290,303)"/>
<path d="M0 0 C0.66 0.33 1.32 0.66 2 1 C1.34 2.65 0.68 4.3 0 6 C-2.9154476 6 -5.34154481 5.59136731 -8.1875 5 C-9.08855469 4.814375 -9.98960937 4.62875 -10.91796875 4.4375 C-11.60503906 4.293125 -12.29210937 4.14875 -13 4 C-13 3.67 -13 3.34 -13 3 C-11.96939453 2.92652344 -11.96939453 2.92652344 -10.91796875 2.8515625 C-9.56638672 2.73941406 -9.56638672 2.73941406 -8.1875 2.625 C-7.29417969 2.55539062 -6.40085937 2.48578125 -5.48046875 2.4140625 C-2.75601501 2.13354964 -2.75601501 2.13354964 0 0 Z " fill="#826F6F" transform="translate(331,351)"/>
<path d="M0 0 C0.66 0 1.32 0 2 0 C1.85795259 1.58367747 1.71119847 3.16693318 1.5625 4.75 C1.48128906 5.63171875 1.40007812 6.5134375 1.31640625 7.421875 C1.03761535 9.69350452 0.61209423 11.79851823 0 14 C-1.65 13.67 -3.3 13.34 -5 13 C-4.01 12.34 -3.02 11.68 -2 11 C-1.45629822 8.8716709 -1.45629822 8.8716709 -1.375 6.5 C-1.07894737 2.15789474 -1.07894737 2.15789474 0 0 Z " fill="#A08885" transform="translate(238,395)"/>
<path d="M0 0 C0.33 0 0.66 0 1 0 C1.14285714 8.57142857 1.14285714 8.57142857 0 12 C1.32 11.67 2.64 11.34 4 11 C3.01 12.485 3.01 12.485 2 14 C0.68 13.34 -0.64 12.68 -2 12 C-2 11.34 -2 10.68 -2 10 C-2.66 9.34 -3.32 8.68 -4 8 C-2.68 5.36 -1.36 2.72 0 0 Z " fill="#856F71" transform="translate(328,310)"/>
<path d="M0 0 C0.99 0.33 1.98 0.66 3 1 C2.21625 1.763125 1.4325 2.52625 0.625 3.3125 C-2.07257717 5.90891805 -2.07257717 5.90891805 -4 9 C-4.99 9 -5.98 9 -7 9 C-5.44499019 5.18315774 -2.96404505 2.80804268 0 0 Z " fill="#4F6170" transform="translate(131,478)"/>
<path d="M0 0 C2.31 0 4.62 0 7 0 C7 0.99 7 1.98 7 3 C7.639375 3.28875 8.27875 3.5775 8.9375 3.875 C11 5 11 5 12 7 C10.56068883 6.54738642 9.12361001 6.08767021 7.6875 5.625 C6.88699219 5.36976563 6.08648437 5.11453125 5.26171875 4.8515625 C3 4 3 4 0 2 C0 1.34 0 0.68 0 0 Z " fill="#2B1D1B" transform="translate(247,336)"/>
<path d="M0 0 C1.27310312 0.93441535 2.543388 1.87267111 3.8125 2.8125 C4.52019531 3.33457031 5.22789062 3.85664063 5.95703125 4.39453125 C7.78531393 5.83128877 9.39896688 7.31815763 11 9 C10.67 9.66 10.34 10.32 10 11 C7.5625 10.3125 7.5625 10.3125 5 9 C4.1875 6.375 4.1875 6.375 4 4 C2.02 4.99 2.02 4.99 0 6 C0 4.02 0 2.04 0 0 Z " fill="#1F1618" transform="translate(348,238)"/>
<path d="M0 0 C0.66 0.33 1.32 0.66 2 1 C1.52379711 5.37653129 0.33100111 7.06538005 -3.0625 9.8125 C-3.79597656 10.41707031 -4.52945313 11.02164062 -5.28515625 11.64453125 C-5.85105469 12.09183594 -6.41695312 12.53914063 -7 13 C-7 9.42808296 -6.41190492 9.02077328 -4.0625 6.5 C-1.92527675 4.19604302 -1.01747885 3.05243655 0 0 Z " fill="#425260" transform="translate(225,444)"/>
<path d="M0 0 C-3.07692746 2.6815279 -5.19734663 3.42087807 -9.25 3.6875 C-10.14203125 3.75324219 -11.0340625 3.81898438 -11.953125 3.88671875 C-12.62859375 3.92410156 -13.3040625 3.96148437 -14 4 C-9.72070816 -0.48364005 -6.11123374 -0.11752373 0 0 Z " fill="#262737" transform="translate(212,396)"/>
<path d="M0 0 C0.33 0 0.66 0 1 0 C1 1.98 1 3.96 1 6 C-1.475 5.01 -1.475 5.01 -4 4 C-4 4.99 -4 5.98 -4 7 C-5.32 7 -6.64 7 -8 7 C-8 5.68 -8 4.36 -8 3 C-6.865625 2.690625 -5.73125 2.38125 -4.5625 2.0625 C-1.21224901 1.37075469 -1.21224901 1.37075469 0 0 Z " fill="#BAA5A0" transform="translate(216,333)"/>
<path d="M0 0 C1.33333333 1.33333333 2.66666667 2.66666667 4 4 C0.7 4.33 -2.6 4.66 -6 5 C-6 4.01 -6 3.02 -6 2 C-3 0 -3 0 0 0 Z " fill="#241415" transform="translate(318,332)"/>
<path d="M0 0 C0.66 0 1.32 0 2 0 C2 3.63 2 7.26 2 11 C0.68 10.67 -0.64 10.34 -2 10 C-2 8.35 -2 6.7 -2 5 C-1.67 5 -1.34 5 -1 5 C-0.67 3.35 -0.34 1.7 0 0 Z " fill="#9E7C7F" transform="translate(340,308)"/>
<path d="M0 0 C0.66 0.33 1.32 0.66 2 1 C0.625 3 0.625 3 -1 5 C-1.66 5 -2.32 5 -3 5 C-3 6.32 -3 7.64 -3 9 C-5.31 9.66 -7.62 10.32 -10 11 C-9.67 10.34 -9.34 9.68 -9 9 C-8.34 9 -7.68 9 -7 9 C-6.6596875 8.1646875 -6.6596875 8.1646875 -6.3125 7.3125 C-4.64103234 4.36753316 -2.44723648 2.31843456 0 0 Z " fill="#1F2C3B" transform="translate(223,451)"/>
<path d="M0 0 C3.10415931 2.53976671 3.87460076 5.22187398 5 9 C5.33 9.66 5.66 10.32 6 11 C5.01 12.485 5.01 12.485 4 14 C2.13459373 9.29593201 0.63156995 5.05255964 0 0 Z " fill="#B3A09D" transform="translate(202,336)"/>
<path d="M0 0 C4.77609498 1.64178265 8.79382904 4.26546702 13 7 C12.67 7.66 12.34 8.32 12 9 C9.33333333 7.66666667 6.66666667 6.33333333 4 5 C4 4.34 4 3.68 4 3 C2.68 2.34 1.36 1.68 0 1 C0 0.67 0 0.34 0 0 Z " fill="#6E5554" transform="translate(257,409)"/>
<path d="M0 0 C1.65 0 3.3 0 5 0 C3.8905928 3.48670834 2.73662334 6.77484237 1 10 C0.34 10 -0.32 10 -1 10 C-0.67 6.7 -0.34 3.4 0 0 Z " fill="#86787B" transform="translate(206,383)"/>
<path d="M0 0 C0.99 0 1.98 0 3 0 C4.3271261 3.9813783 4.06915913 7.85045227 4 12 C2 8.25 2 8.25 2 6 C1.34 6 0.68 6 0 6 C0 4.02 0 2.04 0 0 Z " fill="#B19B96" transform="translate(260,344)"/>
<path d="M0 0 C1.41623216 -0.05447047 2.83308191 -0.09300508 4.25 -0.125 C5.03890625 -0.14820313 5.8278125 -0.17140625 6.640625 -0.1953125 C9 0 9 0 13 2 C6.565 2.495 6.565 2.495 0 3 C0 2.01 0 1.02 0 0 Z " fill="#695251" transform="translate(260,325)"/>
<path d="M0 0 C0.33 0 0.66 0 1 0 C1.28875 1.11375 1.5775 2.2275 1.875 3.375 C2.69241329 7.00291092 2.69241329 7.00291092 5 9 C1.25 12 1.25 12 -1 12 C-0.67 8.04 -0.34 4.08 0 0 Z " fill="#2B191A" transform="translate(329,310)"/>
<path d="M0 0 C2 3 2 3 2 5 C1.34 5 0.68 5 0 5 C0.99 5.99 1.98 6.98 3 8 C2.34 9.32 1.68 10.64 1 12 C0.01 12 -0.98 12 -2 12 C-1.34 8.04 -0.68 4.08 0 0 Z " fill="#210E10" transform="translate(321,310)"/>
<path d="M0 0 C3.64927898 3.64927898 4.91585183 8.42923408 5.1875 13.5 C5.125625 14.325 5.06375 15.15 5 16 C4.71125 15.401875 4.4225 14.80375 4.125 14.1875 C2.95257974 11.80672208 2.95257974 11.80672208 1 9 C0.5859375 6.73828125 0.5859375 6.73828125 0.375 4.3125 C0.30023438 3.50425781 0.22546875 2.69601562 0.1484375 1.86328125 C0.09945312 1.24839844 0.05046875 0.63351562 0 0 Z " fill="#314052" transform="translate(205,480)"/>
<path d="M0 0 C2.31 0 4.62 0 7 0 C7 1.32 7 2.64 7 4 C5.02 4 3.04 4 1 4 C0.67 2.68 0.34 1.36 0 0 Z " fill="#5E3F41" transform="translate(283,399)"/>
<path d="M0 0 C0.66 0 1.32 0 2 0 C1.67 4.29 1.34 8.58 1 13 C0.67 13 0.34 13 0 13 C-0.12375 12.030625 -0.2475 11.06125 -0.375 10.0625 C-0.58125 9.051875 -0.7875 8.04125 -1 7 C-1.66 6.67 -2.32 6.34 -3 6 C-2.42655063 3.13275314 -2.1385485 2.1385485 0 0 Z " fill="#8A6E71" transform="translate(298,309)"/>
<path d="M0 0 C1.32 0 2.64 0 4 0 C3.25 6.625 3.25 6.625 1 10 C-0.1577506 6.52674819 -0.06866652 3.63932552 0 0 Z " fill="#221B1F" transform="translate(164,309)"/>
<path d="M0 0 C8.44646925 6.15034169 8.44646925 6.15034169 12 10 C6.25 8.375 6.25 8.375 4 5 C1.44816596 3.79549696 1.44816596 3.79549696 -1 3 C-0.67 2.01 -0.34 1.02 0 0 Z " fill="#1D1412" transform="translate(246,417)"/>
<path d="M0 0 C0.66 0.99 1.32 1.98 2 3 C1.3503125 4.051875 1.3503125 4.051875 0.6875 5.125 C-1.01501086 8.02557406 -2.52448567 10.97870875 -4 14 C-4.66 13.67 -5.32 13.34 -6 13 C-5.1905146 11.01959844 -4.37732831 9.04070923 -3.5625 7.0625 C-3.11003906 5.96035156 -2.65757812 4.85820312 -2.19140625 3.72265625 C-1 1 -1 1 0 0 Z " fill="#AB9C9B" transform="translate(213,378)"/>
<path d="M0 0 C2.4375 0.6875 2.4375 0.6875 5 2 C5.8125 4.625 5.8125 4.625 6 7 C4.35 7 2.7 7 1 7 C0.67 4.69 0.34 2.38 0 0 Z " fill="#1A120E" transform="translate(337,330)"/>
<path d="M0 0 C0.33 0 0.66 0 1 0 C1 2.64 1 5.28 1 8 C0.34 7.34 -0.32 6.68 -1 6 C-1.66 7.32 -2.32 8.64 -3 10 C-3.66 10 -4.32 10 -5 10 C-3.85017555 6.10828647 -2.70784225 3.06103907 0 0 Z " fill="#7E6B6A" transform="translate(321,294)"/>
<path d="M0 0 C0.99 0 1.98 0 3 0 C2 2 1 4 0 6 C0.66 6 1.32 6 2 6 C2 6.66 2 7.32 2 8 C0.35 8 -1.3 8 -3 8 C-2.01 5.36 -1.02 2.72 0 0 Z " fill="#4E5B69" transform="translate(106,492)"/>
<path d="M0 0 C0 0.66 0 1.32 0 2 C-2 3.5 -2 3.5 -4 5 C-4 5.66 -4 6.32 -4 7 C-5.65 7 -7.3 7 -9 7 C-9 6.01 -9 5.02 -9 4 C-3.85714286 0 -3.85714286 0 0 0 Z " fill="#5C707D" transform="translate(149,473)"/>
<path d="M0 0 C1.99788438 0.34578768 3.99759451 0.68143549 6 1 C6 1.33 6 1.66 6 2 C4.06494977 2.24900646 2.12674066 2.47356242 0.1875 2.6875 C-0.89144531 2.81511719 -1.97039062 2.94273437 -3.08203125 3.07421875 C-6 3 -6 3 -7.88671875 1.51953125 C-8.25410156 1.01808594 -8.62148437 0.51664062 -9 0 C-5.55245322 -0.86188669 -3.38326212 -1.02523094 0 0 Z " fill="#142634" transform="translate(182,458)"/>
<path d="M0 0 C0.66 1.32 1.32 2.64 2 4 C1.01 4.99 0.02 5.98 -1 7 C-2.5 5.6875 -2.5 5.6875 -4 4 C-4 3.01 -4 2.02 -4 1 C-2.68 1.33 -1.36 1.66 0 2 C0 1.34 0 0.68 0 0 Z " fill="#060C1E" transform="translate(227,438)"/>
<path d="M0 0 C2.29633824 3.44450737 2.54016485 5.93812283 3 10 C2.67 9.01 2.34 8.02 2 7 C0.68 7 -0.64 7 -2 7 C-1.125 2.25 -1.125 2.25 0 0 Z " fill="#181218" transform="translate(382,299)"/>
<path d="M0 0 C0.33 0 0.66 0 1 0 C1 4.62 1 9.24 1 14 C1.66 14 2.32 14 3 14 C2.34 15.32 1.68 16.64 1 18 C0 17 0 17 -0.09765625 13.18359375 C-0.09098089 11.60153318 -0.07901875 10.01948841 -0.0625 8.4375 C-0.05798828 7.63119141 -0.05347656 6.82488281 -0.04882812 5.99414062 C-0.03700518 3.99606244 -0.01906914 1.99802217 0 0 Z " fill="#473230" transform="translate(225,318)"/>
<path d="M0 0 C2.2109885 0.42793326 3.98119242 0.99059621 6 2 C6 2.66 6 3.32 6 4 C5.01 4 4.02 4 3 4 C2.67 4.66 2.34 5.32 2 6 C0 5 0 5 -0.6875 3 C-0.790625 2.34 -0.89375 1.68 -1 1 C-0.67 0.67 -0.34 0.34 0 0 Z " fill="#A89592" transform="translate(244,332)"/>
<path d="M0 0 C0.66 0.33 1.32 0.66 2 1 C0.38405168 3.04119788 -1.2856382 5.04072937 -3 7 C-3.66 7 -4.32 7 -5 7 C-5 5.35 -5 3.7 -5 2 C-2.625 0.9375 -2.625 0.9375 0 0 Z " fill="#241011" transform="translate(302,327)"/>
<path d="M0 0 C1.1875 1.6875 1.1875 1.6875 2 4 C0.625 6.75 0.625 6.75 -1 9 C-1.99 8.67 -2.98 8.34 -4 8 C-3.34 7.01 -2.68 6.02 -2 5 C-2 3.68 -2 2.36 -2 1 C-1.34 0.67 -0.68 0.34 0 0 Z " fill="#2B1817" transform="translate(268,308)"/>
<path d="M0 0 C-1.50949493 3.01898986 -4.01655082 3.59960549 -7 5 C-7.99 5.495 -7.99 5.495 -9 6 C-9.33 5.01 -9.66 4.02 -10 3 C-9.34 3 -8.68 3 -8 3 C-8 2.34 -8 1.68 -8 1 C-5.29120665 -0.35439668 -2.99066732 -0.06501451 0 0 Z " fill="#172A38" transform="translate(152,470)"/>
<path d="M0 0 C1.65 0.33 3.3 0.66 5 1 C5 1.99 5 2.98 5 4 C3.02 4 1.04 4 -1 4 C-0.67 2.68 -0.34 1.36 0 0 Z " fill="#A3908D" transform="translate(231,325)"/>
<path d="M0 0 C0.12375 0.61875 0.2475 1.2375 0.375 1.875 C0.87197356 4.19120832 0.87197356 4.19120832 3 6 C2.34 6.66 1.68 7.32 1 8 C-1.125 7.625 -1.125 7.625 -3 7 C-2.01 4.69 -1.02 2.38 0 0 Z " fill="#19100E" transform="translate(287,313)"/>
<path d="M0 0 C2.475 0.495 2.475 0.495 5 1 C5.33 2.65 5.66 4.3 6 6 C5.34 5.67 4.68 5.34 4 5 C4 4.34 4 3.68 4 3 C2.68 3.33 1.36 3.66 0 4 C0 2.68 0 1.36 0 0 Z " fill="#78625C" transform="translate(212,316)"/>
<path d="M0 0 C4.83256305 0.41421969 6.82679218 2.46413986 10 6 C9.01 6.495 9.01 6.495 8 7 C7.62875 6.54625 7.2575 6.0925 6.875 5.625 C4.45735315 3.52970606 2.04569398 2.87986715 -1 2 C-0.67 1.34 -0.34 0.68 0 0 Z " fill="#8C7C79" transform="translate(211,301)"/>
<path d="M0 0 C2.31 0 4.62 0 7 0 C7.625 2.875 7.625 2.875 8 6 C7.34 6.66 6.68 7.32 6 8 C5.9071875 7.1028125 5.9071875 7.1028125 5.8125 6.1875 C4.67894758 3.13562809 2.79112005 2.5029108 0 1 C0 0.67 0 0.34 0 0 Z " fill="#372F32" transform="translate(162,291)"/>
<path d="M0 0 C0.66 0.33 1.32 0.66 2 1 C2 1.66 2 2.32 2 3 C0.04072937 4.7143618 -1.95880212 6.38405168 -4 8 C-3.50168276 4.31245243 -2.89932357 2.39509338 0 0 Z " fill="#30282D" transform="translate(164,281)"/>
<path d="M0 0 C0.66 0.66 1.32 1.32 2 2 C0.25 4 0.25 4 -2 6 C-3.32 6 -4.64 6 -6 6 C-5 3 -5 3 -3 1.875 C-2.34 1.58625 -1.68 1.2975 -1 1 C-0.67 0.67 -0.34 0.34 0 0 Z " fill="#475A68" transform="translate(123,494)"/>
<path d="M0 0 C0 3 0 3 -2.375 5.6875 C-5 8 -5 8 -7 8 C-5.50902342 4.2047869 -3.24299151 2.38957269 0 0 Z " fill="#5E7181" transform="translate(131,487)"/>
<path d="M0 0 C0.33 0 0.66 0 1 0 C1 1.98 1 3.96 1 6 C-0.98 6 -2.96 6 -5 6 C-3.35830472 3.97945196 -1.69088222 1.97956942 0 0 Z " fill="#CCB5B8" transform="translate(210,389)"/>
<path d="M0 0 C2.97 0.495 2.97 0.495 6 1 C5.01 1.33 4.02 1.66 3 2 C2.34 1.67 1.68 1.34 1 1 C0.67 1.99 0.34 2.98 0 4 C-2.0625 4.6875 -2.0625 4.6875 -4 5 C-3.67 3.68 -3.34 2.36 -3 1 C-2.01 1.33 -1.02 1.66 0 2 C0 1.34 0 0.68 0 0 Z " fill="#1E191C" transform="translate(324,226)"/>
<path d="M0 0 C0.66 0.33 1.32 0.66 2 1 C-0.25 3.5625 -0.25 3.5625 -3 6 C-4.32 5.67 -5.64 5.34 -7 5 C-4.69 3.35 -2.38 1.7 0 0 Z " fill="#252326" transform="translate(221,220)"/>
<path d="M0 0 C0.99 0.66 1.98 1.32 3 2 C1.02 4.31 -0.96 6.62 -3 9 C-3.33 8.01 -3.66 7.02 -4 6 C-2.0625 2.8125 -2.0625 2.8125 0 0 Z " fill="#233745" transform="translate(123,490)"/>
<path d="M0 0 C1.65 0 3.3 0 5 0 C3.6875 2.5 3.6875 2.5 2 5 C1.01 5 0.02 5 -1 5 C-0.67 3.35 -0.34 1.7 0 0 Z " fill="#525D6A" transform="translate(109,486)"/>
<path d="M0 0 C3.375 0.3125 3.375 0.3125 7 1 C7.66 1.99 8.32 2.98 9 4 C8.01 4.495 8.01 4.495 7 5 C6.34 4.67 5.68 4.34 5 4 C5 3.34 5 2.68 5 2 C3.35 1.67 1.7 1.34 0 1 C0 0.67 0 0.34 0 0 Z " fill="#B39C9F" transform="translate(219,399)"/>
<path d="M0 0 C1.94268841 2.91403262 3.46395304 5.85808576 5 9 C4.01 9 3.02 9 2 9 C0.93347808 6.69631264 -0.06421005 4.35981813 -1 2 C-0.67 1.34 -0.34 0.68 0 0 Z " fill="#A28884" transform="translate(225,371)"/>
<path d="M0 0 C0.33 0.99 0.66 1.98 1 3 C0.01 4.485 0.01 4.485 -1 6 C-2.32 5.67 -3.64 5.34 -5 5 C-5 4.34 -5 3.68 -5 3 C-4.360625 2.87625 -3.72125 2.7525 -3.0625 2.625 C-2.0415625 2.315625 -2.0415625 2.315625 -1 2 C-0.67 1.34 -0.34 0.68 0 0 Z " fill="#140809" transform="translate(326,312)"/>
<path d="M0 0 C2.35171131 0.59861742 4.6859378 1.26924352 7 2 C7.33 2.66 7.66 3.32 8 4 C2.25 4.125 2.25 4.125 0 3 C0 2.01 0 1.02 0 0 Z " fill="#190D0E" transform="translate(232,408)"/>
<path d="M0 0 C3.625 0.375 3.625 0.375 7 1 C4.42786866 2.61949011 3.32330841 3.04408751 0.25 2.625 C-0.4925 2.41875 -1.235 2.2125 -2 2 C-1.34 1.34 -0.68 0.68 0 0 Z " fill="#B9A9A4" transform="translate(214,356)"/>
<path d="M0 0 C1.98 0 3.96 0 6 0 C5.67 0.66 5.34 1.32 5 2 C4.34 2 3.68 2 3 2 C2.67 2.99 2.34 3.98 2 5 C1.34 4.34 0.68 3.68 0 3 C0 2.01 0 1.02 0 0 Z " fill="#211411" transform="translate(311,348)"/>
<path d="M0 0 C0.66 0.66 1.32 1.32 2 2 C1.34 3.98 0.68 5.96 0 8 C-0.33 7.34 -0.66 6.68 -1 6 C-1.66 5.67 -2.32 5.34 -3 5 C-2.01 3.35 -1.02 1.7 0 0 Z " fill="#8B7C7D" transform="translate(308,319)"/>
<path d="M0 0 C0.66 0 1.32 0 2 0 C2 1.98 2 3.96 2 6 C0.35 5.67 -1.3 5.34 -3 5 C-1.625 2.5 -1.625 2.5 0 0 Z " fill="#4F3A3B" transform="translate(234,320)"/>
</svg>
