<?xml version="1.0" encoding="UTF-8" ?>
<svg version="1.1" width="34" height="29" xmlns="http://www.w3.org/2000/svg" shape-rendering="crispEdges">
<rect x="0" y="0" width="1" height="1" fill="#8C7B09" />
<rect x="1" y="0" width="1" height="1" fill="#8C7B09" />
<rect x="2" y="0" width="1" height="1" fill="#8C7B09" />
<rect x="3" y="0" width="1" height="1" fill="#8C7B09" />
<rect x="4" y="0" width="1" height="1" fill="#8C7B09" />
<rect x="5" y="0" width="1" height="1" fill="#8C7B09" />
<rect x="6" y="0" width="1" height="1" fill="#8C7B09" />
<rect x="7" y="0" width="1" height="1" fill="#8C7B09" />
<rect x="8" y="0" width="1" height="1" fill="#8C7B09" />
<rect x="9" y="0" width="1" height="1" fill="#8C7B09" />
<rect x="10" y="0" width="1" height="1" fill="#8C7B09" />
<rect x="11" y="0" width="1" height="1" fill="#8C7B09" />
<rect x="20" y="0" width="1" height="1" fill="#8C7B09" />
<rect x="21" y="0" width="1" height="1" fill="#8C7B09" />
<rect x="22" y="0" width="1" height="1" fill="#8C7B09" />
<rect x="23" y="0" width="1" height="1" fill="#8C7B09" />
<rect x="24" y="0" width="1" height="1" fill="#8C7B09" />
<rect x="25" y="0" width="1" height="1" fill="#8C7B09" />
<rect x="26" y="0" width="1" height="1" fill="#8C7B09" />
<rect x="27" y="0" width="1" height="1" fill="#8C7B09" />
<rect x="28" y="0" width="1" height="1" fill="#8C7B09" />
<rect x="29" y="0" width="1" height="1" fill="#8C7B09" />
<rect x="30" y="0" width="1" height="1" fill="#8C7B09" />
<rect x="31" y="0" width="1" height="1" fill="#8C7B09" />
<rect x="0" y="1" width="1" height="1" fill="#8C7B09" />
<rect x="1" y="1" width="1" height="1" fill="#FFEB78" />
<rect x="2" y="1" width="1" height="1" fill="#FFEB78" />
<rect x="3" y="1" width="1" height="1" fill="#FFEB78" />
<rect x="4" y="1" width="1" height="1" fill="#FFEB78" />
<rect x="5" y="1" width="1" height="1" fill="#FFEB78" />
<rect x="6" y="1" width="1" height="1" fill="#FFEB78" />
<rect x="7" y="1" width="1" height="1" fill="#FFEB78" />
<rect x="8" y="1" width="1" height="1" fill="#FFEB78" />
<rect x="9" y="1" width="1" height="1" fill="#FFEB78" />
<rect x="10" y="1" width="1" height="1" fill="#FFEB78" />
<rect x="11" y="1" width="1" height="1" fill="#8C7B09" />
<rect x="20" y="1" width="1" height="1" fill="#8C7B09" />
<rect x="21" y="1" width="1" height="1" fill="#FFEB78" />
<rect x="22" y="1" width="1" height="1" fill="#FFEB78" />
<rect x="23" y="1" width="1" height="1" fill="#FFEB78" />
<rect x="24" y="1" width="1" height="1" fill="#FFEB78" />
<rect x="25" y="1" width="1" height="1" fill="#FFEB78" />
<rect x="26" y="1" width="1" height="1" fill="#FFEB78" />
<rect x="27" y="1" width="1" height="1" fill="#FFEB78" />
<rect x="28" y="1" width="1" height="1" fill="#FFEB78" />
<rect x="29" y="1" width="1" height="1" fill="#FFEB78" />
<rect x="30" y="1" width="1" height="1" fill="#FFEB78" />
<rect x="31" y="1" width="1" height="1" fill="#8C7B09" />
<rect x="0" y="2" width="1" height="1" fill="#8C7B09" />
<rect x="1" y="2" width="1" height="1" fill="#FFEB78" />
<rect x="2" y="2" width="1" height="1" fill="#F0CF15" />
<rect x="3" y="2" width="1" height="1" fill="#F0CF15" />
<rect x="4" y="2" width="1" height="1" fill="#F0CF15" />
<rect x="5" y="2" width="1" height="1" fill="#F0CF15" />
<rect x="6" y="2" width="1" height="1" fill="#F0CF15" />
<rect x="7" y="2" width="1" height="1" fill="#F0CF15" />
<rect x="8" y="2" width="1" height="1" fill="#F0CF15" />
<rect x="9" y="2" width="1" height="1" fill="#F0CF15" />
<rect x="10" y="2" width="1" height="1" fill="#FFEB78" />
<rect x="11" y="2" width="1" height="1" fill="#8C7B09" />
<rect x="12" y="2" width="1" height="1" fill="#2E2D2B" />
<rect x="20" y="2" width="1" height="1" fill="#8C7B09" />
<rect x="21" y="2" width="1" height="1" fill="#FFEB78" />
<rect x="22" y="2" width="1" height="1" fill="#F0CF15" />
<rect x="23" y="2" width="1" height="1" fill="#F0CF15" />
<rect x="24" y="2" width="1" height="1" fill="#F0D016" />
<rect x="25" y="2" width="1" height="1" fill="#F0D016" />
<rect x="26" y="2" width="1" height="1" fill="#F0D016" />
<rect x="27" y="2" width="1" height="1" fill="#F0D016" />
<rect x="28" y="2" width="1" height="1" fill="#F0D016" />
<rect x="29" y="2" width="1" height="1" fill="#F0D016" />
<rect x="30" y="2" width="1" height="1" fill="#FFEB78" />
<rect x="31" y="2" width="1" height="1" fill="#8C7B09" />
<rect x="32" y="2" width="1" height="1" fill="#2E2D2B" />
<rect x="33" y="2" width="1" height="1" fill="#2E2D2B" />
<rect x="0" y="3" width="1" height="1" fill="#8C7B09" />
<rect x="1" y="3" width="1" height="1" fill="#FFEB78" />
<rect x="2" y="3" width="1" height="1" fill="#F0D016" />
<rect x="3" y="3" width="1" height="1" fill="#F0D016" />
<rect x="4" y="3" width="1" height="1" fill="#F0D016" />
<rect x="5" y="3" width="1" height="1" fill="#F0D016" />
<rect x="6" y="3" width="1" height="1" fill="#F0D016" />
<rect x="7" y="3" width="1" height="1" fill="#F0D016" />
<rect x="8" y="3" width="1" height="1" fill="#F0D016" />
<rect x="9" y="3" width="1" height="1" fill="#F0D016" />
<rect x="10" y="3" width="1" height="1" fill="#FFEB78" />
<rect x="11" y="3" width="1" height="1" fill="#8C7B09" />
<rect x="12" y="3" width="1" height="1" fill="#2E2D2B" />
<rect x="13" y="3" width="1" height="1" fill="#2E2D2B" />
<rect x="20" y="3" width="1" height="1" fill="#8C7B09" />
<rect x="21" y="3" width="1" height="1" fill="#FFEB78" />
<rect x="22" y="3" width="1" height="1" fill="#F1D117" />
<rect x="23" y="3" width="1" height="1" fill="#F1D117" />
<rect x="24" y="3" width="1" height="1" fill="#F1D117" />
<rect x="25" y="3" width="1" height="1" fill="#F1D117" />
<rect x="26" y="3" width="1" height="1" fill="#F1D117" />
<rect x="27" y="3" width="1" height="1" fill="#F1D117" />
<rect x="28" y="3" width="1" height="1" fill="#F1D117" />
<rect x="29" y="3" width="1" height="1" fill="#F1D117" />
<rect x="30" y="3" width="1" height="1" fill="#FFEB78" />
<rect x="31" y="3" width="1" height="1" fill="#8C7B09" />
<rect x="32" y="3" width="1" height="1" fill="#2E2D2B" />
<rect x="33" y="3" width="1" height="1" fill="#2E2D2B" />
<rect x="0" y="4" width="1" height="1" fill="#8C7B09" />
<rect x="1" y="4" width="1" height="1" fill="#FFEB78" />
<rect x="2" y="4" width="1" height="1" fill="#F1D117" />
<rect x="3" y="4" width="1" height="1" fill="#F1D117" />
<rect x="4" y="4" width="1" height="1" fill="#F1D117" />
<rect x="5" y="4" width="1" height="1" fill="#F1D117" />
<rect x="6" y="4" width="1" height="1" fill="#F1D117" />
<rect x="7" y="4" width="1" height="1" fill="#F1D117" />
<rect x="8" y="4" width="1" height="1" fill="#F1D117" />
<rect x="9" y="4" width="1" height="1" fill="#F1D117" />
<rect x="10" y="4" width="1" height="1" fill="#FFEB78" />
<rect x="11" y="4" width="1" height="1" fill="#8C7B09" />
<rect x="12" y="4" width="1" height="1" fill="#2E2D2B" />
<rect x="13" y="4" width="1" height="1" fill="#2E2D2B" />
<rect x="20" y="4" width="1" height="1" fill="#8C7B09" />
<rect x="21" y="4" width="1" height="1" fill="#FFEB78" />
<rect x="22" y="4" width="1" height="1" fill="#F1D218" />
<rect x="23" y="4" width="1" height="1" fill="#F1D218" />
<rect x="24" y="4" width="1" height="1" fill="#F1D218" />
<rect x="25" y="4" width="1" height="1" fill="#F1D218" />
<rect x="26" y="4" width="1" height="1" fill="#F1D218" />
<rect x="27" y="4" width="1" height="1" fill="#F1D218" />
<rect x="28" y="4" width="1" height="1" fill="#F1D218" />
<rect x="29" y="4" width="1" height="1" fill="#F1D218" />
<rect x="30" y="4" width="1" height="1" fill="#FFEB78" />
<rect x="31" y="4" width="1" height="1" fill="#8C7B09" />
<rect x="32" y="4" width="1" height="1" fill="#2E2D2B" />
<rect x="33" y="4" width="1" height="1" fill="#2E2D2B" />
<rect x="0" y="5" width="1" height="1" fill="#8C7B09" />
<rect x="1" y="5" width="1" height="1" fill="#FFEB78" />
<rect x="2" y="5" width="1" height="1" fill="#F1D218" />
<rect x="3" y="5" width="1" height="1" fill="#F1D218" />
<rect x="4" y="5" width="1" height="1" fill="#F1D218" />
<rect x="5" y="5" width="1" height="1" fill="#F1D218" />
<rect x="6" y="5" width="1" height="1" fill="#F1D218" />
<rect x="7" y="5" width="1" height="1" fill="#F2D218" />
<rect x="8" y="5" width="1" height="1" fill="#F2D218" />
<rect x="9" y="5" width="1" height="1" fill="#F2D218" />
<rect x="10" y="5" width="1" height="1" fill="#FFEB78" />
<rect x="11" y="5" width="1" height="1" fill="#8C7B09" />
<rect x="12" y="5" width="1" height="1" fill="#2E2D2B" />
<rect x="13" y="5" width="1" height="1" fill="#2E2D2B" />
<rect x="20" y="5" width="1" height="1" fill="#8C7B09" />
<rect x="21" y="5" width="1" height="1" fill="#FFEB78" />
<rect x="22" y="5" width="1" height="1" fill="#F2D319" />
<rect x="23" y="5" width="1" height="1" fill="#F2D319" />
<rect x="24" y="5" width="1" height="1" fill="#F2D319" />
<rect x="25" y="5" width="1" height="1" fill="#F2D319" />
<rect x="26" y="5" width="1" height="1" fill="#F2D319" />
<rect x="27" y="5" width="1" height="1" fill="#F2D319" />
<rect x="28" y="5" width="1" height="1" fill="#F2D31A" />
<rect x="29" y="5" width="1" height="1" fill="#F2D31A" />
<rect x="30" y="5" width="1" height="1" fill="#FFEB78" />
<rect x="31" y="5" width="1" height="1" fill="#8C7B09" />
<rect x="32" y="5" width="1" height="1" fill="#2E2D2B" />
<rect x="33" y="5" width="1" height="1" fill="#2E2D2B" />
<rect x="0" y="6" width="1" height="1" fill="#8C7B09" />
<rect x="1" y="6" width="1" height="1" fill="#FFEB78" />
<rect x="2" y="6" width="1" height="1" fill="#F2D319" />
<rect x="3" y="6" width="1" height="1" fill="#F2D319" />
<rect x="4" y="6" width="1" height="1" fill="#F2D319" />
<rect x="5" y="6" width="1" height="1" fill="#F2D31A" />
<rect x="6" y="6" width="1" height="1" fill="#F2D31A" />
<rect x="7" y="6" width="1" height="1" fill="#F2D31A" />
<rect x="8" y="6" width="1" height="1" fill="#F2D41A" />
<rect x="9" y="6" width="1" height="1" fill="#F2D41A" />
<rect x="10" y="6" width="1" height="1" fill="#FFEB78" />
<rect x="11" y="6" width="1" height="1" fill="#8C7B09" />
<rect x="12" y="6" width="1" height="1" fill="#2E2D2B" />
<rect x="13" y="6" width="1" height="1" fill="#2E2D2B" />
<rect x="20" y="6" width="1" height="1" fill="#8C7B09" />
<rect x="21" y="6" width="1" height="1" fill="#FFEB78" />
<rect x="22" y="6" width="1" height="1" fill="#F3D41A" />
<rect x="23" y="6" width="1" height="1" fill="#F3D41B" />
<rect x="24" y="6" width="1" height="1" fill="#F3D41B" />
<rect x="25" y="6" width="1" height="1" fill="#F3D41B" />
<rect x="26" y="6" width="1" height="1" fill="#F3D41B" />
<rect x="27" y="6" width="1" height="1" fill="#F3D51B" />
<rect x="28" y="6" width="1" height="1" fill="#F3D51B" />
<rect x="29" y="6" width="1" height="1" fill="#F3D51B" />
<rect x="30" y="6" width="1" height="1" fill="#FFEB78" />
<rect x="31" y="6" width="1" height="1" fill="#8C7B09" />
<rect x="32" y="6" width="1" height="1" fill="#2E2D2B" />
<rect x="33" y="6" width="1" height="1" fill="#2E2D2B" />
<rect x="0" y="7" width="1" height="1" fill="#8C7B09" />
<rect x="1" y="7" width="1" height="1" fill="#FFEB78" />
<rect x="2" y="7" width="1" height="1" fill="#F3D41B" />
<rect x="3" y="7" width="1" height="1" fill="#F3D41B" />
<rect x="4" y="7" width="1" height="1" fill="#F3D51B" />
<rect x="5" y="7" width="1" height="1" fill="#F3D51B" />
<rect x="6" y="7" width="1" height="1" fill="#F3D51B" />
<rect x="7" y="7" width="1" height="1" fill="#F3D51B" />
<rect x="8" y="7" width="1" height="1" fill="#F3D51B" />
<rect x="9" y="7" width="1" height="1" fill="#F3D51B" />
<rect x="10" y="7" width="1" height="1" fill="#FFEB78" />
<rect x="11" y="7" width="1" height="1" fill="#8C7B09" />
<rect x="12" y="7" width="1" height="1" fill="#8C7B09" />
<rect x="13" y="7" width="1" height="1" fill="#8C7B09" />
<rect x="18" y="7" width="1" height="1" fill="#8C7B09" />
<rect x="19" y="7" width="1" height="1" fill="#8C7B09" />
<rect x="20" y="7" width="1" height="1" fill="#8C7B09" />
<rect x="21" y="7" width="1" height="1" fill="#FFEB78" />
<rect x="22" y="7" width="1" height="1" fill="#F3D51C" />
<rect x="23" y="7" width="1" height="1" fill="#F3D61C" />
<rect x="24" y="7" width="1" height="1" fill="#F3D61C" />
<rect x="25" y="7" width="1" height="1" fill="#F3D61C" />
<rect x="26" y="7" width="1" height="1" fill="#F3D61C" />
<rect x="27" y="7" width="1" height="1" fill="#F3D61C" />
<rect x="28" y="7" width="1" height="1" fill="#F3D61C" />
<rect x="29" y="7" width="1" height="1" fill="#F3D61C" />
<rect x="30" y="7" width="1" height="1" fill="#FFEB78" />
<rect x="31" y="7" width="1" height="1" fill="#8C7B09" />
<rect x="32" y="7" width="1" height="1" fill="#2E2D2B" />
<rect x="33" y="7" width="1" height="1" fill="#2E2D2B" />
<rect x="0" y="8" width="1" height="1" fill="#8C7B09" />
<rect x="1" y="8" width="1" height="1" fill="#FFEB78" />
<rect x="2" y="8" width="1" height="1" fill="#F3D61C" />
<rect x="3" y="8" width="1" height="1" fill="#F3D61C" />
<rect x="4" y="8" width="1" height="1" fill="#F3D61C" />
<rect x="5" y="8" width="1" height="1" fill="#F3D61C" />
<rect x="6" y="8" width="1" height="1" fill="#F3D61C" />
<rect x="7" y="8" width="1" height="1" fill="#F3D61C" />
<rect x="8" y="8" width="1" height="1" fill="#F3D61C" />
<rect x="9" y="8" width="1" height="1" fill="#F4D61C" />
<rect x="10" y="8" width="1" height="1" fill="#F4D61C" />
<rect x="11" y="8" width="1" height="1" fill="#FFEB78" />
<rect x="12" y="8" width="1" height="1" fill="#FFEB78" />
<rect x="13" y="8" width="1" height="1" fill="#FFEB78" />
<rect x="14" y="8" width="1" height="1" fill="#8C7B09" />
<rect x="17" y="8" width="1" height="1" fill="#8C7B09" />
<rect x="18" y="8" width="1" height="1" fill="#FFEB78" />
<rect x="19" y="8" width="1" height="1" fill="#FFEB78" />
<rect x="20" y="8" width="1" height="1" fill="#FFEB78" />
<rect x="21" y="8" width="1" height="1" fill="#F4D71D" />
<rect x="22" y="8" width="1" height="1" fill="#F4D71D" />
<rect x="23" y="8" width="1" height="1" fill="#F4D71D" />
<rect x="24" y="8" width="1" height="1" fill="#F4D71D" />
<rect x="25" y="8" width="1" height="1" fill="#F4D71D" />
<rect x="26" y="8" width="1" height="1" fill="#F4D71D" />
<rect x="27" y="8" width="1" height="1" fill="#F4D71D" />
<rect x="28" y="8" width="1" height="1" fill="#F4D71D" />
<rect x="29" y="8" width="1" height="1" fill="#F4D71D" />
<rect x="30" y="8" width="1" height="1" fill="#FFEB78" />
<rect x="31" y="8" width="1" height="1" fill="#8C7B09" />
<rect x="32" y="8" width="1" height="1" fill="#2E2D2B" />
<rect x="33" y="8" width="1" height="1" fill="#2E2D2B" />
<rect x="0" y="9" width="1" height="1" fill="#8C7B09" />
<rect x="1" y="9" width="1" height="1" fill="#FFEB78" />
<rect x="2" y="9" width="1" height="1" fill="#F4D71D" />
<rect x="3" y="9" width="1" height="1" fill="#F4D71D" />
<rect x="4" y="9" width="1" height="1" fill="#F4D71D" />
<rect x="5" y="9" width="1" height="1" fill="#F4D71D" />
<rect x="6" y="9" width="1" height="1" fill="#F4D71D" />
<rect x="7" y="9" width="1" height="1" fill="#F4D71D" />
<rect x="8" y="9" width="1" height="1" fill="#F4D71D" />
<rect x="9" y="9" width="1" height="1" fill="#F4D71E" />
<rect x="10" y="9" width="1" height="1" fill="#F4D71E" />
<rect x="11" y="9" width="1" height="1" fill="#F4D71E" />
<rect x="12" y="9" width="1" height="1" fill="#F4D71E" />
<rect x="13" y="9" width="1" height="1" fill="#FFEB78" />
<rect x="14" y="9" width="1" height="1" fill="#8C7B09" />
<rect x="17" y="9" width="1" height="1" fill="#8C7B09" />
<rect x="18" y="9" width="1" height="1" fill="#FFEB78" />
<rect x="19" y="9" width="1" height="1" fill="#F4D81E" />
<rect x="20" y="9" width="1" height="1" fill="#F4D81E" />
<rect x="21" y="9" width="1" height="1" fill="#F5D81E" />
<rect x="22" y="9" width="1" height="1" fill="#F5D81E" />
<rect x="23" y="9" width="1" height="1" fill="#F5D81E" />
<rect x="24" y="9" width="1" height="1" fill="#F5D81E" />
<rect x="25" y="9" width="1" height="1" fill="#F5D81E" />
<rect x="26" y="9" width="1" height="1" fill="#F5D81E" />
<rect x="27" y="9" width="1" height="1" fill="#F5D81F" />
<rect x="28" y="9" width="1" height="1" fill="#F5D81F" />
<rect x="29" y="9" width="1" height="1" fill="#F5D81F" />
<rect x="30" y="9" width="1" height="1" fill="#FFEB78" />
<rect x="31" y="9" width="1" height="1" fill="#8C7B09" />
<rect x="32" y="9" width="1" height="1" fill="#2E2D2B" />
<rect x="33" y="9" width="1" height="1" fill="#2E2D2B" />
<rect x="0" y="10" width="1" height="1" fill="#8C7B09" />
<rect x="1" y="10" width="1" height="1" fill="#FFEB78" />
<rect x="2" y="10" width="1" height="1" fill="#FFEB78" />
<rect x="3" y="10" width="1" height="1" fill="#F5D81E" />
<rect x="4" y="10" width="1" height="1" fill="#F5D81F" />
<rect x="5" y="10" width="1" height="1" fill="#F5D81F" />
<rect x="6" y="10" width="1" height="1" fill="#F5D81F" />
<rect x="7" y="10" width="1" height="1" fill="#F5D81F" />
<rect x="8" y="10" width="1" height="1" fill="#F5D81F" />
<rect x="9" y="10" width="1" height="1" fill="#F5D81F" />
<rect x="10" y="10" width="1" height="1" fill="#F5D81F" />
<rect x="11" y="10" width="1" height="1" fill="#F5D91F" />
<rect x="12" y="10" width="1" height="1" fill="#F5D91F" />
<rect x="13" y="10" width="1" height="1" fill="#FFEB78" />
<rect x="14" y="10" width="1" height="1" fill="#8C7B09" />
<rect x="15" y="10" width="1" height="1" fill="#8C7B09" />
<rect x="16" y="10" width="1" height="1" fill="#8C7B09" />
<rect x="17" y="10" width="1" height="1" fill="#8C7B09" />
<rect x="18" y="10" width="1" height="1" fill="#FFEB78" />
<rect x="19" y="10" width="1" height="1" fill="#F5D91F" />
<rect x="20" y="10" width="1" height="1" fill="#F5D91F" />
<rect x="21" y="10" width="1" height="1" fill="#F5D91F" />
<rect x="22" y="10" width="1" height="1" fill="#F5D91F" />
<rect x="23" y="10" width="1" height="1" fill="#F5D920" />
<rect x="24" y="10" width="1" height="1" fill="#F5D920" />
<rect x="25" y="10" width="1" height="1" fill="#F5D920" />
<rect x="26" y="10" width="1" height="1" fill="#F5D920" />
<rect x="27" y="10" width="1" height="1" fill="#F5D920" />
<rect x="28" y="10" width="1" height="1" fill="#F5D920" />
<rect x="29" y="10" width="1" height="1" fill="#FFEB78" />
<rect x="30" y="10" width="1" height="1" fill="#FFEB78" />
<rect x="31" y="10" width="1" height="1" fill="#8C7B09" />
<rect x="32" y="10" width="1" height="1" fill="#2E2D2B" />
<rect x="33" y="10" width="1" height="1" fill="#2E2D2B" />
<rect x="1" y="11" width="1" height="1" fill="#8C7B09" />
<rect x="2" y="11" width="1" height="1" fill="#8C7B09" />
<rect x="3" y="11" width="1" height="1" fill="#FFEB78" />
<rect x="4" y="11" width="1" height="1" fill="#F5D920" />
<rect x="5" y="11" width="1" height="1" fill="#F5D920" />
<rect x="6" y="11" width="1" height="1" fill="#F5D920" />
<rect x="7" y="11" width="1" height="1" fill="#F5DA20" />
<rect x="8" y="11" width="1" height="1" fill="#F5DA20" />
<rect x="9" y="11" width="1" height="1" fill="#F5DA20" />
<rect x="10" y="11" width="1" height="1" fill="#F6DA20" />
<rect x="11" y="11" width="1" height="1" fill="#F6DA20" />
<rect x="12" y="11" width="1" height="1" fill="#F6DA20" />
<rect x="13" y="11" width="1" height="1" fill="#F6DA20" />
<rect x="14" y="11" width="1" height="1" fill="#FFEB78" />
<rect x="15" y="11" width="1" height="1" fill="#FFEB78" />
<rect x="16" y="11" width="1" height="1" fill="#FFEB78" />
<rect x="17" y="11" width="1" height="1" fill="#FFEB78" />
<rect x="18" y="11" width="1" height="1" fill="#F6DA21" />
<rect x="19" y="11" width="1" height="1" fill="#F6DA21" />
<rect x="20" y="11" width="1" height="1" fill="#F6DA21" />
<rect x="21" y="11" width="1" height="1" fill="#F6DA21" />
<rect x="22" y="11" width="1" height="1" fill="#F6DA21" />
<rect x="23" y="11" width="1" height="1" fill="#F6DA21" />
<rect x="24" y="11" width="1" height="1" fill="#F6DA21" />
<rect x="25" y="11" width="1" height="1" fill="#F6DA21" />
<rect x="26" y="11" width="1" height="1" fill="#F6DB21" />
<rect x="27" y="11" width="1" height="1" fill="#F6DB21" />
<rect x="28" y="11" width="1" height="1" fill="#FFEB78" />
<rect x="29" y="11" width="1" height="1" fill="#8C7B09" />
<rect x="30" y="11" width="1" height="1" fill="#8C7B09" />
<rect x="31" y="11" width="1" height="1" fill="#8C7B09" />
<rect x="32" y="11" width="1" height="1" fill="#2E2D2B" />
<rect x="33" y="11" width="1" height="1" fill="#2E2D2B" />
<rect x="2" y="12" width="1" height="1" fill="#8C7B09" />
<rect x="3" y="12" width="1" height="1" fill="#FFEB78" />
<rect x="4" y="12" width="1" height="1" fill="#F6DB21" />
<rect x="5" y="12" width="1" height="1" fill="#F6DB21" />
<rect x="6" y="12" width="1" height="1" fill="#F6DB21" />
<rect x="7" y="12" width="1" height="1" fill="#F6DB21" />
<rect x="8" y="12" width="1" height="1" fill="#F6DB21" />
<rect x="9" y="12" width="1" height="1" fill="#F6DB21" />
<rect x="10" y="12" width="1" height="1" fill="#F6DB21" />
<rect x="11" y="12" width="1" height="1" fill="#F6DB21" />
<rect x="12" y="12" width="1" height="1" fill="#F6DB21" />
<rect x="13" y="12" width="1" height="1" fill="#F6DB22" />
<rect x="14" y="12" width="1" height="1" fill="#F6DB22" />
<rect x="15" y="12" width="1" height="1" fill="#F6DB22" />
<rect x="16" y="12" width="1" height="1" fill="#F6DB22" />
<rect x="17" y="12" width="1" height="1" fill="#F6DB22" />
<rect x="18" y="12" width="1" height="1" fill="#F6DB22" />
<rect x="19" y="12" width="1" height="1" fill="#F6DB22" />
<rect x="20" y="12" width="1" height="1" fill="#F6DB22" />
<rect x="21" y="12" width="1" height="1" fill="#F6DB22" />
<rect x="22" y="12" width="1" height="1" fill="#F6DC22" />
<rect x="23" y="12" width="1" height="1" fill="#F7DC22" />
<rect x="24" y="12" width="1" height="1" fill="#F7DC22" />
<rect x="25" y="12" width="1" height="1" fill="#F7DC22" />
<rect x="26" y="12" width="1" height="1" fill="#F7DC22" />
<rect x="27" y="12" width="1" height="1" fill="#F7DC22" />
<rect x="28" y="12" width="1" height="1" fill="#FFEB78" />
<rect x="29" y="12" width="1" height="1" fill="#8C7B09" />
<rect x="30" y="12" width="1" height="1" fill="#2E2D2B" />
<rect x="31" y="12" width="1" height="1" fill="#2E2D2B" />
<rect x="32" y="12" width="1" height="1" fill="#2E2D2B" />
<rect x="33" y="12" width="1" height="1" fill="#2E2D2B" />
<rect x="2" y="13" width="1" height="1" fill="#8C7B09" />
<rect x="3" y="13" width="1" height="1" fill="#FFEB78" />
<rect x="4" y="13" width="1" height="1" fill="#FFEB78" />
<rect x="5" y="13" width="1" height="1" fill="#FFEB78" />
<rect x="6" y="13" width="1" height="1" fill="#F7DC22" />
<rect x="7" y="13" width="1" height="1" fill="#F7DC22" />
<rect x="8" y="13" width="1" height="1" fill="#F7DC23" />
<rect x="9" y="13" width="1" height="1" fill="#F7DC23" />
<rect x="10" y="13" width="1" height="1" fill="#F7DC23" />
<rect x="11" y="13" width="1" height="1" fill="#F7DC23" />
<rect x="12" y="13" width="1" height="1" fill="#F7DC23" />
<rect x="13" y="13" width="1" height="1" fill="#F7DC23" />
<rect x="14" y="13" width="1" height="1" fill="#F7DC23" />
<rect x="15" y="13" width="1" height="1" fill="#F7DC23" />
<rect x="16" y="13" width="1" height="1" fill="#F7DC23" />
<rect x="17" y="13" width="1" height="1" fill="#F7DD23" />
<rect x="18" y="13" width="1" height="1" fill="#F7DD23" />
<rect x="19" y="13" width="1" height="1" fill="#F7DD23" />
<rect x="20" y="13" width="1" height="1" fill="#F7DD23" />
<rect x="21" y="13" width="1" height="1" fill="#F7DD23" />
<rect x="22" y="13" width="1" height="1" fill="#F7DD23" />
<rect x="23" y="13" width="1" height="1" fill="#F7DD23" />
<rect x="24" y="13" width="1" height="1" fill="#F7DD23" />
<rect x="25" y="13" width="1" height="1" fill="#F7DD23" />
<rect x="26" y="13" width="1" height="1" fill="#FFEB78" />
<rect x="27" y="13" width="1" height="1" fill="#FFEB78" />
<rect x="28" y="13" width="1" height="1" fill="#FFEB78" />
<rect x="29" y="13" width="1" height="1" fill="#8C7B09" />
<rect x="30" y="13" width="1" height="1" fill="#2E2D2B" />
<rect x="31" y="13" width="1" height="1" fill="#2E2D2B" />
<rect x="32" y="13" width="1" height="1" fill="#2E2D2B" />
<rect x="3" y="14" width="1" height="1" fill="#8C7B09" />
<rect x="4" y="14" width="1" height="1" fill="#8C7B09" />
<rect x="5" y="14" width="1" height="1" fill="#8C7B09" />
<rect x="6" y="14" width="1" height="1" fill="#FFEB78" />
<rect x="7" y="14" width="1" height="1" fill="#F7DD24" />
<rect x="8" y="14" width="1" height="1" fill="#F7DD24" />
<rect x="9" y="14" width="1" height="1" fill="#F7DD24" />
<rect x="10" y="14" width="1" height="1" fill="#F7DD24" />
<rect x="11" y="14" width="1" height="1" fill="#F7DD24" />
<rect x="12" y="14" width="1" height="1" fill="#F8DD24" />
<rect x="13" y="14" width="1" height="1" fill="#F8DE24" />
<rect x="14" y="14" width="1" height="1" fill="#F8DE24" />
<rect x="15" y="14" width="1" height="1" fill="#F8DE24" />
<rect x="16" y="14" width="1" height="1" fill="#F8DE24" />
<rect x="17" y="14" width="1" height="1" fill="#F8DE24" />
<rect x="18" y="14" width="1" height="1" fill="#F8DE24" />
<rect x="19" y="14" width="1" height="1" fill="#F8DE24" />
<rect x="20" y="14" width="1" height="1" fill="#F8DE24" />
<rect x="21" y="14" width="1" height="1" fill="#F8DE24" />
<rect x="22" y="14" width="1" height="1" fill="#F8DE25" />
<rect x="23" y="14" width="1" height="1" fill="#F8DE25" />
<rect x="24" y="14" width="1" height="1" fill="#F8DE25" />
<rect x="25" y="14" width="1" height="1" fill="#FFEB78" />
<rect x="26" y="14" width="1" height="1" fill="#8C7B09" />
<rect x="27" y="14" width="1" height="1" fill="#8C7B09" />
<rect x="28" y="14" width="1" height="1" fill="#8C7B09" />
<rect x="29" y="14" width="1" height="1" fill="#2E2D2B" />
<rect x="30" y="14" width="1" height="1" fill="#2E2D2B" />
<rect x="31" y="14" width="1" height="1" fill="#2E2D2B" />
<rect x="5" y="15" width="1" height="1" fill="#8C7B09" />
<rect x="6" y="15" width="1" height="1" fill="#FFEB78" />
<rect x="7" y="15" width="1" height="1" fill="#FFEB78" />
<rect x="8" y="15" width="1" height="1" fill="#FFEB78" />
<rect x="9" y="15" width="1" height="1" fill="#FFEB78" />
<rect x="10" y="15" width="1" height="1" fill="#FFEB78" />
<rect x="11" y="15" width="1" height="1" fill="#F8DF25" />
<rect x="12" y="15" width="1" height="1" fill="#F8DF25" />
<rect x="13" y="15" width="1" height="1" fill="#F8DF25" />
<rect x="14" y="15" width="1" height="1" fill="#F8DF25" />
<rect x="15" y="15" width="1" height="1" fill="#F8DF25" />
<rect x="16" y="15" width="1" height="1" fill="#F8DF25" />
<rect x="17" y="15" width="1" height="1" fill="#F8DF26" />
<rect x="18" y="15" width="1" height="1" fill="#F8DF26" />
<rect x="19" y="15" width="1" height="1" fill="#F8DF26" />
<rect x="20" y="15" width="1" height="1" fill="#F8DF26" />
<rect x="21" y="15" width="1" height="1" fill="#FFEB78" />
<rect x="22" y="15" width="1" height="1" fill="#FFEB78" />
<rect x="23" y="15" width="1" height="1" fill="#FFEB78" />
<rect x="24" y="15" width="1" height="1" fill="#FFEB78" />
<rect x="25" y="15" width="1" height="1" fill="#FFEB78" />
<rect x="26" y="15" width="1" height="1" fill="#8C7B09" />
<rect x="27" y="15" width="1" height="1" fill="#2E2D2B" />
<rect x="28" y="15" width="1" height="1" fill="#2E2D2B" />
<rect x="29" y="15" width="1" height="1" fill="#2E2D2B" />
<rect x="30" y="15" width="1" height="1" fill="#2E2D2B" />
<rect x="6" y="16" width="1" height="1" fill="#8C7B09" />
<rect x="7" y="16" width="1" height="1" fill="#8C7B09" />
<rect x="8" y="16" width="1" height="1" fill="#8C7B09" />
<rect x="9" y="16" width="1" height="1" fill="#8C7B09" />
<rect x="10" y="16" width="1" height="1" fill="#8C7B09" />
<rect x="11" y="16" width="1" height="1" fill="#FFEB78" />
<rect x="12" y="16" width="1" height="1" fill="#F9E027" />
<rect x="13" y="16" width="1" height="1" fill="#F9E027" />
<rect x="14" y="16" width="1" height="1" fill="#F9E027" />
<rect x="15" y="16" width="1" height="1" fill="#F9E027" />
<rect x="16" y="16" width="1" height="1" fill="#F9E027" />
<rect x="17" y="16" width="1" height="1" fill="#F9E027" />
<rect x="18" y="16" width="1" height="1" fill="#F9E027" />
<rect x="19" y="16" width="1" height="1" fill="#F9E027" />
<rect x="20" y="16" width="1" height="1" fill="#FFEB78" />
<rect x="21" y="16" width="1" height="1" fill="#8C7B09" />
<rect x="22" y="16" width="1" height="1" fill="#8C7B09" />
<rect x="23" y="16" width="1" height="1" fill="#8C7B09" />
<rect x="24" y="16" width="1" height="1" fill="#8C7B09" />
<rect x="25" y="16" width="1" height="1" fill="#8C7B09" />
<rect x="26" y="16" width="1" height="1" fill="#2E2D2B" />
<rect x="27" y="16" width="1" height="1" fill="#2E2D2B" />
<rect x="28" y="16" width="1" height="1" fill="#2E2D2B" />
<rect x="29" y="16" width="1" height="1" fill="#2E2D2B" />
<rect x="7" y="17" width="1" height="1" fill="#2E2D2B" />
<rect x="8" y="17" width="1" height="1" fill="#2E2D2B" />
<rect x="9" y="17" width="1" height="1" fill="#2E2D2B" />
<rect x="10" y="17" width="1" height="1" fill="#8C7B09" />
<rect x="11" y="17" width="1" height="1" fill="#FFEB78" />
<rect x="12" y="17" width="1" height="1" fill="#F9E128" />
<rect x="13" y="17" width="1" height="1" fill="#F9E128" />
<rect x="14" y="17" width="1" height="1" fill="#FAE128" />
<rect x="15" y="17" width="1" height="1" fill="#FAE128" />
<rect x="16" y="17" width="1" height="1" fill="#FAE128" />
<rect x="17" y="17" width="1" height="1" fill="#FAE128" />
<rect x="18" y="17" width="1" height="1" fill="#FAE128" />
<rect x="19" y="17" width="1" height="1" fill="#FAE128" />
<rect x="20" y="17" width="1" height="1" fill="#FFEB78" />
<rect x="21" y="17" width="1" height="1" fill="#8C7B09" />
<rect x="22" y="17" width="1" height="1" fill="#2E2D2B" />
<rect x="23" y="17" width="1" height="1" fill="#2E2D2B" />
<rect x="24" y="17" width="1" height="1" fill="#2E2D2B" />
<rect x="25" y="17" width="1" height="1" fill="#2E2D2B" />
<rect x="26" y="17" width="1" height="1" fill="#2E2D2B" />
<rect x="27" y="17" width="1" height="1" fill="#2E2D2B" />
<rect x="28" y="17" width="1" height="1" fill="#2E2D2B" />
<rect x="8" y="18" width="1" height="1" fill="#2E2D2B" />
<rect x="9" y="18" width="1" height="1" fill="#2E2D2B" />
<rect x="10" y="18" width="1" height="1" fill="#8C7B09" />
<rect x="11" y="18" width="1" height="1" fill="#FFEB78" />
<rect x="12" y="18" width="1" height="1" fill="#FAE229" />
<rect x="13" y="18" width="1" height="1" fill="#FAE229" />
<rect x="14" y="18" width="1" height="1" fill="#FAE229" />
<rect x="15" y="18" width="1" height="1" fill="#FAE229" />
<rect x="16" y="18" width="1" height="1" fill="#FAE329" />
<rect x="17" y="18" width="1" height="1" fill="#FAE329" />
<rect x="18" y="18" width="1" height="1" fill="#FAE329" />
<rect x="19" y="18" width="1" height="1" fill="#FAE329" />
<rect x="20" y="18" width="1" height="1" fill="#FFEB78" />
<rect x="21" y="18" width="1" height="1" fill="#8C7B09" />
<rect x="22" y="18" width="1" height="1" fill="#2E2D2B" />
<rect x="23" y="18" width="1" height="1" fill="#2E2D2B" />
<rect x="24" y="18" width="1" height="1" fill="#2E2D2B" />
<rect x="25" y="18" width="1" height="1" fill="#2E2D2B" />
<rect x="26" y="18" width="1" height="1" fill="#2E2D2B" />
<rect x="27" y="18" width="1" height="1" fill="#2E2D2B" />
<rect x="10" y="19" width="1" height="1" fill="#8C7B09" />
<rect x="11" y="19" width="1" height="1" fill="#FFEB78" />
<rect x="12" y="19" width="1" height="1" fill="#FBE42A" />
<rect x="13" y="19" width="1" height="1" fill="#FBE42A" />
<rect x="14" y="19" width="1" height="1" fill="#FBE42A" />
<rect x="15" y="19" width="1" height="1" fill="#FBE42A" />
<rect x="16" y="19" width="1" height="1" fill="#FBE42A" />
<rect x="17" y="19" width="1" height="1" fill="#FBE42B" />
<rect x="18" y="19" width="1" height="1" fill="#FBE42B" />
<rect x="19" y="19" width="1" height="1" fill="#FBE42B" />
<rect x="20" y="19" width="1" height="1" fill="#FFEB78" />
<rect x="21" y="19" width="1" height="1" fill="#8C7B09" />
<rect x="22" y="19" width="1" height="1" fill="#2E2D2B" />
<rect x="23" y="19" width="1" height="1" fill="#2E2D2B" />
<rect x="10" y="20" width="1" height="1" fill="#8C7B09" />
<rect x="11" y="20" width="1" height="1" fill="#FFEB78" />
<rect x="12" y="20" width="1" height="1" fill="#FBE52C" />
<rect x="13" y="20" width="1" height="1" fill="#FBE52C" />
<rect x="14" y="20" width="1" height="1" fill="#FBE52C" />
<rect x="15" y="20" width="1" height="1" fill="#FCE52C" />
<rect x="16" y="20" width="1" height="1" fill="#FCE52C" />
<rect x="17" y="20" width="1" height="1" fill="#FCE52C" />
<rect x="18" y="20" width="1" height="1" fill="#FCE52C" />
<rect x="19" y="20" width="1" height="1" fill="#FCE52C" />
<rect x="20" y="20" width="1" height="1" fill="#FFEB78" />
<rect x="21" y="20" width="1" height="1" fill="#8C7B09" />
<rect x="22" y="20" width="1" height="1" fill="#2E2D2B" />
<rect x="23" y="20" width="1" height="1" fill="#2E2D2B" />
<rect x="10" y="21" width="1" height="1" fill="#8C7B09" />
<rect x="11" y="21" width="1" height="1" fill="#FFEB78" />
<rect x="12" y="21" width="1" height="1" fill="#FCE62D" />
<rect x="13" y="21" width="1" height="1" fill="#FCE62D" />
<rect x="14" y="21" width="1" height="1" fill="#FCE62D" />
<rect x="15" y="21" width="1" height="1" fill="#FCE62D" />
<rect x="16" y="21" width="1" height="1" fill="#FCE62D" />
<rect x="17" y="21" width="1" height="1" fill="#FCE62D" />
<rect x="18" y="21" width="1" height="1" fill="#FCE62D" />
<rect x="19" y="21" width="1" height="1" fill="#FCE62D" />
<rect x="20" y="21" width="1" height="1" fill="#FFEB78" />
<rect x="21" y="21" width="1" height="1" fill="#8C7B09" />
<rect x="22" y="21" width="1" height="1" fill="#2E2D2B" />
<rect x="23" y="21" width="1" height="1" fill="#2E2D2B" />
<rect x="10" y="22" width="1" height="1" fill="#8C7B09" />
<rect x="11" y="22" width="1" height="1" fill="#FFEB78" />
<rect x="12" y="22" width="1" height="1" fill="#FDE72E" />
<rect x="13" y="22" width="1" height="1" fill="#FDE72E" />
<rect x="14" y="22" width="1" height="1" fill="#FDE72E" />
<rect x="15" y="22" width="1" height="1" fill="#FDE72E" />
<rect x="16" y="22" width="1" height="1" fill="#FDE72E" />
<rect x="17" y="22" width="1" height="1" fill="#FDE72E" />
<rect x="18" y="22" width="1" height="1" fill="#FDE72E" />
<rect x="19" y="22" width="1" height="1" fill="#FDE82E" />
<rect x="20" y="22" width="1" height="1" fill="#FFEB78" />
<rect x="21" y="22" width="1" height="1" fill="#8C7B09" />
<rect x="22" y="22" width="1" height="1" fill="#2E2D2B" />
<rect x="23" y="22" width="1" height="1" fill="#2E2D2B" />
<rect x="10" y="23" width="1" height="1" fill="#8C7B09" />
<rect x="11" y="23" width="1" height="1" fill="#FFEB78" />
<rect x="12" y="23" width="1" height="1" fill="#FDE82F" />
<rect x="13" y="23" width="1" height="1" fill="#FDE82F" />
<rect x="14" y="23" width="1" height="1" fill="#FDE82F" />
<rect x="15" y="23" width="1" height="1" fill="#FDE92F" />
<rect x="16" y="23" width="1" height="1" fill="#FDE930" />
<rect x="17" y="23" width="1" height="1" fill="#FEE930" />
<rect x="18" y="23" width="1" height="1" fill="#FEE930" />
<rect x="19" y="23" width="1" height="1" fill="#FEE930" />
<rect x="20" y="23" width="1" height="1" fill="#FFEB78" />
<rect x="21" y="23" width="1" height="1" fill="#8C7B09" />
<rect x="22" y="23" width="1" height="1" fill="#2E2D2B" />
<rect x="23" y="23" width="1" height="1" fill="#2E2D2B" />
<rect x="10" y="24" width="1" height="1" fill="#8C7B09" />
<rect x="11" y="24" width="1" height="1" fill="#FFEB78" />
<rect x="12" y="24" width="1" height="1" fill="#FEEA31" />
<rect x="13" y="24" width="1" height="1" fill="#FEEA31" />
<rect x="14" y="24" width="1" height="1" fill="#FEEA31" />
<rect x="15" y="24" width="1" height="1" fill="#FEEA31" />
<rect x="16" y="24" width="1" height="1" fill="#FEEA31" />
<rect x="17" y="24" width="1" height="1" fill="#FEEA31" />
<rect x="18" y="24" width="1" height="1" fill="#FEEA31" />
<rect x="19" y="24" width="1" height="1" fill="#FEEA31" />
<rect x="20" y="24" width="1" height="1" fill="#FFEB78" />
<rect x="21" y="24" width="1" height="1" fill="#8C7B09" />
<rect x="22" y="24" width="1" height="1" fill="#2E2D2B" />
<rect x="23" y="24" width="1" height="1" fill="#2E2D2B" />
<rect x="10" y="25" width="1" height="1" fill="#8C7B09" />
<rect x="11" y="25" width="1" height="1" fill="#FFEB78" />
<rect x="12" y="25" width="1" height="1" fill="#FFEB78" />
<rect x="13" y="25" width="1" height="1" fill="#FFEB78" />
<rect x="14" y="25" width="1" height="1" fill="#FFEB78" />
<rect x="15" y="25" width="1" height="1" fill="#FFEB78" />
<rect x="16" y="25" width="1" height="1" fill="#FFEB78" />
<rect x="17" y="25" width="1" height="1" fill="#FFEB78" />
<rect x="18" y="25" width="1" height="1" fill="#FFEB78" />
<rect x="19" y="25" width="1" height="1" fill="#FFEB78" />
<rect x="20" y="25" width="1" height="1" fill="#FFEB78" />
<rect x="21" y="25" width="1" height="1" fill="#8C7B09" />
<rect x="22" y="25" width="1" height="1" fill="#2E2D2B" />
<rect x="23" y="25" width="1" height="1" fill="#2E2D2B" />
<rect x="10" y="26" width="1" height="1" fill="#8C7B09" />
<rect x="11" y="26" width="1" height="1" fill="#8C7B09" />
<rect x="12" y="26" width="1" height="1" fill="#8C7B09" />
<rect x="13" y="26" width="1" height="1" fill="#8C7B09" />
<rect x="14" y="26" width="1" height="1" fill="#8C7B09" />
<rect x="15" y="26" width="1" height="1" fill="#8C7B09" />
<rect x="16" y="26" width="1" height="1" fill="#8C7B09" />
<rect x="17" y="26" width="1" height="1" fill="#8C7B09" />
<rect x="18" y="26" width="1" height="1" fill="#8C7B09" />
<rect x="19" y="26" width="1" height="1" fill="#8C7B09" />
<rect x="20" y="26" width="1" height="1" fill="#8C7B09" />
<rect x="21" y="26" width="1" height="1" fill="#8C7B09" />
<rect x="22" y="26" width="1" height="1" fill="#2E2D2B" />
<rect x="23" y="26" width="1" height="1" fill="#2E2D2B" />
<rect x="12" y="27" width="1" height="1" fill="#2E2D2B" />
<rect x="13" y="27" width="1" height="1" fill="#2E2D2B" />
<rect x="14" y="27" width="1" height="1" fill="#2E2D2B" />
<rect x="15" y="27" width="1" height="1" fill="#2E2D2B" />
<rect x="16" y="27" width="1" height="1" fill="#2E2D2B" />
<rect x="17" y="27" width="1" height="1" fill="#2E2D2B" />
<rect x="18" y="27" width="1" height="1" fill="#2E2D2B" />
<rect x="19" y="27" width="1" height="1" fill="#2E2D2B" />
<rect x="20" y="27" width="1" height="1" fill="#2E2D2B" />
<rect x="21" y="27" width="1" height="1" fill="#2E2D2B" />
<rect x="22" y="27" width="1" height="1" fill="#2E2D2B" />
<rect x="23" y="27" width="1" height="1" fill="#2E2D2B" />
<rect x="12" y="28" width="1" height="1" fill="#2E2D2B" />
<rect x="13" y="28" width="1" height="1" fill="#2E2D2B" />
<rect x="14" y="28" width="1" height="1" fill="#2E2D2B" />
<rect x="15" y="28" width="1" height="1" fill="#2E2D2B" />
<rect x="16" y="28" width="1" height="1" fill="#2E2D2B" />
<rect x="17" y="28" width="1" height="1" fill="#2E2D2B" />
<rect x="18" y="28" width="1" height="1" fill="#2E2D2B" />
<rect x="19" y="28" width="1" height="1" fill="#2E2D2B" />
<rect x="20" y="28" width="1" height="1" fill="#2E2D2B" />
<rect x="21" y="28" width="1" height="1" fill="#2E2D2B" />
<rect x="22" y="28" width="1" height="1" fill="#2E2D2B" />
<rect x="23" y="28" width="1" height="1" fill="#2E2D2B" />
</svg>