<?xml version="1.0" encoding="UTF-8" ?>
<svg version="1.1" width="23" height="64" xmlns="http://www.w3.org/2000/svg" shape-rendering="crispEdges">
<rect x="9" y="7" width="1" height="1" fill="#FF66F2" />
<rect x="12" y="7" width="1" height="1" fill="#FF66F2" />
<rect x="13" y="7" width="1" height="1" fill="#FF66F2" />
<rect x="9" y="8" width="1" height="1" fill="#FF2AED" />
<rect x="10" y="8" width="1" height="1" fill="#FF66F2" />
<rect x="11" y="8" width="1" height="1" fill="#FF66F2" />
<rect x="12" y="8" width="1" height="1" fill="#FF2AED" />
<rect x="13" y="8" width="1" height="1" fill="#FF2AED" />
<rect x="14" y="8" width="1" height="1" fill="#FF66F2" />
<rect x="15" y="8" width="1" height="1" fill="#FF66F2" />
<rect x="9" y="9" width="1" height="1" fill="#FF2AED" />
<rect x="10" y="9" width="1" height="1" fill="#FF2AED" />
<rect x="11" y="9" width="1" height="1" fill="#FF2AED" />
<rect x="12" y="9" width="1" height="1" fill="#FF2AED" />
<rect x="13" y="9" width="1" height="1" fill="#FF2AED" />
<rect x="14" y="9" width="1" height="1" fill="#FF2AED" />
<rect x="15" y="9" width="1" height="1" fill="#FF2AED" />
<rect x="9" y="10" width="1" height="1" fill="#FF2AED" />
<rect x="10" y="10" width="1" height="1" fill="#FF2AED" />
<rect x="12" y="10" width="1" height="1" fill="#FF2AED" />
<rect x="13" y="10" width="1" height="1" fill="#FF2AED" />
<rect x="9" y="11" width="1" height="1" fill="#FF2AED" />
<rect x="10" y="11" width="1" height="1" fill="#FF2AED" />
<rect x="12" y="11" width="1" height="1" fill="#FF2AED" />
<rect x="13" y="11" width="1" height="1" fill="#FF2AED" />
<rect x="9" y="12" width="1" height="1" fill="#FF2AED" />
<rect x="10" y="12" width="1" height="1" fill="#FF2AED" />
<rect x="12" y="12" width="1" height="1" fill="#FF2AED" />
<rect x="13" y="12" width="1" height="1" fill="#FF2AED" />
<rect x="9" y="13" width="1" height="1" fill="#FF2AED" />
<rect x="10" y="13" width="1" height="1" fill="#FF2AED" />
<rect x="11" y="13" width="1" height="1" fill="#FF66F2" />
<rect x="12" y="13" width="1" height="1" fill="#FF2AED" />
<rect x="13" y="13" width="1" height="1" fill="#FF2AED" />
<rect x="14" y="13" width="1" height="1" fill="#FF66F2" />
<rect x="15" y="13" width="1" height="1" fill="#FF66F2" />
<rect x="9" y="14" width="1" height="1" fill="#FF2AED" />
<rect x="10" y="14" width="1" height="1" fill="#FF2AED" />
<rect x="11" y="14" width="1" height="1" fill="#FF2AED" />
<rect x="12" y="14" width="1" height="1" fill="#FF2AED" />
<rect x="13" y="14" width="1" height="1" fill="#FF2AED" />
<rect x="14" y="14" width="1" height="1" fill="#FF2AED" />
<rect x="15" y="14" width="1" height="1" fill="#FF2AED" />
<rect x="9" y="15" width="1" height="1" fill="#FF2AED" />
<rect x="10" y="15" width="1" height="1" fill="#FF2AED" />
<rect x="12" y="15" width="1" height="1" fill="#FF2AED" />
<rect x="13" y="15" width="1" height="1" fill="#FF2AED" />
<rect x="9" y="17" width="1" height="1" fill="#FF66F2" />
<rect x="10" y="17" width="1" height="1" fill="#FF66F2" />
<rect x="15" y="17" width="1" height="1" fill="#FF66F2" />
<rect x="9" y="18" width="1" height="1" fill="#FF2AED" />
<rect x="10" y="18" width="1" height="1" fill="#FF2AED" />
<rect x="14" y="18" width="1" height="1" fill="#FF66F2" />
<rect x="15" y="18" width="1" height="1" fill="#FF2AED" />
<rect x="9" y="19" width="1" height="1" fill="#FF2AED" />
<rect x="10" y="19" width="1" height="1" fill="#FF2AED" />
<rect x="13" y="19" width="1" height="1" fill="#FF66F2" />
<rect x="14" y="19" width="1" height="1" fill="#FF2AED" />
<rect x="15" y="19" width="1" height="1" fill="#FF2AED" />
<rect x="9" y="20" width="1" height="1" fill="#FF2AED" />
<rect x="10" y="20" width="1" height="1" fill="#FF2AED" />
<rect x="11" y="20" width="1" height="1" fill="#FF66F2" />
<rect x="12" y="20" width="1" height="1" fill="#FF66F2" />
<rect x="13" y="20" width="1" height="1" fill="#FF2AED" />
<rect x="14" y="20" width="1" height="1" fill="#FF2AED" />
<rect x="9" y="21" width="1" height="1" fill="#FF2AED" />
<rect x="10" y="21" width="1" height="1" fill="#FF2AED" />
<rect x="11" y="21" width="1" height="1" fill="#FF2AED" />
<rect x="12" y="21" width="1" height="1" fill="#FF2AED" />
<rect x="13" y="21" width="1" height="1" fill="#FF2AED" />
<rect x="9" y="22" width="1" height="1" fill="#FF2AED" />
<rect x="10" y="22" width="1" height="1" fill="#FF2AED" />
<rect x="11" y="22" width="1" height="1" fill="#FF2AED" />
<rect x="10" y="23" width="1" height="1" fill="#FF2AED" />
<rect x="11" y="23" width="1" height="1" fill="#FF2AED" />
<rect x="11" y="24" width="1" height="1" fill="#FF2AED" />
<rect x="10" y="26" width="1" height="1" fill="#FF66F2" />
<rect x="14" y="26" width="1" height="1" fill="#FF66F2" />
<rect x="9" y="27" width="1" height="1" fill="#FF66F2" />
<rect x="10" y="27" width="1" height="1" fill="#FF2AED" />
<rect x="14" y="27" width="1" height="1" fill="#FF2AED" />
<rect x="15" y="27" width="1" height="1" fill="#FF66F2" />
<rect x="9" y="28" width="1" height="1" fill="#FF2AED" />
<rect x="10" y="28" width="1" height="1" fill="#FF2AED" />
<rect x="11" y="28" width="1" height="1" fill="#FF66F2" />
<rect x="12" y="28" width="1" height="1" fill="#FF66F2" />
<rect x="13" y="28" width="1" height="1" fill="#FF66F2" />
<rect x="14" y="28" width="1" height="1" fill="#FF2AED" />
<rect x="15" y="28" width="1" height="1" fill="#FF2AED" />
<rect x="16" y="28" width="1" height="1" fill="#FF66F2" />
<rect x="9" y="29" width="1" height="1" fill="#FF2AED" />
<rect x="10" y="29" width="1" height="1" fill="#FF2AED" />
<rect x="11" y="29" width="1" height="1" fill="#FF2AED" />
<rect x="12" y="29" width="1" height="1" fill="#FF2AED" />
<rect x="13" y="29" width="1" height="1" fill="#FF2AED" />
<rect x="14" y="29" width="1" height="1" fill="#FF2AED" />
<rect x="15" y="29" width="1" height="1" fill="#FF2AED" />
<rect x="16" y="29" width="1" height="1" fill="#FF2AED" />
<rect x="9" y="30" width="1" height="1" fill="#FF2AED" />
<rect x="10" y="30" width="1" height="1" fill="#FF2AED" />
<rect x="14" y="30" width="1" height="1" fill="#FF2AED" />
<rect x="15" y="30" width="1" height="1" fill="#FF2AED" />
<rect x="9" y="33" width="1" height="1" fill="#FF66F2" />
<rect x="10" y="33" width="1" height="1" fill="#FF66F2" />
<rect x="11" y="33" width="1" height="1" fill="#FF66F2" />
<rect x="14" y="33" width="1" height="1" fill="#FF66F2" />
<rect x="15" y="33" width="1" height="1" fill="#FF66F2" />
<rect x="9" y="34" width="1" height="1" fill="#FF2AED" />
<rect x="10" y="34" width="1" height="1" fill="#FF2AED" />
<rect x="11" y="34" width="1" height="1" fill="#FF2AED" />
<rect x="14" y="34" width="1" height="1" fill="#FF2AED" />
<rect x="15" y="34" width="1" height="1" fill="#FF2AED" />
<rect x="11" y="35" width="1" height="1" fill="#FF2AED" />
<rect x="12" y="35" width="1" height="1" fill="#FF66F2" />
<rect x="13" y="35" width="1" height="1" fill="#FF66F2" />
<rect x="14" y="35" width="1" height="1" fill="#FF2AED" />
<rect x="11" y="36" width="1" height="1" fill="#FF2AED" />
<rect x="12" y="36" width="1" height="1" fill="#FF2AED" />
<rect x="13" y="36" width="1" height="1" fill="#FF2AED" />
<rect x="10" y="37" width="1" height="1" fill="#FF66F2" />
<rect x="11" y="37" width="1" height="1" fill="#FF2AED" />
<rect x="12" y="37" width="1" height="1" fill="#FF2AED" />
<rect x="9" y="38" width="1" height="1" fill="#FF66F2" />
<rect x="10" y="38" width="1" height="1" fill="#FF2AED" />
<rect x="11" y="38" width="1" height="1" fill="#FF2AED" />
<rect x="12" y="38" width="1" height="1" fill="#FF2AED" />
<rect x="13" y="38" width="1" height="1" fill="#FF66F2" />
<rect x="14" y="38" width="1" height="1" fill="#FF66F2" />
<rect x="9" y="39" width="1" height="1" fill="#FF2AED" />
<rect x="10" y="39" width="1" height="1" fill="#FF2AED" />
<rect x="11" y="39" width="1" height="1" fill="#FF2AED" />
<rect x="12" y="39" width="1" height="1" fill="#FF2AED" />
<rect x="13" y="39" width="1" height="1" fill="#FF2AED" />
<rect x="14" y="39" width="1" height="1" fill="#FF2AED" />
<rect x="15" y="39" width="1" height="1" fill="#FF66F2" />
<rect x="16" y="39" width="1" height="1" fill="#FF66F2" />
<rect x="10" y="42" width="1" height="1" fill="#FF66F2" />
<rect x="11" y="42" width="1" height="1" fill="#FF66F2" />
<rect x="12" y="42" width="1" height="1" fill="#FF66F2" />
<rect x="13" y="42" width="1" height="1" fill="#FF66F2" />
<rect x="14" y="42" width="1" height="1" fill="#FF66F2" />
<rect x="9" y="43" width="1" height="1" fill="#FF66F2" />
<rect x="10" y="43" width="1" height="1" fill="#FF2AED" />
<rect x="11" y="43" width="1" height="1" fill="#FF2AED" />
<rect x="12" y="43" width="1" height="1" fill="#FF2AED" />
<rect x="13" y="43" width="1" height="1" fill="#FF2AED" />
<rect x="14" y="43" width="1" height="1" fill="#FF2AED" />
<rect x="15" y="43" width="1" height="1" fill="#FF66F2" />
<rect x="9" y="44" width="1" height="1" fill="#FF2AED" />
<rect x="10" y="44" width="1" height="1" fill="#FF2AED" />
<rect x="9" y="45" width="1" height="1" fill="#FF2AED" />
<rect x="10" y="45" width="1" height="1" fill="#FF2AED" />
<rect x="13" y="45" width="1" height="1" fill="#FF66F2" />
<rect x="14" y="45" width="1" height="1" fill="#FF66F2" />
<rect x="15" y="45" width="1" height="1" fill="#FF66F2" />
<rect x="9" y="46" width="1" height="1" fill="#FF2AED" />
<rect x="10" y="46" width="1" height="1" fill="#FF2AED" />
<rect x="13" y="46" width="1" height="1" fill="#FF2AED" />
<rect x="14" y="46" width="1" height="1" fill="#FF2AED" />
<rect x="15" y="46" width="1" height="1" fill="#FF2AED" />
<rect x="9" y="47" width="1" height="1" fill="#FF2AED" />
<rect x="10" y="47" width="1" height="1" fill="#FF2AED" />
<rect x="15" y="47" width="1" height="1" fill="#FF2AED" />
<rect x="9" y="48" width="1" height="1" fill="#FF2AED" />
<rect x="10" y="48" width="1" height="1" fill="#FF2AED" />
<rect x="11" y="48" width="1" height="1" fill="#FF66F2" />
<rect x="12" y="48" width="1" height="1" fill="#FF66F2" />
<rect x="13" y="48" width="1" height="1" fill="#FF66F2" />
<rect x="14" y="48" width="1" height="1" fill="#FF66F2" />
<rect x="15" y="48" width="1" height="1" fill="#FF2AED" />
<rect x="10" y="49" width="1" height="1" fill="#FF2AED" />
<rect x="11" y="49" width="1" height="1" fill="#FF2AED" />
<rect x="12" y="49" width="1" height="1" fill="#FF2AED" />
<rect x="13" y="49" width="1" height="1" fill="#FF2AED" />
<rect x="14" y="49" width="1" height="1" fill="#FF2AED" />
<rect x="9" y="51" width="1" height="1" fill="#FF66F2" />
<rect x="10" y="51" width="1" height="1" fill="#FF66F2" />
<rect x="11" y="51" width="1" height="1" fill="#FF66F2" />
<rect x="12" y="51" width="1" height="1" fill="#FF66F2" />
<rect x="9" y="52" width="1" height="1" fill="#FF2AED" />
<rect x="10" y="52" width="1" height="1" fill="#FF2AED" />
<rect x="11" y="52" width="1" height="1" fill="#FF2AED" />
<rect x="12" y="52" width="1" height="1" fill="#FF2AED" />
<rect x="13" y="52" width="1" height="1" fill="#FF66F2" />
<rect x="9" y="53" width="1" height="1" fill="#FF2AED" />
<rect x="10" y="53" width="1" height="1" fill="#FF2AED" />
<rect x="11" y="53" width="1" height="1" fill="#FF2AED" />
<rect x="12" y="53" width="1" height="1" fill="#FF2AED" />
<rect x="13" y="53" width="1" height="1" fill="#FF2AED" />
<rect x="14" y="53" width="1" height="1" fill="#FF66F2" />
<rect x="9" y="54" width="1" height="1" fill="#FF2AED" />
<rect x="10" y="54" width="1" height="1" fill="#FF2AED" />
<rect x="14" y="54" width="1" height="1" fill="#FF2AED" />
<rect x="15" y="54" width="1" height="1" fill="#FF66F2" />
<rect x="9" y="55" width="1" height="1" fill="#FF2AED" />
<rect x="10" y="55" width="1" height="1" fill="#FF2AED" />
<rect x="11" y="55" width="1" height="1" fill="#FF66F2" />
<rect x="12" y="55" width="1" height="1" fill="#FF66F2" />
<rect x="14" y="55" width="1" height="1" fill="#FF2AED" />
<rect x="15" y="55" width="1" height="1" fill="#FF2AED" />
<rect x="16" y="55" width="1" height="1" fill="#FF66F2" />
<rect x="11" y="56" width="1" height="1" fill="#FF2AED" />
<rect x="12" y="56" width="1" height="1" fill="#FF2AED" />
<rect x="15" y="56" width="1" height="1" fill="#FF2AED" />
<rect x="16" y="56" width="1" height="1" fill="#FF2AED" />
<rect x="15" y="57" width="1" height="1" fill="#FF2AED" />
<rect x="16" y="57" width="1" height="1" fill="#FF2AED" />
</svg>